M48
;DRILL file {KiCad 4.0.5} date 2017 May 14, Sunday 15:17:54
;FORMAT={-:-/ absolute / inch / decimal}
FMAT,2
INCH,TZ
T1C0.013
T2C0.026
T3C0.030
T4C0.039
T5C0.051
T6C0.126
%
G90
G05
M72
T1
X6.25Y-4.35
X6.475Y-4.05
X6.825Y-4.425
X6.825Y-4.775
X6.95Y-4.025
X6.975Y-3.55
X7.05Y-3.625
X7.075Y-3.45
X7.25Y-4.225
X7.3Y-3.375
X7.325Y-4.75
X7.325Y-4.9
X7.35Y-4.45
X7.475Y-4.6
X7.525Y-4.375
X7.525Y-4.55
X7.525Y-4.775
X7.65Y-3.675
X7.7Y-4.425
T2
X6.6Y-3.375
X6.6Y-3.4537
X6.6Y-3.5325
X6.6Y-3.6112
X6.6Y-3.69
X6.6Y-3.7687
X6.6Y-3.8474
X6.6Y-3.9262
X7.1512Y-3.375
X7.1512Y-3.4537
X7.1512Y-3.5325
X7.1512Y-3.6112
X7.1512Y-3.69
X7.1512Y-3.7687
X7.1512Y-3.8474
X7.1512Y-3.9262
T3
X6.2Y-3.42
X6.2Y-3.58
T4
X6.675Y-4.95
X6.775Y-4.95
X7.425Y-3.6
X7.525Y-3.6
X7.625Y-4.375
X7.625Y-4.475
X7.625Y-4.575
X7.625Y-4.675
X7.625Y-4.775
X7.625Y-4.875
T5
X6.225Y-4.825
X6.4219Y-4.825
T6
X6.275Y-3.95
X7.475Y-3.95
T0
M30
