G04 #@! TF.FileFunction,Copper,L2,Bot,Signal*
%FSLAX46Y46*%
G04 Gerber Fmt 4.6, Leading zero omitted, Abs format (unit mm)*
G04 Created by KiCad (PCBNEW 4.0.2-stable) date 2017 March 19, Sunday 16:28:48*
%MOMM*%
G01*
G04 APERTURE LIST*
%ADD10C,0.100000*%
%ADD11R,2.500000X1.100000*%
%ADD12O,2.500000X1.100000*%
%ADD13R,2.500000X2.500000*%
%ADD14C,2.500000*%
%ADD15R,1.700000X1.700000*%
%ADD16O,1.700000X1.700000*%
%ADD17C,1.524000*%
%ADD18C,0.600000*%
%ADD19C,0.250000*%
%ADD20C,0.254000*%
G04 APERTURE END LIST*
D10*
D11*
X108685100Y-98145600D03*
D12*
X108685100Y-100145600D03*
X108685100Y-102145600D03*
X108685100Y-104145600D03*
X108685100Y-106145600D03*
X108685100Y-108145600D03*
X108685100Y-110145600D03*
X108685100Y-112145600D03*
X124085100Y-112145600D03*
X123985100Y-110145600D03*
X124085100Y-108145600D03*
X124085100Y-106145600D03*
X124085100Y-104145600D03*
X124085100Y-102145600D03*
X124085100Y-100145600D03*
X124085100Y-98145600D03*
D13*
X123444000Y-128016000D03*
D14*
X128444000Y-128016000D03*
D15*
X135382000Y-112522000D03*
D16*
X137922000Y-112522000D03*
D15*
X137668000Y-91948000D03*
D16*
X137668000Y-94488000D03*
X137668000Y-97028000D03*
X137668000Y-99568000D03*
X137668000Y-102108000D03*
X137668000Y-104648000D03*
D17*
X100584000Y-83312000D03*
X104648000Y-83312000D03*
D18*
X139954000Y-94488000D03*
X137414000Y-86868000D03*
X139192000Y-120904000D03*
X135382000Y-115570000D03*
X118872000Y-128016000D03*
X120904000Y-112268000D03*
X115824000Y-118872000D03*
X128524000Y-104394000D03*
X127000000Y-110236000D03*
D19*
X128524000Y-108712000D02*
X128524000Y-104394000D01*
X127000000Y-110236000D02*
X128524000Y-108712000D01*
D20*
G36*
X142546000Y-134164000D02*
X97230000Y-134164000D01*
X97230000Y-128301750D01*
X121559000Y-128301750D01*
X121559000Y-129392310D01*
X121655673Y-129625699D01*
X121834302Y-129804327D01*
X122067691Y-129901000D01*
X123158250Y-129901000D01*
X123317000Y-129742250D01*
X123317000Y-128143000D01*
X123571000Y-128143000D01*
X123571000Y-129742250D01*
X123729750Y-129901000D01*
X124820309Y-129901000D01*
X125053698Y-129804327D01*
X125232327Y-129625699D01*
X125329000Y-129392310D01*
X125329000Y-128389305D01*
X126558674Y-128389305D01*
X126845043Y-129082372D01*
X127374839Y-129613093D01*
X128067405Y-129900672D01*
X128817305Y-129901326D01*
X129510372Y-129614957D01*
X130041093Y-129085161D01*
X130328672Y-128392595D01*
X130329326Y-127642695D01*
X130042957Y-126949628D01*
X129513161Y-126418907D01*
X128820595Y-126131328D01*
X128070695Y-126130674D01*
X127377628Y-126417043D01*
X126846907Y-126946839D01*
X126559328Y-127639405D01*
X126558674Y-128389305D01*
X125329000Y-128389305D01*
X125329000Y-128301750D01*
X125170250Y-128143000D01*
X123571000Y-128143000D01*
X123317000Y-128143000D01*
X121717750Y-128143000D01*
X121559000Y-128301750D01*
X97230000Y-128301750D01*
X97230000Y-126639690D01*
X121559000Y-126639690D01*
X121559000Y-127730250D01*
X121717750Y-127889000D01*
X123317000Y-127889000D01*
X123317000Y-126289750D01*
X123571000Y-126289750D01*
X123571000Y-127889000D01*
X125170250Y-127889000D01*
X125329000Y-127730250D01*
X125329000Y-126639690D01*
X125232327Y-126406301D01*
X125053698Y-126227673D01*
X124820309Y-126131000D01*
X123729750Y-126131000D01*
X123571000Y-126289750D01*
X123317000Y-126289750D01*
X123158250Y-126131000D01*
X122067691Y-126131000D01*
X121834302Y-126227673D01*
X121655673Y-126406301D01*
X121559000Y-126639690D01*
X97230000Y-126639690D01*
X97230000Y-100145600D01*
X106763171Y-100145600D01*
X106853374Y-100599080D01*
X107110249Y-100983522D01*
X107352817Y-101145600D01*
X107110249Y-101307678D01*
X106853374Y-101692120D01*
X106763171Y-102145600D01*
X106853374Y-102599080D01*
X107110249Y-102983522D01*
X107352817Y-103145600D01*
X107110249Y-103307678D01*
X106853374Y-103692120D01*
X106763171Y-104145600D01*
X106853374Y-104599080D01*
X107110249Y-104983522D01*
X107352817Y-105145600D01*
X107110249Y-105307678D01*
X106853374Y-105692120D01*
X106763171Y-106145600D01*
X106853374Y-106599080D01*
X107110249Y-106983522D01*
X107352817Y-107145600D01*
X107110249Y-107307678D01*
X106853374Y-107692120D01*
X106763171Y-108145600D01*
X106853374Y-108599080D01*
X107110249Y-108983522D01*
X107352817Y-109145600D01*
X107110249Y-109307678D01*
X106853374Y-109692120D01*
X106763171Y-110145600D01*
X106853374Y-110599080D01*
X107110249Y-110983522D01*
X107352817Y-111145600D01*
X107110249Y-111307678D01*
X106853374Y-111692120D01*
X106763171Y-112145600D01*
X106853374Y-112599080D01*
X107110249Y-112983522D01*
X107494691Y-113240397D01*
X107948171Y-113330600D01*
X109422029Y-113330600D01*
X109875509Y-113240397D01*
X110259951Y-112983522D01*
X110516826Y-112599080D01*
X110545416Y-112455344D01*
X122241297Y-112455344D01*
X122241702Y-112481746D01*
X122457376Y-112893718D01*
X122814287Y-113191796D01*
X123258100Y-113330600D01*
X123958100Y-113330600D01*
X123958100Y-112272600D01*
X124212100Y-112272600D01*
X124212100Y-113330600D01*
X124912100Y-113330600D01*
X125355913Y-113191796D01*
X125712824Y-112893718D01*
X125757829Y-112807750D01*
X133897000Y-112807750D01*
X133897000Y-113498309D01*
X133993673Y-113731698D01*
X134172301Y-113910327D01*
X134405690Y-114007000D01*
X135096250Y-114007000D01*
X135255000Y-113848250D01*
X135255000Y-112649000D01*
X134055750Y-112649000D01*
X133897000Y-112807750D01*
X125757829Y-112807750D01*
X125928498Y-112481746D01*
X125928903Y-112455344D01*
X125803461Y-112272600D01*
X124212100Y-112272600D01*
X123958100Y-112272600D01*
X122366739Y-112272600D01*
X122241297Y-112455344D01*
X110545416Y-112455344D01*
X110607029Y-112145600D01*
X110516826Y-111692120D01*
X110259951Y-111307678D01*
X110017383Y-111145600D01*
X110259951Y-110983522D01*
X110516826Y-110599080D01*
X110607029Y-110145600D01*
X122063171Y-110145600D01*
X122153374Y-110599080D01*
X122410249Y-110983522D01*
X122711791Y-111185005D01*
X122457376Y-111397482D01*
X122241702Y-111809454D01*
X122241297Y-111835856D01*
X122366739Y-112018600D01*
X123958100Y-112018600D01*
X123958100Y-111998600D01*
X124212100Y-111998600D01*
X124212100Y-112018600D01*
X125803461Y-112018600D01*
X125928903Y-111835856D01*
X125928498Y-111809454D01*
X125790414Y-111545691D01*
X133897000Y-111545691D01*
X133897000Y-112236250D01*
X134055750Y-112395000D01*
X135255000Y-112395000D01*
X135255000Y-111195750D01*
X135509000Y-111195750D01*
X135509000Y-112395000D01*
X135529000Y-112395000D01*
X135529000Y-112649000D01*
X135509000Y-112649000D01*
X135509000Y-113848250D01*
X135667750Y-114007000D01*
X136358310Y-114007000D01*
X136591699Y-113910327D01*
X136770327Y-113731698D01*
X136842597Y-113557223D01*
X136871946Y-113601147D01*
X137353715Y-113923054D01*
X137922000Y-114036093D01*
X138490285Y-113923054D01*
X138972054Y-113601147D01*
X139293961Y-113119378D01*
X139407000Y-112551093D01*
X139407000Y-112492907D01*
X139293961Y-111924622D01*
X138972054Y-111442853D01*
X138490285Y-111120946D01*
X137922000Y-111007907D01*
X137353715Y-111120946D01*
X136871946Y-111442853D01*
X136842597Y-111486777D01*
X136770327Y-111312302D01*
X136591699Y-111133673D01*
X136358310Y-111037000D01*
X135667750Y-111037000D01*
X135509000Y-111195750D01*
X135255000Y-111195750D01*
X135096250Y-111037000D01*
X134405690Y-111037000D01*
X134172301Y-111133673D01*
X133993673Y-111312302D01*
X133897000Y-111545691D01*
X125790414Y-111545691D01*
X125712824Y-111397482D01*
X125369517Y-111110765D01*
X125559951Y-110983522D01*
X125816826Y-110599080D01*
X125852215Y-110421167D01*
X126064838Y-110421167D01*
X126206883Y-110764943D01*
X126469673Y-111028192D01*
X126813201Y-111170838D01*
X127185167Y-111171162D01*
X127528943Y-111029117D01*
X127792192Y-110766327D01*
X127934838Y-110422799D01*
X127934879Y-110375923D01*
X129061401Y-109249401D01*
X129226148Y-109002840D01*
X129235746Y-108954586D01*
X129284000Y-108712000D01*
X129284000Y-105004890D01*
X136226524Y-105004890D01*
X136396355Y-105414924D01*
X136786642Y-105843183D01*
X137311108Y-106089486D01*
X137541000Y-105968819D01*
X137541000Y-104775000D01*
X137795000Y-104775000D01*
X137795000Y-105968819D01*
X138024892Y-106089486D01*
X138549358Y-105843183D01*
X138939645Y-105414924D01*
X139109476Y-105004890D01*
X138988155Y-104775000D01*
X137795000Y-104775000D01*
X137541000Y-104775000D01*
X136347845Y-104775000D01*
X136226524Y-105004890D01*
X129284000Y-105004890D01*
X129284000Y-104956463D01*
X129316192Y-104924327D01*
X129458838Y-104580799D01*
X129459162Y-104208833D01*
X129317117Y-103865057D01*
X129054327Y-103601808D01*
X128710799Y-103459162D01*
X128338833Y-103458838D01*
X127995057Y-103600883D01*
X127731808Y-103863673D01*
X127589162Y-104207201D01*
X127588838Y-104579167D01*
X127730883Y-104922943D01*
X127764000Y-104956118D01*
X127764000Y-108397198D01*
X126860320Y-109300878D01*
X126814833Y-109300838D01*
X126471057Y-109442883D01*
X126207808Y-109705673D01*
X126065162Y-110049201D01*
X126064838Y-110421167D01*
X125852215Y-110421167D01*
X125907029Y-110145600D01*
X125816826Y-109692120D01*
X125559951Y-109307678D01*
X125367383Y-109179009D01*
X125659951Y-108983522D01*
X125916826Y-108599080D01*
X126007029Y-108145600D01*
X125916826Y-107692120D01*
X125659951Y-107307678D01*
X125417383Y-107145600D01*
X125659951Y-106983522D01*
X125916826Y-106599080D01*
X126007029Y-106145600D01*
X125916826Y-105692120D01*
X125659951Y-105307678D01*
X125417383Y-105145600D01*
X125659951Y-104983522D01*
X125916826Y-104599080D01*
X126007029Y-104145600D01*
X125916826Y-103692120D01*
X125659951Y-103307678D01*
X125417383Y-103145600D01*
X125659951Y-102983522D01*
X125916826Y-102599080D01*
X126007029Y-102145600D01*
X125916826Y-101692120D01*
X125659951Y-101307678D01*
X125417383Y-101145600D01*
X125659951Y-100983522D01*
X125916826Y-100599080D01*
X126007029Y-100145600D01*
X125916826Y-99692120D01*
X125659951Y-99307678D01*
X125417383Y-99145600D01*
X125659951Y-98983522D01*
X125916826Y-98599080D01*
X126007029Y-98145600D01*
X125916826Y-97692120D01*
X125659951Y-97307678D01*
X125275509Y-97050803D01*
X125160871Y-97028000D01*
X136153907Y-97028000D01*
X136266946Y-97596285D01*
X136588853Y-98078054D01*
X136918026Y-98298000D01*
X136588853Y-98517946D01*
X136266946Y-98999715D01*
X136153907Y-99568000D01*
X136266946Y-100136285D01*
X136588853Y-100618054D01*
X136918026Y-100838000D01*
X136588853Y-101057946D01*
X136266946Y-101539715D01*
X136153907Y-102108000D01*
X136266946Y-102676285D01*
X136588853Y-103158054D01*
X136929553Y-103385702D01*
X136786642Y-103452817D01*
X136396355Y-103881076D01*
X136226524Y-104291110D01*
X136347845Y-104521000D01*
X137541000Y-104521000D01*
X137541000Y-104501000D01*
X137795000Y-104501000D01*
X137795000Y-104521000D01*
X138988155Y-104521000D01*
X139109476Y-104291110D01*
X138939645Y-103881076D01*
X138549358Y-103452817D01*
X138406447Y-103385702D01*
X138747147Y-103158054D01*
X139069054Y-102676285D01*
X139182093Y-102108000D01*
X139069054Y-101539715D01*
X138747147Y-101057946D01*
X138417974Y-100838000D01*
X138747147Y-100618054D01*
X139069054Y-100136285D01*
X139182093Y-99568000D01*
X139069054Y-98999715D01*
X138747147Y-98517946D01*
X138417974Y-98298000D01*
X138747147Y-98078054D01*
X139069054Y-97596285D01*
X139182093Y-97028000D01*
X139069054Y-96459715D01*
X138747147Y-95977946D01*
X138406447Y-95750298D01*
X138549358Y-95683183D01*
X138939645Y-95254924D01*
X139109476Y-94844890D01*
X138988155Y-94615000D01*
X137795000Y-94615000D01*
X137795000Y-94635000D01*
X137541000Y-94635000D01*
X137541000Y-94615000D01*
X136347845Y-94615000D01*
X136226524Y-94844890D01*
X136396355Y-95254924D01*
X136786642Y-95683183D01*
X136929553Y-95750298D01*
X136588853Y-95977946D01*
X136266946Y-96459715D01*
X136153907Y-97028000D01*
X125160871Y-97028000D01*
X124822029Y-96960600D01*
X123348171Y-96960600D01*
X122894691Y-97050803D01*
X122510249Y-97307678D01*
X122253374Y-97692120D01*
X122163171Y-98145600D01*
X122253374Y-98599080D01*
X122510249Y-98983522D01*
X122752817Y-99145600D01*
X122510249Y-99307678D01*
X122253374Y-99692120D01*
X122163171Y-100145600D01*
X122253374Y-100599080D01*
X122510249Y-100983522D01*
X122752817Y-101145600D01*
X122510249Y-101307678D01*
X122253374Y-101692120D01*
X122163171Y-102145600D01*
X122253374Y-102599080D01*
X122510249Y-102983522D01*
X122752817Y-103145600D01*
X122510249Y-103307678D01*
X122253374Y-103692120D01*
X122163171Y-104145600D01*
X122253374Y-104599080D01*
X122510249Y-104983522D01*
X122752817Y-105145600D01*
X122510249Y-105307678D01*
X122253374Y-105692120D01*
X122163171Y-106145600D01*
X122253374Y-106599080D01*
X122510249Y-106983522D01*
X122752817Y-107145600D01*
X122510249Y-107307678D01*
X122253374Y-107692120D01*
X122163171Y-108145600D01*
X122253374Y-108599080D01*
X122510249Y-108983522D01*
X122702817Y-109112191D01*
X122410249Y-109307678D01*
X122153374Y-109692120D01*
X122063171Y-110145600D01*
X110607029Y-110145600D01*
X110516826Y-109692120D01*
X110259951Y-109307678D01*
X110017383Y-109145600D01*
X110259951Y-108983522D01*
X110516826Y-108599080D01*
X110607029Y-108145600D01*
X110516826Y-107692120D01*
X110259951Y-107307678D01*
X110017383Y-107145600D01*
X110259951Y-106983522D01*
X110516826Y-106599080D01*
X110607029Y-106145600D01*
X110516826Y-105692120D01*
X110259951Y-105307678D01*
X110017383Y-105145600D01*
X110259951Y-104983522D01*
X110516826Y-104599080D01*
X110607029Y-104145600D01*
X110516826Y-103692120D01*
X110259951Y-103307678D01*
X110017383Y-103145600D01*
X110259951Y-102983522D01*
X110516826Y-102599080D01*
X110607029Y-102145600D01*
X110516826Y-101692120D01*
X110259951Y-101307678D01*
X110017383Y-101145600D01*
X110259951Y-100983522D01*
X110516826Y-100599080D01*
X110607029Y-100145600D01*
X110516826Y-99692120D01*
X110259951Y-99307678D01*
X110209229Y-99273787D01*
X110386541Y-99159690D01*
X110531531Y-98947490D01*
X110582540Y-98695600D01*
X110582540Y-97595600D01*
X110538262Y-97360283D01*
X110399190Y-97144159D01*
X110186990Y-96999169D01*
X109935100Y-96948160D01*
X107435100Y-96948160D01*
X107199783Y-96992438D01*
X106983659Y-97131510D01*
X106838669Y-97343710D01*
X106787660Y-97595600D01*
X106787660Y-98695600D01*
X106831938Y-98930917D01*
X106971010Y-99147041D01*
X107158715Y-99275294D01*
X107110249Y-99307678D01*
X106853374Y-99692120D01*
X106763171Y-100145600D01*
X97230000Y-100145600D01*
X97230000Y-91098000D01*
X136170560Y-91098000D01*
X136170560Y-92798000D01*
X136214838Y-93033317D01*
X136353910Y-93249441D01*
X136566110Y-93394431D01*
X136674107Y-93416301D01*
X136396355Y-93721076D01*
X136226524Y-94131110D01*
X136347845Y-94361000D01*
X137541000Y-94361000D01*
X137541000Y-94341000D01*
X137795000Y-94341000D01*
X137795000Y-94361000D01*
X138988155Y-94361000D01*
X139109476Y-94131110D01*
X138939645Y-93721076D01*
X138663499Y-93418063D01*
X138753317Y-93401162D01*
X138969441Y-93262090D01*
X139114431Y-93049890D01*
X139165440Y-92798000D01*
X139165440Y-91098000D01*
X139121162Y-90862683D01*
X138982090Y-90646559D01*
X138769890Y-90501569D01*
X138518000Y-90450560D01*
X136818000Y-90450560D01*
X136582683Y-90494838D01*
X136366559Y-90633910D01*
X136221569Y-90846110D01*
X136170560Y-91098000D01*
X97230000Y-91098000D01*
X97230000Y-83588661D01*
X99186758Y-83588661D01*
X99398990Y-84102303D01*
X99791630Y-84495629D01*
X100304900Y-84708757D01*
X100860661Y-84709242D01*
X101374303Y-84497010D01*
X101767629Y-84104370D01*
X101980757Y-83591100D01*
X101980759Y-83588661D01*
X103250758Y-83588661D01*
X103462990Y-84102303D01*
X103855630Y-84495629D01*
X104368900Y-84708757D01*
X104924661Y-84709242D01*
X105438303Y-84497010D01*
X105831629Y-84104370D01*
X106044757Y-83591100D01*
X106045242Y-83035339D01*
X105833010Y-82521697D01*
X105440370Y-82128371D01*
X104927100Y-81915243D01*
X104371339Y-81914758D01*
X103857697Y-82126990D01*
X103464371Y-82519630D01*
X103251243Y-83032900D01*
X103250758Y-83588661D01*
X101980759Y-83588661D01*
X101981242Y-83035339D01*
X101769010Y-82521697D01*
X101376370Y-82128371D01*
X100863100Y-81915243D01*
X100307339Y-81914758D01*
X99793697Y-82126990D01*
X99400371Y-82519630D01*
X99187243Y-83032900D01*
X99186758Y-83588661D01*
X97230000Y-83588661D01*
X97230000Y-78180000D01*
X142546000Y-78180000D01*
X142546000Y-134164000D01*
X142546000Y-134164000D01*
G37*
X142546000Y-134164000D02*
X97230000Y-134164000D01*
X97230000Y-128301750D01*
X121559000Y-128301750D01*
X121559000Y-129392310D01*
X121655673Y-129625699D01*
X121834302Y-129804327D01*
X122067691Y-129901000D01*
X123158250Y-129901000D01*
X123317000Y-129742250D01*
X123317000Y-128143000D01*
X123571000Y-128143000D01*
X123571000Y-129742250D01*
X123729750Y-129901000D01*
X124820309Y-129901000D01*
X125053698Y-129804327D01*
X125232327Y-129625699D01*
X125329000Y-129392310D01*
X125329000Y-128389305D01*
X126558674Y-128389305D01*
X126845043Y-129082372D01*
X127374839Y-129613093D01*
X128067405Y-129900672D01*
X128817305Y-129901326D01*
X129510372Y-129614957D01*
X130041093Y-129085161D01*
X130328672Y-128392595D01*
X130329326Y-127642695D01*
X130042957Y-126949628D01*
X129513161Y-126418907D01*
X128820595Y-126131328D01*
X128070695Y-126130674D01*
X127377628Y-126417043D01*
X126846907Y-126946839D01*
X126559328Y-127639405D01*
X126558674Y-128389305D01*
X125329000Y-128389305D01*
X125329000Y-128301750D01*
X125170250Y-128143000D01*
X123571000Y-128143000D01*
X123317000Y-128143000D01*
X121717750Y-128143000D01*
X121559000Y-128301750D01*
X97230000Y-128301750D01*
X97230000Y-126639690D01*
X121559000Y-126639690D01*
X121559000Y-127730250D01*
X121717750Y-127889000D01*
X123317000Y-127889000D01*
X123317000Y-126289750D01*
X123571000Y-126289750D01*
X123571000Y-127889000D01*
X125170250Y-127889000D01*
X125329000Y-127730250D01*
X125329000Y-126639690D01*
X125232327Y-126406301D01*
X125053698Y-126227673D01*
X124820309Y-126131000D01*
X123729750Y-126131000D01*
X123571000Y-126289750D01*
X123317000Y-126289750D01*
X123158250Y-126131000D01*
X122067691Y-126131000D01*
X121834302Y-126227673D01*
X121655673Y-126406301D01*
X121559000Y-126639690D01*
X97230000Y-126639690D01*
X97230000Y-100145600D01*
X106763171Y-100145600D01*
X106853374Y-100599080D01*
X107110249Y-100983522D01*
X107352817Y-101145600D01*
X107110249Y-101307678D01*
X106853374Y-101692120D01*
X106763171Y-102145600D01*
X106853374Y-102599080D01*
X107110249Y-102983522D01*
X107352817Y-103145600D01*
X107110249Y-103307678D01*
X106853374Y-103692120D01*
X106763171Y-104145600D01*
X106853374Y-104599080D01*
X107110249Y-104983522D01*
X107352817Y-105145600D01*
X107110249Y-105307678D01*
X106853374Y-105692120D01*
X106763171Y-106145600D01*
X106853374Y-106599080D01*
X107110249Y-106983522D01*
X107352817Y-107145600D01*
X107110249Y-107307678D01*
X106853374Y-107692120D01*
X106763171Y-108145600D01*
X106853374Y-108599080D01*
X107110249Y-108983522D01*
X107352817Y-109145600D01*
X107110249Y-109307678D01*
X106853374Y-109692120D01*
X106763171Y-110145600D01*
X106853374Y-110599080D01*
X107110249Y-110983522D01*
X107352817Y-111145600D01*
X107110249Y-111307678D01*
X106853374Y-111692120D01*
X106763171Y-112145600D01*
X106853374Y-112599080D01*
X107110249Y-112983522D01*
X107494691Y-113240397D01*
X107948171Y-113330600D01*
X109422029Y-113330600D01*
X109875509Y-113240397D01*
X110259951Y-112983522D01*
X110516826Y-112599080D01*
X110545416Y-112455344D01*
X122241297Y-112455344D01*
X122241702Y-112481746D01*
X122457376Y-112893718D01*
X122814287Y-113191796D01*
X123258100Y-113330600D01*
X123958100Y-113330600D01*
X123958100Y-112272600D01*
X124212100Y-112272600D01*
X124212100Y-113330600D01*
X124912100Y-113330600D01*
X125355913Y-113191796D01*
X125712824Y-112893718D01*
X125757829Y-112807750D01*
X133897000Y-112807750D01*
X133897000Y-113498309D01*
X133993673Y-113731698D01*
X134172301Y-113910327D01*
X134405690Y-114007000D01*
X135096250Y-114007000D01*
X135255000Y-113848250D01*
X135255000Y-112649000D01*
X134055750Y-112649000D01*
X133897000Y-112807750D01*
X125757829Y-112807750D01*
X125928498Y-112481746D01*
X125928903Y-112455344D01*
X125803461Y-112272600D01*
X124212100Y-112272600D01*
X123958100Y-112272600D01*
X122366739Y-112272600D01*
X122241297Y-112455344D01*
X110545416Y-112455344D01*
X110607029Y-112145600D01*
X110516826Y-111692120D01*
X110259951Y-111307678D01*
X110017383Y-111145600D01*
X110259951Y-110983522D01*
X110516826Y-110599080D01*
X110607029Y-110145600D01*
X122063171Y-110145600D01*
X122153374Y-110599080D01*
X122410249Y-110983522D01*
X122711791Y-111185005D01*
X122457376Y-111397482D01*
X122241702Y-111809454D01*
X122241297Y-111835856D01*
X122366739Y-112018600D01*
X123958100Y-112018600D01*
X123958100Y-111998600D01*
X124212100Y-111998600D01*
X124212100Y-112018600D01*
X125803461Y-112018600D01*
X125928903Y-111835856D01*
X125928498Y-111809454D01*
X125790414Y-111545691D01*
X133897000Y-111545691D01*
X133897000Y-112236250D01*
X134055750Y-112395000D01*
X135255000Y-112395000D01*
X135255000Y-111195750D01*
X135509000Y-111195750D01*
X135509000Y-112395000D01*
X135529000Y-112395000D01*
X135529000Y-112649000D01*
X135509000Y-112649000D01*
X135509000Y-113848250D01*
X135667750Y-114007000D01*
X136358310Y-114007000D01*
X136591699Y-113910327D01*
X136770327Y-113731698D01*
X136842597Y-113557223D01*
X136871946Y-113601147D01*
X137353715Y-113923054D01*
X137922000Y-114036093D01*
X138490285Y-113923054D01*
X138972054Y-113601147D01*
X139293961Y-113119378D01*
X139407000Y-112551093D01*
X139407000Y-112492907D01*
X139293961Y-111924622D01*
X138972054Y-111442853D01*
X138490285Y-111120946D01*
X137922000Y-111007907D01*
X137353715Y-111120946D01*
X136871946Y-111442853D01*
X136842597Y-111486777D01*
X136770327Y-111312302D01*
X136591699Y-111133673D01*
X136358310Y-111037000D01*
X135667750Y-111037000D01*
X135509000Y-111195750D01*
X135255000Y-111195750D01*
X135096250Y-111037000D01*
X134405690Y-111037000D01*
X134172301Y-111133673D01*
X133993673Y-111312302D01*
X133897000Y-111545691D01*
X125790414Y-111545691D01*
X125712824Y-111397482D01*
X125369517Y-111110765D01*
X125559951Y-110983522D01*
X125816826Y-110599080D01*
X125852215Y-110421167D01*
X126064838Y-110421167D01*
X126206883Y-110764943D01*
X126469673Y-111028192D01*
X126813201Y-111170838D01*
X127185167Y-111171162D01*
X127528943Y-111029117D01*
X127792192Y-110766327D01*
X127934838Y-110422799D01*
X127934879Y-110375923D01*
X129061401Y-109249401D01*
X129226148Y-109002840D01*
X129235746Y-108954586D01*
X129284000Y-108712000D01*
X129284000Y-105004890D01*
X136226524Y-105004890D01*
X136396355Y-105414924D01*
X136786642Y-105843183D01*
X137311108Y-106089486D01*
X137541000Y-105968819D01*
X137541000Y-104775000D01*
X137795000Y-104775000D01*
X137795000Y-105968819D01*
X138024892Y-106089486D01*
X138549358Y-105843183D01*
X138939645Y-105414924D01*
X139109476Y-105004890D01*
X138988155Y-104775000D01*
X137795000Y-104775000D01*
X137541000Y-104775000D01*
X136347845Y-104775000D01*
X136226524Y-105004890D01*
X129284000Y-105004890D01*
X129284000Y-104956463D01*
X129316192Y-104924327D01*
X129458838Y-104580799D01*
X129459162Y-104208833D01*
X129317117Y-103865057D01*
X129054327Y-103601808D01*
X128710799Y-103459162D01*
X128338833Y-103458838D01*
X127995057Y-103600883D01*
X127731808Y-103863673D01*
X127589162Y-104207201D01*
X127588838Y-104579167D01*
X127730883Y-104922943D01*
X127764000Y-104956118D01*
X127764000Y-108397198D01*
X126860320Y-109300878D01*
X126814833Y-109300838D01*
X126471057Y-109442883D01*
X126207808Y-109705673D01*
X126065162Y-110049201D01*
X126064838Y-110421167D01*
X125852215Y-110421167D01*
X125907029Y-110145600D01*
X125816826Y-109692120D01*
X125559951Y-109307678D01*
X125367383Y-109179009D01*
X125659951Y-108983522D01*
X125916826Y-108599080D01*
X126007029Y-108145600D01*
X125916826Y-107692120D01*
X125659951Y-107307678D01*
X125417383Y-107145600D01*
X125659951Y-106983522D01*
X125916826Y-106599080D01*
X126007029Y-106145600D01*
X125916826Y-105692120D01*
X125659951Y-105307678D01*
X125417383Y-105145600D01*
X125659951Y-104983522D01*
X125916826Y-104599080D01*
X126007029Y-104145600D01*
X125916826Y-103692120D01*
X125659951Y-103307678D01*
X125417383Y-103145600D01*
X125659951Y-102983522D01*
X125916826Y-102599080D01*
X126007029Y-102145600D01*
X125916826Y-101692120D01*
X125659951Y-101307678D01*
X125417383Y-101145600D01*
X125659951Y-100983522D01*
X125916826Y-100599080D01*
X126007029Y-100145600D01*
X125916826Y-99692120D01*
X125659951Y-99307678D01*
X125417383Y-99145600D01*
X125659951Y-98983522D01*
X125916826Y-98599080D01*
X126007029Y-98145600D01*
X125916826Y-97692120D01*
X125659951Y-97307678D01*
X125275509Y-97050803D01*
X125160871Y-97028000D01*
X136153907Y-97028000D01*
X136266946Y-97596285D01*
X136588853Y-98078054D01*
X136918026Y-98298000D01*
X136588853Y-98517946D01*
X136266946Y-98999715D01*
X136153907Y-99568000D01*
X136266946Y-100136285D01*
X136588853Y-100618054D01*
X136918026Y-100838000D01*
X136588853Y-101057946D01*
X136266946Y-101539715D01*
X136153907Y-102108000D01*
X136266946Y-102676285D01*
X136588853Y-103158054D01*
X136929553Y-103385702D01*
X136786642Y-103452817D01*
X136396355Y-103881076D01*
X136226524Y-104291110D01*
X136347845Y-104521000D01*
X137541000Y-104521000D01*
X137541000Y-104501000D01*
X137795000Y-104501000D01*
X137795000Y-104521000D01*
X138988155Y-104521000D01*
X139109476Y-104291110D01*
X138939645Y-103881076D01*
X138549358Y-103452817D01*
X138406447Y-103385702D01*
X138747147Y-103158054D01*
X139069054Y-102676285D01*
X139182093Y-102108000D01*
X139069054Y-101539715D01*
X138747147Y-101057946D01*
X138417974Y-100838000D01*
X138747147Y-100618054D01*
X139069054Y-100136285D01*
X139182093Y-99568000D01*
X139069054Y-98999715D01*
X138747147Y-98517946D01*
X138417974Y-98298000D01*
X138747147Y-98078054D01*
X139069054Y-97596285D01*
X139182093Y-97028000D01*
X139069054Y-96459715D01*
X138747147Y-95977946D01*
X138406447Y-95750298D01*
X138549358Y-95683183D01*
X138939645Y-95254924D01*
X139109476Y-94844890D01*
X138988155Y-94615000D01*
X137795000Y-94615000D01*
X137795000Y-94635000D01*
X137541000Y-94635000D01*
X137541000Y-94615000D01*
X136347845Y-94615000D01*
X136226524Y-94844890D01*
X136396355Y-95254924D01*
X136786642Y-95683183D01*
X136929553Y-95750298D01*
X136588853Y-95977946D01*
X136266946Y-96459715D01*
X136153907Y-97028000D01*
X125160871Y-97028000D01*
X124822029Y-96960600D01*
X123348171Y-96960600D01*
X122894691Y-97050803D01*
X122510249Y-97307678D01*
X122253374Y-97692120D01*
X122163171Y-98145600D01*
X122253374Y-98599080D01*
X122510249Y-98983522D01*
X122752817Y-99145600D01*
X122510249Y-99307678D01*
X122253374Y-99692120D01*
X122163171Y-100145600D01*
X122253374Y-100599080D01*
X122510249Y-100983522D01*
X122752817Y-101145600D01*
X122510249Y-101307678D01*
X122253374Y-101692120D01*
X122163171Y-102145600D01*
X122253374Y-102599080D01*
X122510249Y-102983522D01*
X122752817Y-103145600D01*
X122510249Y-103307678D01*
X122253374Y-103692120D01*
X122163171Y-104145600D01*
X122253374Y-104599080D01*
X122510249Y-104983522D01*
X122752817Y-105145600D01*
X122510249Y-105307678D01*
X122253374Y-105692120D01*
X122163171Y-106145600D01*
X122253374Y-106599080D01*
X122510249Y-106983522D01*
X122752817Y-107145600D01*
X122510249Y-107307678D01*
X122253374Y-107692120D01*
X122163171Y-108145600D01*
X122253374Y-108599080D01*
X122510249Y-108983522D01*
X122702817Y-109112191D01*
X122410249Y-109307678D01*
X122153374Y-109692120D01*
X122063171Y-110145600D01*
X110607029Y-110145600D01*
X110516826Y-109692120D01*
X110259951Y-109307678D01*
X110017383Y-109145600D01*
X110259951Y-108983522D01*
X110516826Y-108599080D01*
X110607029Y-108145600D01*
X110516826Y-107692120D01*
X110259951Y-107307678D01*
X110017383Y-107145600D01*
X110259951Y-106983522D01*
X110516826Y-106599080D01*
X110607029Y-106145600D01*
X110516826Y-105692120D01*
X110259951Y-105307678D01*
X110017383Y-105145600D01*
X110259951Y-104983522D01*
X110516826Y-104599080D01*
X110607029Y-104145600D01*
X110516826Y-103692120D01*
X110259951Y-103307678D01*
X110017383Y-103145600D01*
X110259951Y-102983522D01*
X110516826Y-102599080D01*
X110607029Y-102145600D01*
X110516826Y-101692120D01*
X110259951Y-101307678D01*
X110017383Y-101145600D01*
X110259951Y-100983522D01*
X110516826Y-100599080D01*
X110607029Y-100145600D01*
X110516826Y-99692120D01*
X110259951Y-99307678D01*
X110209229Y-99273787D01*
X110386541Y-99159690D01*
X110531531Y-98947490D01*
X110582540Y-98695600D01*
X110582540Y-97595600D01*
X110538262Y-97360283D01*
X110399190Y-97144159D01*
X110186990Y-96999169D01*
X109935100Y-96948160D01*
X107435100Y-96948160D01*
X107199783Y-96992438D01*
X106983659Y-97131510D01*
X106838669Y-97343710D01*
X106787660Y-97595600D01*
X106787660Y-98695600D01*
X106831938Y-98930917D01*
X106971010Y-99147041D01*
X107158715Y-99275294D01*
X107110249Y-99307678D01*
X106853374Y-99692120D01*
X106763171Y-100145600D01*
X97230000Y-100145600D01*
X97230000Y-91098000D01*
X136170560Y-91098000D01*
X136170560Y-92798000D01*
X136214838Y-93033317D01*
X136353910Y-93249441D01*
X136566110Y-93394431D01*
X136674107Y-93416301D01*
X136396355Y-93721076D01*
X136226524Y-94131110D01*
X136347845Y-94361000D01*
X137541000Y-94361000D01*
X137541000Y-94341000D01*
X137795000Y-94341000D01*
X137795000Y-94361000D01*
X138988155Y-94361000D01*
X139109476Y-94131110D01*
X138939645Y-93721076D01*
X138663499Y-93418063D01*
X138753317Y-93401162D01*
X138969441Y-93262090D01*
X139114431Y-93049890D01*
X139165440Y-92798000D01*
X139165440Y-91098000D01*
X139121162Y-90862683D01*
X138982090Y-90646559D01*
X138769890Y-90501569D01*
X138518000Y-90450560D01*
X136818000Y-90450560D01*
X136582683Y-90494838D01*
X136366559Y-90633910D01*
X136221569Y-90846110D01*
X136170560Y-91098000D01*
X97230000Y-91098000D01*
X97230000Y-83588661D01*
X99186758Y-83588661D01*
X99398990Y-84102303D01*
X99791630Y-84495629D01*
X100304900Y-84708757D01*
X100860661Y-84709242D01*
X101374303Y-84497010D01*
X101767629Y-84104370D01*
X101980757Y-83591100D01*
X101980759Y-83588661D01*
X103250758Y-83588661D01*
X103462990Y-84102303D01*
X103855630Y-84495629D01*
X104368900Y-84708757D01*
X104924661Y-84709242D01*
X105438303Y-84497010D01*
X105831629Y-84104370D01*
X106044757Y-83591100D01*
X106045242Y-83035339D01*
X105833010Y-82521697D01*
X105440370Y-82128371D01*
X104927100Y-81915243D01*
X104371339Y-81914758D01*
X103857697Y-82126990D01*
X103464371Y-82519630D01*
X103251243Y-83032900D01*
X103250758Y-83588661D01*
X101980759Y-83588661D01*
X101981242Y-83035339D01*
X101769010Y-82521697D01*
X101376370Y-82128371D01*
X100863100Y-81915243D01*
X100307339Y-81914758D01*
X99793697Y-82126990D01*
X99400371Y-82519630D01*
X99187243Y-83032900D01*
X99186758Y-83588661D01*
X97230000Y-83588661D01*
X97230000Y-78180000D01*
X142546000Y-78180000D01*
X142546000Y-134164000D01*
M02*
