G04 #@! TF.FileFunction,Copper,L1,Top,Signal*
%FSLAX46Y46*%
G04 Gerber Fmt 4.6, Leading zero omitted, Abs format (unit mm)*
G04 Created by KiCad (PCBNEW 4.0.5) date 2017 August 22, Tuesday 06:05:51*
%MOMM*%
%LPD*%
G01*
G04 APERTURE LIST*
%ADD10C,0.100000*%
%ADD11R,2.500000X1.100000*%
%ADD12O,2.500000X1.100000*%
%ADD13C,1.524000*%
%ADD14R,2.000000X1.600000*%
%ADD15R,2.500000X2.500000*%
%ADD16C,2.500000*%
%ADD17R,1.700000X1.700000*%
%ADD18O,1.700000X1.700000*%
%ADD19R,2.000000X1.700000*%
%ADD20R,1.700000X2.000000*%
%ADD21R,1.560000X0.650000*%
%ADD22C,0.685800*%
%ADD23C,0.250000*%
%ADD24C,0.254000*%
G04 APERTURE END LIST*
D10*
D11*
X166940000Y-85725000D03*
D12*
X166940000Y-87725000D03*
X166940000Y-89725000D03*
X166940000Y-91725000D03*
X166940000Y-93725000D03*
X166940000Y-95725000D03*
X166940000Y-97725000D03*
X166940000Y-99725000D03*
X182340000Y-99725000D03*
X182240000Y-97725000D03*
X182340000Y-95725000D03*
X182340000Y-93725000D03*
X182340000Y-91725000D03*
X182340000Y-89725000D03*
X182340000Y-87725000D03*
X182340000Y-85725000D03*
D13*
X158115000Y-90043000D03*
X158115000Y-94107000D03*
D14*
X170085000Y-114300000D03*
X174085000Y-114300000D03*
X161195000Y-105410000D03*
X165195000Y-105410000D03*
D15*
X158115000Y-122555000D03*
D16*
X163115000Y-122555000D03*
D17*
X169545000Y-125730000D03*
D18*
X172085000Y-125730000D03*
D17*
X193675000Y-123825000D03*
D18*
X193675000Y-121285000D03*
X193675000Y-118745000D03*
X193675000Y-116205000D03*
X193675000Y-113665000D03*
X193675000Y-111125000D03*
D19*
X173450000Y-118745000D03*
X169450000Y-118745000D03*
X157385000Y-114935000D03*
X161385000Y-114935000D03*
D20*
X154940000Y-102140000D03*
X154940000Y-106140000D03*
D19*
X169005000Y-110490000D03*
X165005000Y-110490000D03*
X187865000Y-95250000D03*
X191865000Y-95250000D03*
X191230000Y-105410000D03*
X187230000Y-105410000D03*
X191865000Y-86360000D03*
X187865000Y-86360000D03*
D21*
X156765000Y-109540000D03*
X156765000Y-110490000D03*
X156765000Y-111440000D03*
X159465000Y-111440000D03*
X159465000Y-109540000D03*
X187405000Y-118425000D03*
X187405000Y-117475000D03*
X187405000Y-116525000D03*
X184705000Y-116525000D03*
X184705000Y-118425000D03*
D14*
X183420000Y-113665000D03*
X187420000Y-113665000D03*
X183610000Y-125730000D03*
X179610000Y-125730000D03*
X175990000Y-104140000D03*
X171990000Y-104140000D03*
X182150000Y-109855000D03*
X186150000Y-109855000D03*
X183610000Y-121920000D03*
X179610000Y-121920000D03*
D17*
X188595000Y-91440000D03*
D18*
X191135000Y-91440000D03*
D20*
X178435000Y-117570000D03*
X178435000Y-113570000D03*
D19*
X162020000Y-85725000D03*
X158020000Y-85725000D03*
D22*
X176530000Y-102235000D03*
X161925000Y-107950000D03*
X155575000Y-113030000D03*
X184150000Y-107315000D03*
X189865000Y-116840000D03*
X186055000Y-120650000D03*
X158750000Y-110490000D03*
X194310000Y-93345000D03*
X186055000Y-124460000D03*
X173355000Y-112395000D03*
X173355000Y-121285000D03*
X186690000Y-113030000D03*
X191135000Y-115570000D03*
X179705000Y-87630000D03*
X195580000Y-112395000D03*
X185420000Y-85725000D03*
X191135000Y-121285000D03*
X177165000Y-90170000D03*
X191135000Y-111125000D03*
X179070000Y-92075000D03*
D23*
X140462000Y-97536000D02*
X140335000Y-97536000D01*
D24*
X157385000Y-114935000D02*
X157385000Y-114395000D01*
X157385000Y-114395000D02*
X158750000Y-113030000D01*
X168815000Y-113030000D02*
X170085000Y-114300000D01*
X158750000Y-113030000D02*
X168815000Y-113030000D01*
X156765000Y-110490000D02*
X154940000Y-110490000D01*
X154940000Y-114935000D02*
X157385000Y-114935000D01*
X154305000Y-114300000D02*
X154940000Y-114935000D01*
X154305000Y-111125000D02*
X154305000Y-114300000D01*
X154940000Y-110490000D02*
X154305000Y-111125000D01*
X157385000Y-114300000D02*
X157480000Y-114300000D01*
X175990000Y-104140000D02*
X175990000Y-102775000D01*
X175990000Y-102775000D02*
X176530000Y-102235000D01*
X161195000Y-105410000D02*
X161195000Y-107220000D01*
X161195000Y-107220000D02*
X161925000Y-107950000D01*
X156765000Y-111440000D02*
X156765000Y-111840000D01*
X156765000Y-111840000D02*
X155575000Y-113030000D01*
X186150000Y-109855000D02*
X186150000Y-109315000D01*
X186150000Y-109315000D02*
X184150000Y-107315000D01*
X187405000Y-117475000D02*
X189230000Y-117475000D01*
X189230000Y-117475000D02*
X189865000Y-116840000D01*
X183610000Y-121920000D02*
X184785000Y-121920000D01*
X184785000Y-121920000D02*
X186055000Y-120650000D01*
X156765000Y-111440000D02*
X157800000Y-111440000D01*
X157800000Y-111440000D02*
X158750000Y-110490000D01*
X191865000Y-95250000D02*
X192405000Y-95250000D01*
X192405000Y-95250000D02*
X194310000Y-93345000D01*
X183610000Y-125730000D02*
X184785000Y-125730000D01*
X184785000Y-125730000D02*
X186055000Y-124460000D01*
X191865000Y-95885000D02*
X191865000Y-95790000D01*
X191135000Y-91440000D02*
X191135000Y-95155000D01*
X191135000Y-95155000D02*
X191865000Y-95885000D01*
X174085000Y-114300000D02*
X174085000Y-113125000D01*
X174085000Y-113125000D02*
X173355000Y-112395000D01*
X173450000Y-118745000D02*
X173450000Y-121190000D01*
X173450000Y-121190000D02*
X173355000Y-121285000D01*
X161385000Y-114935000D02*
X161385000Y-120825000D01*
X161385000Y-120825000D02*
X163115000Y-122555000D01*
X169450000Y-118745000D02*
X169450000Y-120110000D01*
X167005000Y-122555000D02*
X163115000Y-122555000D01*
X169450000Y-120110000D02*
X167005000Y-122555000D01*
X187405000Y-118425000D02*
X186375000Y-118425000D01*
X179610000Y-120745000D02*
X179610000Y-121920000D01*
X180340000Y-120015000D02*
X179610000Y-120745000D01*
X184785000Y-120015000D02*
X180340000Y-120015000D01*
X186375000Y-118425000D02*
X184785000Y-120015000D01*
X193675000Y-118745000D02*
X187725000Y-118745000D01*
X187725000Y-118745000D02*
X187405000Y-118425000D01*
X187405000Y-116525000D02*
X186370000Y-116525000D01*
X186370000Y-118425000D02*
X187405000Y-118425000D01*
X186055000Y-118110000D02*
X186370000Y-118425000D01*
X186055000Y-116840000D02*
X186055000Y-118110000D01*
X186370000Y-116525000D02*
X186055000Y-116840000D01*
X193355000Y-118425000D02*
X193675000Y-118745000D01*
X172085000Y-125730000D02*
X179610000Y-125730000D01*
X179610000Y-121920000D02*
X179610000Y-125730000D01*
X193595000Y-118825000D02*
X193675000Y-118745000D01*
X181640000Y-87725000D02*
X179800000Y-87725000D01*
X191770000Y-116205000D02*
X193675000Y-116205000D01*
X191135000Y-115570000D02*
X191770000Y-116205000D01*
X179800000Y-87725000D02*
X179705000Y-87630000D01*
X181640000Y-85725000D02*
X185420000Y-85725000D01*
X195580000Y-112395000D02*
X194310000Y-113665000D01*
X194310000Y-113665000D02*
X193675000Y-113665000D01*
X167640000Y-99725000D02*
X167640000Y-102965000D01*
X167640000Y-102965000D02*
X165195000Y-105410000D01*
X167640000Y-89725000D02*
X164910000Y-89725000D01*
X154940000Y-97790000D02*
X154940000Y-102140000D01*
X156210000Y-96520000D02*
X154940000Y-97790000D01*
X161925000Y-96520000D02*
X156210000Y-96520000D01*
X163830000Y-94615000D02*
X161925000Y-96520000D01*
X163830000Y-90805000D02*
X163830000Y-94615000D01*
X164910000Y-89725000D02*
X163830000Y-90805000D01*
X167640000Y-89725000D02*
X166085000Y-89725000D01*
X167640000Y-89725000D02*
X166275000Y-89725000D01*
X162020000Y-85725000D02*
X167640000Y-85725000D01*
X167640000Y-85725000D02*
X169545000Y-85725000D01*
X169005000Y-109315000D02*
X169005000Y-110490000D01*
X168275000Y-108585000D02*
X169005000Y-109315000D01*
X168275000Y-104140000D02*
X168275000Y-108585000D01*
X170180000Y-102235000D02*
X168275000Y-104140000D01*
X170180000Y-86360000D02*
X170180000Y-102235000D01*
X169545000Y-85725000D02*
X170180000Y-86360000D01*
X181640000Y-89725000D02*
X177610000Y-89725000D01*
X191135000Y-121285000D02*
X193675000Y-121285000D01*
X177610000Y-89725000D02*
X177165000Y-90170000D01*
X181640000Y-91725000D02*
X179420000Y-91725000D01*
X191135000Y-111125000D02*
X193675000Y-111125000D01*
X179420000Y-91725000D02*
X179070000Y-92075000D01*
X187865000Y-86360000D02*
X187865000Y-90710000D01*
X187865000Y-90710000D02*
X188595000Y-91440000D01*
X188595000Y-91440000D02*
X187325000Y-91440000D01*
X185040000Y-93725000D02*
X181640000Y-93725000D01*
X187325000Y-91440000D02*
X185040000Y-93725000D01*
X159465000Y-111440000D02*
X164055000Y-111440000D01*
X164055000Y-111440000D02*
X165005000Y-110490000D01*
X181640000Y-97725000D02*
X185355000Y-97725000D01*
X185355000Y-97725000D02*
X187830000Y-95250000D01*
X187830000Y-95250000D02*
X187865000Y-95250000D01*
X181640000Y-95725000D02*
X179865000Y-95725000D01*
X182880000Y-105410000D02*
X187230000Y-105410000D01*
X179070000Y-101600000D02*
X182880000Y-105410000D01*
X179070000Y-96520000D02*
X179070000Y-101600000D01*
X179865000Y-95725000D02*
X179070000Y-96520000D01*
X178435000Y-117570000D02*
X181705000Y-117570000D01*
X182560000Y-118425000D02*
X184705000Y-118425000D01*
X181705000Y-117570000D02*
X182560000Y-118425000D01*
X158020000Y-85725000D02*
X158020000Y-89948000D01*
X158020000Y-89948000D02*
X158115000Y-90043000D01*
G36*
X156423569Y-84623110D02*
X156372560Y-84875000D01*
X156372560Y-86575000D01*
X156416838Y-86810317D01*
X156555910Y-87026441D01*
X156768110Y-87171431D01*
X157020000Y-87222440D01*
X157258000Y-87222440D01*
X157258000Y-88924571D01*
X156931371Y-89250630D01*
X156718243Y-89763900D01*
X156717758Y-90319661D01*
X156929990Y-90833303D01*
X157322630Y-91226629D01*
X157835900Y-91439757D01*
X158391661Y-91440242D01*
X158905303Y-91228010D01*
X159298629Y-90835370D01*
X159511757Y-90322100D01*
X159512242Y-89766339D01*
X159300010Y-89252697D01*
X158907370Y-88859371D01*
X158782000Y-88807313D01*
X158782000Y-87222440D01*
X159020000Y-87222440D01*
X159255317Y-87178162D01*
X159471441Y-87039090D01*
X159616431Y-86826890D01*
X159667440Y-86575000D01*
X159667440Y-84875000D01*
X159623162Y-84639683D01*
X159552583Y-84530000D01*
X160487188Y-84530000D01*
X160423569Y-84623110D01*
X160372560Y-84875000D01*
X160372560Y-86575000D01*
X160416838Y-86810317D01*
X160555910Y-87026441D01*
X160768110Y-87171431D01*
X161020000Y-87222440D01*
X163020000Y-87222440D01*
X163255317Y-87178162D01*
X163471441Y-87039090D01*
X163616431Y-86826890D01*
X163667440Y-86575000D01*
X163667440Y-86487000D01*
X165082451Y-86487000D01*
X165086838Y-86510317D01*
X165225910Y-86726441D01*
X165413615Y-86854694D01*
X165365149Y-86887078D01*
X165108274Y-87271520D01*
X165018071Y-87725000D01*
X165108274Y-88178480D01*
X165365149Y-88562922D01*
X165607717Y-88725000D01*
X165365149Y-88887078D01*
X165314420Y-88963000D01*
X164910000Y-88963000D01*
X164618395Y-89021004D01*
X164519377Y-89087166D01*
X164371185Y-89186184D01*
X163291185Y-90266185D01*
X163126004Y-90513395D01*
X163068000Y-90805000D01*
X163068000Y-94299370D01*
X161609370Y-95758000D01*
X156210000Y-95758000D01*
X155918395Y-95816004D01*
X155671184Y-95981185D01*
X154401185Y-97251185D01*
X154236004Y-97498395D01*
X154178000Y-97790000D01*
X154178000Y-100492560D01*
X154090000Y-100492560D01*
X153854683Y-100536838D01*
X153638559Y-100675910D01*
X153493569Y-100888110D01*
X153442560Y-101140000D01*
X153442560Y-103140000D01*
X153486838Y-103375317D01*
X153625910Y-103591441D01*
X153838110Y-103736431D01*
X154090000Y-103787440D01*
X155790000Y-103787440D01*
X156025317Y-103743162D01*
X156241441Y-103604090D01*
X156386431Y-103391890D01*
X156437440Y-103140000D01*
X156437440Y-101140000D01*
X156393162Y-100904683D01*
X156308182Y-100772619D01*
X157149613Y-100772619D01*
X157489155Y-101594372D01*
X158117321Y-102223636D01*
X158938481Y-102564611D01*
X159827619Y-102565387D01*
X160649372Y-102225845D01*
X161278636Y-101597679D01*
X161619611Y-100776519D01*
X161620258Y-100034744D01*
X165096197Y-100034744D01*
X165096602Y-100061146D01*
X165312276Y-100473118D01*
X165669187Y-100771196D01*
X166113000Y-100910000D01*
X166813000Y-100910000D01*
X166813000Y-99852000D01*
X167067000Y-99852000D01*
X167067000Y-100910000D01*
X167767000Y-100910000D01*
X168210813Y-100771196D01*
X168567724Y-100473118D01*
X168783398Y-100061146D01*
X168783803Y-100034744D01*
X168658361Y-99852000D01*
X167067000Y-99852000D01*
X166813000Y-99852000D01*
X165221639Y-99852000D01*
X165096197Y-100034744D01*
X161620258Y-100034744D01*
X161620387Y-99887381D01*
X161280845Y-99065628D01*
X160652679Y-98436364D01*
X159831519Y-98095389D01*
X158942381Y-98094613D01*
X158120628Y-98434155D01*
X157491364Y-99062321D01*
X157150389Y-99883481D01*
X157149613Y-100772619D01*
X156308182Y-100772619D01*
X156254090Y-100688559D01*
X156041890Y-100543569D01*
X155790000Y-100492560D01*
X155702000Y-100492560D01*
X155702000Y-98105630D01*
X156525631Y-97282000D01*
X161925000Y-97282000D01*
X162216605Y-97223996D01*
X162463815Y-97058815D01*
X164368815Y-95153815D01*
X164452882Y-95028000D01*
X164533996Y-94906605D01*
X164592000Y-94615000D01*
X164592000Y-91120630D01*
X165225631Y-90487000D01*
X165314420Y-90487000D01*
X165365149Y-90562922D01*
X165607717Y-90725000D01*
X165365149Y-90887078D01*
X165108274Y-91271520D01*
X165018071Y-91725000D01*
X165108274Y-92178480D01*
X165365149Y-92562922D01*
X165607717Y-92725000D01*
X165365149Y-92887078D01*
X165108274Y-93271520D01*
X165018071Y-93725000D01*
X165108274Y-94178480D01*
X165365149Y-94562922D01*
X165607717Y-94725000D01*
X165365149Y-94887078D01*
X165108274Y-95271520D01*
X165018071Y-95725000D01*
X165108274Y-96178480D01*
X165365149Y-96562922D01*
X165607717Y-96725000D01*
X165365149Y-96887078D01*
X165108274Y-97271520D01*
X165018071Y-97725000D01*
X165108274Y-98178480D01*
X165365149Y-98562922D01*
X165611137Y-98727285D01*
X165312276Y-98976882D01*
X165096602Y-99388854D01*
X165096197Y-99415256D01*
X165221639Y-99598000D01*
X166813000Y-99598000D01*
X166813000Y-99578000D01*
X167067000Y-99578000D01*
X167067000Y-99598000D01*
X168658361Y-99598000D01*
X168783803Y-99415256D01*
X168783398Y-99388854D01*
X168567724Y-98976882D01*
X168268863Y-98727285D01*
X168514851Y-98562922D01*
X168771726Y-98178480D01*
X168861929Y-97725000D01*
X168771726Y-97271520D01*
X168514851Y-96887078D01*
X168272283Y-96725000D01*
X168514851Y-96562922D01*
X168771726Y-96178480D01*
X168861929Y-95725000D01*
X168771726Y-95271520D01*
X168514851Y-94887078D01*
X168272283Y-94725000D01*
X168514851Y-94562922D01*
X168771726Y-94178480D01*
X168861929Y-93725000D01*
X168771726Y-93271520D01*
X168514851Y-92887078D01*
X168272283Y-92725000D01*
X168514851Y-92562922D01*
X168771726Y-92178480D01*
X168861929Y-91725000D01*
X168771726Y-91271520D01*
X168514851Y-90887078D01*
X168272283Y-90725000D01*
X168514851Y-90562922D01*
X168771726Y-90178480D01*
X168861929Y-89725000D01*
X168771726Y-89271520D01*
X168514851Y-88887078D01*
X168272283Y-88725000D01*
X168514851Y-88562922D01*
X168771726Y-88178480D01*
X168861929Y-87725000D01*
X168771726Y-87271520D01*
X168514851Y-86887078D01*
X168464129Y-86853187D01*
X168641441Y-86739090D01*
X168786431Y-86526890D01*
X168794509Y-86487000D01*
X169229370Y-86487000D01*
X169418000Y-86675631D01*
X169418000Y-101919370D01*
X167736185Y-103601185D01*
X167571004Y-103848395D01*
X167513000Y-104140000D01*
X167513000Y-108585000D01*
X167571004Y-108876605D01*
X167669087Y-109023396D01*
X167705615Y-109078064D01*
X167553559Y-109175910D01*
X167408569Y-109388110D01*
X167357560Y-109640000D01*
X167357560Y-111340000D01*
X167401838Y-111575317D01*
X167540910Y-111791441D01*
X167753110Y-111936431D01*
X168005000Y-111987440D01*
X170005000Y-111987440D01*
X170240317Y-111943162D01*
X170456441Y-111804090D01*
X170601431Y-111591890D01*
X170652440Y-111340000D01*
X170652440Y-110140750D01*
X180515000Y-110140750D01*
X180515000Y-110781310D01*
X180611673Y-111014699D01*
X180790302Y-111193327D01*
X181023691Y-111290000D01*
X181864250Y-111290000D01*
X182023000Y-111131250D01*
X182023000Y-109982000D01*
X182277000Y-109982000D01*
X182277000Y-111131250D01*
X182435750Y-111290000D01*
X183276309Y-111290000D01*
X183509698Y-111193327D01*
X183688327Y-111014699D01*
X183785000Y-110781310D01*
X183785000Y-110140750D01*
X183626250Y-109982000D01*
X182277000Y-109982000D01*
X182023000Y-109982000D01*
X180673750Y-109982000D01*
X180515000Y-110140750D01*
X170652440Y-110140750D01*
X170652440Y-109640000D01*
X170608162Y-109404683D01*
X170469090Y-109188559D01*
X170256890Y-109043569D01*
X170005000Y-108992560D01*
X169688393Y-108992560D01*
X169645717Y-108928690D01*
X180515000Y-108928690D01*
X180515000Y-109569250D01*
X180673750Y-109728000D01*
X182023000Y-109728000D01*
X182023000Y-108578750D01*
X182277000Y-108578750D01*
X182277000Y-109728000D01*
X183626250Y-109728000D01*
X183785000Y-109569250D01*
X183785000Y-108928690D01*
X183688327Y-108695301D01*
X183509698Y-108516673D01*
X183276309Y-108420000D01*
X182435750Y-108420000D01*
X182277000Y-108578750D01*
X182023000Y-108578750D01*
X181864250Y-108420000D01*
X181023691Y-108420000D01*
X180790302Y-108516673D01*
X180611673Y-108695301D01*
X180515000Y-108928690D01*
X169645717Y-108928690D01*
X169543815Y-108776185D01*
X169037000Y-108269370D01*
X169037000Y-107508663D01*
X183171931Y-107508663D01*
X183320493Y-107868212D01*
X183595341Y-108143540D01*
X183954630Y-108292730D01*
X184050183Y-108292813D01*
X184556374Y-108799004D01*
X184553569Y-108803110D01*
X184502560Y-109055000D01*
X184502560Y-110655000D01*
X184546838Y-110890317D01*
X184685910Y-111106441D01*
X184898110Y-111251431D01*
X185150000Y-111302440D01*
X187150000Y-111302440D01*
X187385317Y-111258162D01*
X187601441Y-111119090D01*
X187746431Y-110906890D01*
X187797440Y-110655000D01*
X187797440Y-109055000D01*
X187753162Y-108819683D01*
X187614090Y-108603559D01*
X187401890Y-108458569D01*
X187150000Y-108407560D01*
X186320190Y-108407560D01*
X185127987Y-107215357D01*
X185128069Y-107121337D01*
X184979507Y-106761788D01*
X184704659Y-106486460D01*
X184345370Y-106337270D01*
X183956337Y-106336931D01*
X183596788Y-106485493D01*
X183321460Y-106760341D01*
X183172270Y-107119630D01*
X183171931Y-107508663D01*
X169037000Y-107508663D01*
X169037000Y-104455630D01*
X169066880Y-104425750D01*
X170355000Y-104425750D01*
X170355000Y-105066310D01*
X170451673Y-105299699D01*
X170630302Y-105478327D01*
X170863691Y-105575000D01*
X171704250Y-105575000D01*
X171863000Y-105416250D01*
X171863000Y-104267000D01*
X172117000Y-104267000D01*
X172117000Y-105416250D01*
X172275750Y-105575000D01*
X173116309Y-105575000D01*
X173349698Y-105478327D01*
X173528327Y-105299699D01*
X173625000Y-105066310D01*
X173625000Y-104425750D01*
X173466250Y-104267000D01*
X172117000Y-104267000D01*
X171863000Y-104267000D01*
X170513750Y-104267000D01*
X170355000Y-104425750D01*
X169066880Y-104425750D01*
X170408783Y-103083847D01*
X170355000Y-103213690D01*
X170355000Y-103854250D01*
X170513750Y-104013000D01*
X171863000Y-104013000D01*
X171863000Y-102863750D01*
X172117000Y-102863750D01*
X172117000Y-104013000D01*
X173466250Y-104013000D01*
X173625000Y-103854250D01*
X173625000Y-103340000D01*
X174342560Y-103340000D01*
X174342560Y-104940000D01*
X174386838Y-105175317D01*
X174525910Y-105391441D01*
X174738110Y-105536431D01*
X174990000Y-105587440D01*
X176990000Y-105587440D01*
X177225317Y-105543162D01*
X177441441Y-105404090D01*
X177586431Y-105191890D01*
X177637440Y-104940000D01*
X177637440Y-103340000D01*
X177593162Y-103104683D01*
X177454090Y-102888559D01*
X177338550Y-102809614D01*
X177358540Y-102789659D01*
X177507730Y-102430370D01*
X177508069Y-102041337D01*
X177359507Y-101681788D01*
X177084659Y-101406460D01*
X176725370Y-101257270D01*
X176336337Y-101256931D01*
X175976788Y-101405493D01*
X175701460Y-101680341D01*
X175552270Y-102039630D01*
X175552187Y-102135183D01*
X175451185Y-102236185D01*
X175286004Y-102483395D01*
X175244398Y-102692560D01*
X174990000Y-102692560D01*
X174754683Y-102736838D01*
X174538559Y-102875910D01*
X174393569Y-103088110D01*
X174342560Y-103340000D01*
X173625000Y-103340000D01*
X173625000Y-103213690D01*
X173528327Y-102980301D01*
X173349698Y-102801673D01*
X173116309Y-102705000D01*
X172275750Y-102705000D01*
X172117000Y-102863750D01*
X171863000Y-102863750D01*
X171704250Y-102705000D01*
X170863691Y-102705000D01*
X170726950Y-102761640D01*
X170782292Y-102678815D01*
X170883996Y-102526605D01*
X170942000Y-102235000D01*
X170942000Y-90363663D01*
X176186931Y-90363663D01*
X176335493Y-90723212D01*
X176610341Y-90998540D01*
X176969630Y-91147730D01*
X177358663Y-91148069D01*
X177718212Y-90999507D01*
X177993540Y-90724659D01*
X178092225Y-90487000D01*
X180714420Y-90487000D01*
X180765149Y-90562922D01*
X181007717Y-90725000D01*
X180765149Y-90887078D01*
X180714420Y-90963000D01*
X179420000Y-90963000D01*
X179128395Y-91021004D01*
X179029377Y-91087166D01*
X179014582Y-91097051D01*
X178876337Y-91096931D01*
X178516788Y-91245493D01*
X178241460Y-91520341D01*
X178092270Y-91879630D01*
X178091931Y-92268663D01*
X178240493Y-92628212D01*
X178515341Y-92903540D01*
X178874630Y-93052730D01*
X179263663Y-93053069D01*
X179623212Y-92904507D01*
X179898540Y-92629659D01*
X179957777Y-92487000D01*
X180714420Y-92487000D01*
X180765149Y-92562922D01*
X181007717Y-92725000D01*
X180765149Y-92887078D01*
X180508274Y-93271520D01*
X180418071Y-93725000D01*
X180508274Y-94178480D01*
X180765149Y-94562922D01*
X181007717Y-94725000D01*
X180765149Y-94887078D01*
X180714420Y-94963000D01*
X179865000Y-94963000D01*
X179573395Y-95021004D01*
X179476116Y-95086004D01*
X179326185Y-95186184D01*
X178531185Y-95981185D01*
X178366004Y-96228395D01*
X178308000Y-96520000D01*
X178308000Y-101600000D01*
X178366004Y-101891605D01*
X178466052Y-102041337D01*
X178531185Y-102138815D01*
X182341185Y-105948816D01*
X182437244Y-106013000D01*
X182588395Y-106113996D01*
X182880000Y-106172000D01*
X185582560Y-106172000D01*
X185582560Y-106260000D01*
X185626838Y-106495317D01*
X185765910Y-106711441D01*
X185978110Y-106856431D01*
X186230000Y-106907440D01*
X188230000Y-106907440D01*
X188465317Y-106863162D01*
X188681441Y-106724090D01*
X188826431Y-106511890D01*
X188877440Y-106260000D01*
X188877440Y-105695750D01*
X189595000Y-105695750D01*
X189595000Y-106386310D01*
X189691673Y-106619699D01*
X189870302Y-106798327D01*
X190103691Y-106895000D01*
X190944250Y-106895000D01*
X191103000Y-106736250D01*
X191103000Y-105537000D01*
X191357000Y-105537000D01*
X191357000Y-106736250D01*
X191515750Y-106895000D01*
X192356309Y-106895000D01*
X192589698Y-106798327D01*
X192768327Y-106619699D01*
X192865000Y-106386310D01*
X192865000Y-105695750D01*
X192706250Y-105537000D01*
X191357000Y-105537000D01*
X191103000Y-105537000D01*
X189753750Y-105537000D01*
X189595000Y-105695750D01*
X188877440Y-105695750D01*
X188877440Y-104560000D01*
X188853674Y-104433690D01*
X189595000Y-104433690D01*
X189595000Y-105124250D01*
X189753750Y-105283000D01*
X191103000Y-105283000D01*
X191103000Y-104083750D01*
X191357000Y-104083750D01*
X191357000Y-105283000D01*
X192706250Y-105283000D01*
X192865000Y-105124250D01*
X192865000Y-104433690D01*
X192768327Y-104200301D01*
X192589698Y-104021673D01*
X192356309Y-103925000D01*
X191515750Y-103925000D01*
X191357000Y-104083750D01*
X191103000Y-104083750D01*
X190944250Y-103925000D01*
X190103691Y-103925000D01*
X189870302Y-104021673D01*
X189691673Y-104200301D01*
X189595000Y-104433690D01*
X188853674Y-104433690D01*
X188833162Y-104324683D01*
X188694090Y-104108559D01*
X188481890Y-103963569D01*
X188230000Y-103912560D01*
X186230000Y-103912560D01*
X185994683Y-103956838D01*
X185778559Y-104095910D01*
X185633569Y-104308110D01*
X185582560Y-104560000D01*
X185582560Y-104648000D01*
X183195631Y-104648000D01*
X179832000Y-101284370D01*
X179832000Y-96835630D01*
X180180631Y-96487000D01*
X180714420Y-96487000D01*
X180765149Y-96562922D01*
X180957717Y-96691591D01*
X180665149Y-96887078D01*
X180408274Y-97271520D01*
X180318071Y-97725000D01*
X180408274Y-98178480D01*
X180665149Y-98562922D01*
X180957717Y-98758409D01*
X180765149Y-98887078D01*
X180508274Y-99271520D01*
X180418071Y-99725000D01*
X180508274Y-100178480D01*
X180765149Y-100562922D01*
X181149591Y-100819797D01*
X181603071Y-100910000D01*
X183076929Y-100910000D01*
X183530409Y-100819797D01*
X183601016Y-100772619D01*
X186994613Y-100772619D01*
X187334155Y-101594372D01*
X187962321Y-102223636D01*
X188783481Y-102564611D01*
X189672619Y-102565387D01*
X190494372Y-102225845D01*
X191123636Y-101597679D01*
X191464611Y-100776519D01*
X191465387Y-99887381D01*
X191125845Y-99065628D01*
X190497679Y-98436364D01*
X189676519Y-98095389D01*
X188787381Y-98094613D01*
X187965628Y-98434155D01*
X187336364Y-99062321D01*
X186995389Y-99883481D01*
X186994613Y-100772619D01*
X183601016Y-100772619D01*
X183914851Y-100562922D01*
X184171726Y-100178480D01*
X184261929Y-99725000D01*
X184171726Y-99271520D01*
X183914851Y-98887078D01*
X183622283Y-98691591D01*
X183814851Y-98562922D01*
X183865580Y-98487000D01*
X185355000Y-98487000D01*
X185646605Y-98428996D01*
X185893815Y-98263815D01*
X187410191Y-96747440D01*
X188865000Y-96747440D01*
X189100317Y-96703162D01*
X189316441Y-96564090D01*
X189461431Y-96351890D01*
X189512440Y-96100000D01*
X189512440Y-94400000D01*
X189468162Y-94164683D01*
X189329090Y-93948559D01*
X189116890Y-93803569D01*
X188865000Y-93752560D01*
X186865000Y-93752560D01*
X186629683Y-93796838D01*
X186413559Y-93935910D01*
X186268569Y-94148110D01*
X186217560Y-94400000D01*
X186217560Y-95784809D01*
X185039370Y-96963000D01*
X183865580Y-96963000D01*
X183814851Y-96887078D01*
X183622283Y-96758409D01*
X183914851Y-96562922D01*
X184171726Y-96178480D01*
X184261929Y-95725000D01*
X184171726Y-95271520D01*
X183914851Y-94887078D01*
X183672283Y-94725000D01*
X183914851Y-94562922D01*
X183965580Y-94487000D01*
X185040000Y-94487000D01*
X185331605Y-94428996D01*
X185578815Y-94263815D01*
X187210543Y-92632087D01*
X187280910Y-92741441D01*
X187493110Y-92886431D01*
X187745000Y-92937440D01*
X189445000Y-92937440D01*
X189680317Y-92893162D01*
X189896441Y-92754090D01*
X190041431Y-92541890D01*
X190055086Y-92474459D01*
X190084946Y-92519147D01*
X190373000Y-92711618D01*
X190373000Y-93995270D01*
X190268569Y-94148110D01*
X190217560Y-94400000D01*
X190217560Y-96100000D01*
X190261838Y-96335317D01*
X190400910Y-96551441D01*
X190613110Y-96696431D01*
X190865000Y-96747440D01*
X192865000Y-96747440D01*
X193100317Y-96703162D01*
X193316441Y-96564090D01*
X193461431Y-96351890D01*
X193512440Y-96100000D01*
X193512440Y-95220190D01*
X194409643Y-94322987D01*
X194503663Y-94323069D01*
X194863212Y-94174507D01*
X195138540Y-93899659D01*
X195287730Y-93540370D01*
X195288069Y-93151337D01*
X195139507Y-92791788D01*
X194864659Y-92516460D01*
X194505370Y-92367270D01*
X194116337Y-92366931D01*
X193756788Y-92515493D01*
X193481460Y-92790341D01*
X193332270Y-93149630D01*
X193332187Y-93245183D01*
X192824810Y-93752560D01*
X191897000Y-93752560D01*
X191897000Y-92711618D01*
X192185054Y-92519147D01*
X192506961Y-92037378D01*
X192620000Y-91469093D01*
X192620000Y-91410907D01*
X192506961Y-90842622D01*
X192185054Y-90360853D01*
X191703285Y-90038946D01*
X191135000Y-89925907D01*
X190566715Y-90038946D01*
X190084946Y-90360853D01*
X190057150Y-90402452D01*
X190048162Y-90354683D01*
X189909090Y-90138559D01*
X189696890Y-89993569D01*
X189445000Y-89942560D01*
X188627000Y-89942560D01*
X188627000Y-87857440D01*
X188865000Y-87857440D01*
X189100317Y-87813162D01*
X189316441Y-87674090D01*
X189461431Y-87461890D01*
X189512440Y-87210000D01*
X189512440Y-86645750D01*
X190230000Y-86645750D01*
X190230000Y-87336310D01*
X190326673Y-87569699D01*
X190505302Y-87748327D01*
X190738691Y-87845000D01*
X191579250Y-87845000D01*
X191738000Y-87686250D01*
X191738000Y-86487000D01*
X191992000Y-86487000D01*
X191992000Y-87686250D01*
X192150750Y-87845000D01*
X192991309Y-87845000D01*
X193224698Y-87748327D01*
X193403327Y-87569699D01*
X193500000Y-87336310D01*
X193500000Y-86645750D01*
X193341250Y-86487000D01*
X191992000Y-86487000D01*
X191738000Y-86487000D01*
X190388750Y-86487000D01*
X190230000Y-86645750D01*
X189512440Y-86645750D01*
X189512440Y-85510000D01*
X189488674Y-85383690D01*
X190230000Y-85383690D01*
X190230000Y-86074250D01*
X190388750Y-86233000D01*
X191738000Y-86233000D01*
X191738000Y-85033750D01*
X191992000Y-85033750D01*
X191992000Y-86233000D01*
X193341250Y-86233000D01*
X193500000Y-86074250D01*
X193500000Y-85383690D01*
X193403327Y-85150301D01*
X193224698Y-84971673D01*
X192991309Y-84875000D01*
X192150750Y-84875000D01*
X191992000Y-85033750D01*
X191738000Y-85033750D01*
X191579250Y-84875000D01*
X190738691Y-84875000D01*
X190505302Y-84971673D01*
X190326673Y-85150301D01*
X190230000Y-85383690D01*
X189488674Y-85383690D01*
X189468162Y-85274683D01*
X189329090Y-85058559D01*
X189116890Y-84913569D01*
X188865000Y-84862560D01*
X186865000Y-84862560D01*
X186629683Y-84906838D01*
X186413559Y-85045910D01*
X186278917Y-85242965D01*
X186249507Y-85171788D01*
X185974659Y-84896460D01*
X185615370Y-84747270D01*
X185226337Y-84746931D01*
X184866788Y-84895493D01*
X184799163Y-84963000D01*
X183965580Y-84963000D01*
X183914851Y-84887078D01*
X183530409Y-84630203D01*
X183076929Y-84540000D01*
X181603071Y-84540000D01*
X181149591Y-84630203D01*
X180765149Y-84887078D01*
X180508274Y-85271520D01*
X180418071Y-85725000D01*
X180508274Y-86178480D01*
X180765149Y-86562922D01*
X181007717Y-86725000D01*
X180765149Y-86887078D01*
X180714420Y-86963000D01*
X180420917Y-86963000D01*
X180259659Y-86801460D01*
X179900370Y-86652270D01*
X179511337Y-86651931D01*
X179151788Y-86800493D01*
X178876460Y-87075341D01*
X178727270Y-87434630D01*
X178726931Y-87823663D01*
X178875493Y-88183212D01*
X179150341Y-88458540D01*
X179509630Y-88607730D01*
X179898663Y-88608069D01*
X180191674Y-88487000D01*
X180714420Y-88487000D01*
X180765149Y-88562922D01*
X181007717Y-88725000D01*
X180765149Y-88887078D01*
X180714420Y-88963000D01*
X177610000Y-88963000D01*
X177318395Y-89021004D01*
X177071460Y-89186001D01*
X177071185Y-89186185D01*
X177065357Y-89192013D01*
X176971337Y-89191931D01*
X176611788Y-89340493D01*
X176336460Y-89615341D01*
X176187270Y-89974630D01*
X176186931Y-90363663D01*
X170942000Y-90363663D01*
X170942000Y-86360000D01*
X170883996Y-86068395D01*
X170783948Y-85918663D01*
X170718816Y-85821185D01*
X170083815Y-85186185D01*
X169836605Y-85021004D01*
X169545000Y-84963000D01*
X168797549Y-84963000D01*
X168793162Y-84939683D01*
X168654090Y-84723559D01*
X168441890Y-84578569D01*
X168202049Y-84530000D01*
X196140000Y-84530000D01*
X196140000Y-111571810D01*
X196134659Y-111566460D01*
X195775370Y-111417270D01*
X195386337Y-111416931D01*
X195108161Y-111531870D01*
X195189093Y-111125000D01*
X195076054Y-110556715D01*
X194754147Y-110074946D01*
X194272378Y-109753039D01*
X193704093Y-109640000D01*
X193645907Y-109640000D01*
X193077622Y-109753039D01*
X192595853Y-110074946D01*
X192403382Y-110363000D01*
X191756083Y-110363000D01*
X191689659Y-110296460D01*
X191330370Y-110147270D01*
X190941337Y-110146931D01*
X190581788Y-110295493D01*
X190306460Y-110570341D01*
X190157270Y-110929630D01*
X190156931Y-111318663D01*
X190305493Y-111678212D01*
X190580341Y-111953540D01*
X190939630Y-112102730D01*
X191328663Y-112103069D01*
X191688212Y-111954507D01*
X191755837Y-111887000D01*
X192403382Y-111887000D01*
X192595853Y-112175054D01*
X192925026Y-112395000D01*
X192595853Y-112614946D01*
X192273946Y-113096715D01*
X192160907Y-113665000D01*
X192273946Y-114233285D01*
X192595853Y-114715054D01*
X192925026Y-114935000D01*
X192595853Y-115154946D01*
X192403382Y-115443000D01*
X192113011Y-115443000D01*
X192113069Y-115376337D01*
X191964507Y-115016788D01*
X191689659Y-114741460D01*
X191330370Y-114592270D01*
X190941337Y-114591931D01*
X190581788Y-114740493D01*
X190306460Y-115015341D01*
X190157270Y-115374630D01*
X190156931Y-115763663D01*
X190226111Y-115931092D01*
X190060370Y-115862270D01*
X189671337Y-115861931D01*
X189311788Y-116010493D01*
X189036460Y-116285341D01*
X188887270Y-116644630D01*
X188887210Y-116713000D01*
X188832440Y-116713000D01*
X188832440Y-116200000D01*
X188788162Y-115964683D01*
X188649090Y-115748559D01*
X188436890Y-115603569D01*
X188185000Y-115552560D01*
X186625000Y-115552560D01*
X186389683Y-115596838D01*
X186173559Y-115735910D01*
X186121240Y-115812482D01*
X186078395Y-115821004D01*
X186020570Y-115859642D01*
X185949090Y-115748559D01*
X185736890Y-115603569D01*
X185485000Y-115552560D01*
X183925000Y-115552560D01*
X183689683Y-115596838D01*
X183473559Y-115735910D01*
X183328569Y-115948110D01*
X183277560Y-116200000D01*
X183277560Y-116850000D01*
X183321838Y-117085317D01*
X183460910Y-117301441D01*
X183673110Y-117446431D01*
X183810120Y-117474176D01*
X183689683Y-117496838D01*
X183473559Y-117635910D01*
X183455049Y-117663000D01*
X182875631Y-117663000D01*
X182243815Y-117031185D01*
X181996605Y-116866004D01*
X181705000Y-116808000D01*
X179932440Y-116808000D01*
X179932440Y-116570000D01*
X179888162Y-116334683D01*
X179749090Y-116118559D01*
X179536890Y-115973569D01*
X179285000Y-115922560D01*
X177585000Y-115922560D01*
X177349683Y-115966838D01*
X177133559Y-116105910D01*
X176988569Y-116318110D01*
X176937560Y-116570000D01*
X176937560Y-118570000D01*
X176981838Y-118805317D01*
X177120910Y-119021441D01*
X177333110Y-119166431D01*
X177585000Y-119217440D01*
X179285000Y-119217440D01*
X179520317Y-119173162D01*
X179736441Y-119034090D01*
X179881431Y-118821890D01*
X179932440Y-118570000D01*
X179932440Y-118332000D01*
X181389370Y-118332000D01*
X182021185Y-118963816D01*
X182268396Y-119128997D01*
X182560000Y-119187000D01*
X183451617Y-119187000D01*
X183460910Y-119201441D01*
X183536369Y-119253000D01*
X180340000Y-119253000D01*
X180048395Y-119311004D01*
X179919035Y-119397440D01*
X179801185Y-119476185D01*
X179071185Y-120206185D01*
X178906004Y-120453395D01*
X178902192Y-120472560D01*
X178610000Y-120472560D01*
X178374683Y-120516838D01*
X178158559Y-120655910D01*
X178013569Y-120868110D01*
X177962560Y-121120000D01*
X177962560Y-122720000D01*
X178006838Y-122955317D01*
X178145910Y-123171441D01*
X178358110Y-123316431D01*
X178610000Y-123367440D01*
X178848000Y-123367440D01*
X178848000Y-124282560D01*
X178610000Y-124282560D01*
X178374683Y-124326838D01*
X178158559Y-124465910D01*
X178013569Y-124678110D01*
X177962560Y-124930000D01*
X177962560Y-124968000D01*
X173346964Y-124968000D01*
X173135054Y-124650853D01*
X172653285Y-124328946D01*
X172085000Y-124215907D01*
X171516715Y-124328946D01*
X171034946Y-124650853D01*
X171007150Y-124692452D01*
X170998162Y-124644683D01*
X170859090Y-124428559D01*
X170646890Y-124283569D01*
X170395000Y-124232560D01*
X168695000Y-124232560D01*
X168459683Y-124276838D01*
X168243559Y-124415910D01*
X168098569Y-124628110D01*
X168047560Y-124880000D01*
X168047560Y-126580000D01*
X168091838Y-126815317D01*
X168230910Y-127031441D01*
X168443110Y-127176431D01*
X168695000Y-127227440D01*
X170395000Y-127227440D01*
X170630317Y-127183162D01*
X170846441Y-127044090D01*
X170991431Y-126831890D01*
X171005086Y-126764459D01*
X171034946Y-126809147D01*
X171516715Y-127131054D01*
X172085000Y-127244093D01*
X172653285Y-127131054D01*
X173135054Y-126809147D01*
X173346964Y-126492000D01*
X177962560Y-126492000D01*
X177962560Y-126530000D01*
X178006838Y-126765317D01*
X178145910Y-126981441D01*
X178358110Y-127126431D01*
X178610000Y-127177440D01*
X180610000Y-127177440D01*
X180845317Y-127133162D01*
X181061441Y-126994090D01*
X181206431Y-126781890D01*
X181257440Y-126530000D01*
X181257440Y-124930000D01*
X181962560Y-124930000D01*
X181962560Y-126530000D01*
X182006838Y-126765317D01*
X182145910Y-126981441D01*
X182358110Y-127126431D01*
X182610000Y-127177440D01*
X184610000Y-127177440D01*
X184845317Y-127133162D01*
X185061441Y-126994090D01*
X185206431Y-126781890D01*
X185257440Y-126530000D01*
X185257440Y-126313166D01*
X185323815Y-126268815D01*
X186154644Y-125437987D01*
X186248663Y-125438069D01*
X186608212Y-125289507D01*
X186883540Y-125014659D01*
X187032730Y-124655370D01*
X187033069Y-124266337D01*
X186884507Y-123906788D01*
X186609659Y-123631460D01*
X186250370Y-123482270D01*
X185861337Y-123481931D01*
X185501788Y-123630493D01*
X185226460Y-123905341D01*
X185077270Y-124264630D01*
X185077187Y-124360183D01*
X185005605Y-124431765D01*
X184861890Y-124333569D01*
X184610000Y-124282560D01*
X182610000Y-124282560D01*
X182374683Y-124326838D01*
X182158559Y-124465910D01*
X182013569Y-124678110D01*
X181962560Y-124930000D01*
X181257440Y-124930000D01*
X181213162Y-124694683D01*
X181074090Y-124478559D01*
X180861890Y-124333569D01*
X180610000Y-124282560D01*
X180372000Y-124282560D01*
X180372000Y-123367440D01*
X180610000Y-123367440D01*
X180845317Y-123323162D01*
X181061441Y-123184090D01*
X181206431Y-122971890D01*
X181257440Y-122720000D01*
X181257440Y-121120000D01*
X181213162Y-120884683D01*
X181143870Y-120777000D01*
X182075822Y-120777000D01*
X182013569Y-120868110D01*
X181962560Y-121120000D01*
X181962560Y-122720000D01*
X182006838Y-122955317D01*
X182145910Y-123171441D01*
X182358110Y-123316431D01*
X182610000Y-123367440D01*
X184610000Y-123367440D01*
X184845317Y-123323162D01*
X185061441Y-123184090D01*
X185206431Y-122971890D01*
X185257440Y-122720000D01*
X185257440Y-122503166D01*
X185323815Y-122458815D01*
X186154644Y-121627987D01*
X186248663Y-121628069D01*
X186608212Y-121479507D01*
X186883540Y-121204659D01*
X187032730Y-120845370D01*
X187033069Y-120456337D01*
X186884507Y-120096788D01*
X186609659Y-119821460D01*
X186250370Y-119672270D01*
X186205400Y-119672231D01*
X186504577Y-119373054D01*
X186625000Y-119397440D01*
X187356236Y-119397440D01*
X187433395Y-119448996D01*
X187725000Y-119507000D01*
X192403382Y-119507000D01*
X192595853Y-119795054D01*
X192925026Y-120015000D01*
X192595853Y-120234946D01*
X192403382Y-120523000D01*
X191756083Y-120523000D01*
X191689659Y-120456460D01*
X191330370Y-120307270D01*
X190941337Y-120306931D01*
X190581788Y-120455493D01*
X190306460Y-120730341D01*
X190157270Y-121089630D01*
X190156931Y-121478663D01*
X190305493Y-121838212D01*
X190580341Y-122113540D01*
X190939630Y-122262730D01*
X191328663Y-122263069D01*
X191688212Y-122114507D01*
X191755837Y-122047000D01*
X192403382Y-122047000D01*
X192595853Y-122335054D01*
X192637452Y-122362850D01*
X192589683Y-122371838D01*
X192373559Y-122510910D01*
X192228569Y-122723110D01*
X192177560Y-122975000D01*
X192177560Y-124675000D01*
X192221838Y-124910317D01*
X192360910Y-125126441D01*
X192573110Y-125271431D01*
X192825000Y-125322440D01*
X194525000Y-125322440D01*
X194760317Y-125278162D01*
X194976441Y-125139090D01*
X195121431Y-124926890D01*
X195172440Y-124675000D01*
X195172440Y-122975000D01*
X195128162Y-122739683D01*
X194989090Y-122523559D01*
X194776890Y-122378569D01*
X194709459Y-122364914D01*
X194754147Y-122335054D01*
X195076054Y-121853285D01*
X195189093Y-121285000D01*
X195076054Y-120716715D01*
X194754147Y-120234946D01*
X194424974Y-120015000D01*
X194754147Y-119795054D01*
X195076054Y-119313285D01*
X195189093Y-118745000D01*
X195076054Y-118176715D01*
X194754147Y-117694946D01*
X194424974Y-117475000D01*
X194754147Y-117255054D01*
X195076054Y-116773285D01*
X195189093Y-116205000D01*
X195076054Y-115636715D01*
X194754147Y-115154946D01*
X194424974Y-114935000D01*
X194754147Y-114715054D01*
X195076054Y-114233285D01*
X195139796Y-113912835D01*
X195679644Y-113372987D01*
X195773663Y-113373069D01*
X196133212Y-113224507D01*
X196140000Y-113217731D01*
X196140000Y-127560000D01*
X153110000Y-127560000D01*
X153110000Y-122840750D01*
X156230000Y-122840750D01*
X156230000Y-123931310D01*
X156326673Y-124164699D01*
X156505302Y-124343327D01*
X156738691Y-124440000D01*
X157829250Y-124440000D01*
X157988000Y-124281250D01*
X157988000Y-122682000D01*
X158242000Y-122682000D01*
X158242000Y-124281250D01*
X158400750Y-124440000D01*
X159491309Y-124440000D01*
X159724698Y-124343327D01*
X159903327Y-124164699D01*
X160000000Y-123931310D01*
X160000000Y-122840750D01*
X159841250Y-122682000D01*
X158242000Y-122682000D01*
X157988000Y-122682000D01*
X156388750Y-122682000D01*
X156230000Y-122840750D01*
X153110000Y-122840750D01*
X153110000Y-121178690D01*
X156230000Y-121178690D01*
X156230000Y-122269250D01*
X156388750Y-122428000D01*
X157988000Y-122428000D01*
X157988000Y-120828750D01*
X158242000Y-120828750D01*
X158242000Y-122428000D01*
X159841250Y-122428000D01*
X160000000Y-122269250D01*
X160000000Y-121178690D01*
X159903327Y-120945301D01*
X159724698Y-120766673D01*
X159491309Y-120670000D01*
X158400750Y-120670000D01*
X158242000Y-120828750D01*
X157988000Y-120828750D01*
X157829250Y-120670000D01*
X156738691Y-120670000D01*
X156505302Y-120766673D01*
X156326673Y-120945301D01*
X156230000Y-121178690D01*
X153110000Y-121178690D01*
X153110000Y-111125000D01*
X153543000Y-111125000D01*
X153543000Y-114300000D01*
X153601004Y-114591605D01*
X153745596Y-114808001D01*
X153766185Y-114838815D01*
X154401185Y-115473816D01*
X154549377Y-115572834D01*
X154648395Y-115638996D01*
X154940000Y-115697000D01*
X155737560Y-115697000D01*
X155737560Y-115785000D01*
X155781838Y-116020317D01*
X155920910Y-116236441D01*
X156133110Y-116381431D01*
X156385000Y-116432440D01*
X158385000Y-116432440D01*
X158620317Y-116388162D01*
X158836441Y-116249090D01*
X158981431Y-116036890D01*
X159032440Y-115785000D01*
X159032440Y-114085000D01*
X158991295Y-113866335D01*
X159065631Y-113792000D01*
X159816658Y-113792000D01*
X159788569Y-113833110D01*
X159737560Y-114085000D01*
X159737560Y-115785000D01*
X159781838Y-116020317D01*
X159920910Y-116236441D01*
X160133110Y-116381431D01*
X160385000Y-116432440D01*
X160623000Y-116432440D01*
X160623000Y-120825000D01*
X160681004Y-121116605D01*
X160846185Y-121363815D01*
X161356623Y-121874253D01*
X161230328Y-122178405D01*
X161229674Y-122928305D01*
X161516043Y-123621372D01*
X162045839Y-124152093D01*
X162738405Y-124439672D01*
X163488305Y-124440326D01*
X164181372Y-124153957D01*
X164712093Y-123624161D01*
X164839638Y-123317000D01*
X167005000Y-123317000D01*
X167296605Y-123258996D01*
X167543815Y-123093815D01*
X169988815Y-120648815D01*
X170153996Y-120401605D01*
X170172828Y-120306931D01*
X170185656Y-120242440D01*
X170450000Y-120242440D01*
X170685317Y-120198162D01*
X170901441Y-120059090D01*
X171046431Y-119846890D01*
X171097440Y-119595000D01*
X171097440Y-117895000D01*
X171802560Y-117895000D01*
X171802560Y-119595000D01*
X171846838Y-119830317D01*
X171985910Y-120046441D01*
X172198110Y-120191431D01*
X172450000Y-120242440D01*
X172688000Y-120242440D01*
X172688000Y-120569083D01*
X172526460Y-120730341D01*
X172377270Y-121089630D01*
X172376931Y-121478663D01*
X172525493Y-121838212D01*
X172800341Y-122113540D01*
X173159630Y-122262730D01*
X173548663Y-122263069D01*
X173908212Y-122114507D01*
X174183540Y-121839659D01*
X174332730Y-121480370D01*
X174333069Y-121091337D01*
X174212000Y-120798326D01*
X174212000Y-120242440D01*
X174450000Y-120242440D01*
X174685317Y-120198162D01*
X174901441Y-120059090D01*
X175046431Y-119846890D01*
X175097440Y-119595000D01*
X175097440Y-117895000D01*
X175053162Y-117659683D01*
X174914090Y-117443559D01*
X174701890Y-117298569D01*
X174450000Y-117247560D01*
X172450000Y-117247560D01*
X172214683Y-117291838D01*
X171998559Y-117430910D01*
X171853569Y-117643110D01*
X171802560Y-117895000D01*
X171097440Y-117895000D01*
X171053162Y-117659683D01*
X170914090Y-117443559D01*
X170701890Y-117298569D01*
X170450000Y-117247560D01*
X168450000Y-117247560D01*
X168214683Y-117291838D01*
X167998559Y-117430910D01*
X167853569Y-117643110D01*
X167802560Y-117895000D01*
X167802560Y-119595000D01*
X167846838Y-119830317D01*
X167985910Y-120046441D01*
X168198110Y-120191431D01*
X168275306Y-120207064D01*
X166689370Y-121793000D01*
X164839721Y-121793000D01*
X164713957Y-121488628D01*
X164184161Y-120957907D01*
X163491595Y-120670328D01*
X162741695Y-120669674D01*
X162434312Y-120796682D01*
X162147000Y-120509370D01*
X162147000Y-116432440D01*
X162385000Y-116432440D01*
X162620317Y-116388162D01*
X162836441Y-116249090D01*
X162981431Y-116036890D01*
X163032440Y-115785000D01*
X163032440Y-114085000D01*
X162988162Y-113849683D01*
X162951044Y-113792000D01*
X168437560Y-113792000D01*
X168437560Y-115100000D01*
X168481838Y-115335317D01*
X168620910Y-115551441D01*
X168833110Y-115696431D01*
X169085000Y-115747440D01*
X171085000Y-115747440D01*
X171320317Y-115703162D01*
X171536441Y-115564090D01*
X171681431Y-115351890D01*
X171732440Y-115100000D01*
X171732440Y-113500000D01*
X171688162Y-113264683D01*
X171549090Y-113048559D01*
X171336890Y-112903569D01*
X171085000Y-112852560D01*
X169715190Y-112852560D01*
X169451293Y-112588663D01*
X172376931Y-112588663D01*
X172525493Y-112948212D01*
X172625221Y-113048114D01*
X172488569Y-113248110D01*
X172437560Y-113500000D01*
X172437560Y-115100000D01*
X172481838Y-115335317D01*
X172620910Y-115551441D01*
X172833110Y-115696431D01*
X173085000Y-115747440D01*
X175085000Y-115747440D01*
X175320317Y-115703162D01*
X175536441Y-115564090D01*
X175681431Y-115351890D01*
X175732440Y-115100000D01*
X175732440Y-113855750D01*
X176950000Y-113855750D01*
X176950000Y-114696309D01*
X177046673Y-114929698D01*
X177225301Y-115108327D01*
X177458690Y-115205000D01*
X178149250Y-115205000D01*
X178308000Y-115046250D01*
X178308000Y-113697000D01*
X178562000Y-113697000D01*
X178562000Y-115046250D01*
X178720750Y-115205000D01*
X179411310Y-115205000D01*
X179644699Y-115108327D01*
X179823327Y-114929698D01*
X179920000Y-114696309D01*
X179920000Y-113950750D01*
X181785000Y-113950750D01*
X181785000Y-114591310D01*
X181881673Y-114824699D01*
X182060302Y-115003327D01*
X182293691Y-115100000D01*
X183134250Y-115100000D01*
X183293000Y-114941250D01*
X183293000Y-113792000D01*
X183547000Y-113792000D01*
X183547000Y-114941250D01*
X183705750Y-115100000D01*
X184546309Y-115100000D01*
X184779698Y-115003327D01*
X184958327Y-114824699D01*
X185055000Y-114591310D01*
X185055000Y-113950750D01*
X184896250Y-113792000D01*
X183547000Y-113792000D01*
X183293000Y-113792000D01*
X181943750Y-113792000D01*
X181785000Y-113950750D01*
X179920000Y-113950750D01*
X179920000Y-113855750D01*
X179761250Y-113697000D01*
X178562000Y-113697000D01*
X178308000Y-113697000D01*
X177108750Y-113697000D01*
X176950000Y-113855750D01*
X175732440Y-113855750D01*
X175732440Y-113500000D01*
X175688162Y-113264683D01*
X175549090Y-113048559D01*
X175336890Y-112903569D01*
X175085000Y-112852560D01*
X174792808Y-112852560D01*
X174788996Y-112833395D01*
X174623815Y-112586185D01*
X174481321Y-112443691D01*
X176950000Y-112443691D01*
X176950000Y-113284250D01*
X177108750Y-113443000D01*
X178308000Y-113443000D01*
X178308000Y-112093750D01*
X178562000Y-112093750D01*
X178562000Y-113443000D01*
X179761250Y-113443000D01*
X179920000Y-113284250D01*
X179920000Y-112738690D01*
X181785000Y-112738690D01*
X181785000Y-113379250D01*
X181943750Y-113538000D01*
X183293000Y-113538000D01*
X183293000Y-112388750D01*
X183547000Y-112388750D01*
X183547000Y-113538000D01*
X184896250Y-113538000D01*
X185055000Y-113379250D01*
X185055000Y-113223663D01*
X185711931Y-113223663D01*
X185772560Y-113370397D01*
X185772560Y-114465000D01*
X185816838Y-114700317D01*
X185955910Y-114916441D01*
X186168110Y-115061431D01*
X186420000Y-115112440D01*
X188420000Y-115112440D01*
X188655317Y-115068162D01*
X188871441Y-114929090D01*
X189016431Y-114716890D01*
X189067440Y-114465000D01*
X189067440Y-112865000D01*
X189023162Y-112629683D01*
X188884090Y-112413559D01*
X188671890Y-112268569D01*
X188420000Y-112217560D01*
X187260731Y-112217560D01*
X187244659Y-112201460D01*
X186885370Y-112052270D01*
X186496337Y-112051931D01*
X186136788Y-112200493D01*
X185861460Y-112475341D01*
X185712270Y-112834630D01*
X185711931Y-113223663D01*
X185055000Y-113223663D01*
X185055000Y-112738690D01*
X184958327Y-112505301D01*
X184779698Y-112326673D01*
X184546309Y-112230000D01*
X183705750Y-112230000D01*
X183547000Y-112388750D01*
X183293000Y-112388750D01*
X183134250Y-112230000D01*
X182293691Y-112230000D01*
X182060302Y-112326673D01*
X181881673Y-112505301D01*
X181785000Y-112738690D01*
X179920000Y-112738690D01*
X179920000Y-112443691D01*
X179823327Y-112210302D01*
X179644699Y-112031673D01*
X179411310Y-111935000D01*
X178720750Y-111935000D01*
X178562000Y-112093750D01*
X178308000Y-112093750D01*
X178149250Y-111935000D01*
X177458690Y-111935000D01*
X177225301Y-112031673D01*
X177046673Y-112210302D01*
X176950000Y-112443691D01*
X174481321Y-112443691D01*
X174332987Y-112295357D01*
X174333069Y-112201337D01*
X174184507Y-111841788D01*
X173909659Y-111566460D01*
X173550370Y-111417270D01*
X173161337Y-111416931D01*
X172801788Y-111565493D01*
X172526460Y-111840341D01*
X172377270Y-112199630D01*
X172376931Y-112588663D01*
X169451293Y-112588663D01*
X169353815Y-112491185D01*
X169248782Y-112421004D01*
X169106605Y-112326004D01*
X168815000Y-112268000D01*
X160635973Y-112268000D01*
X160696441Y-112229090D01*
X160714951Y-112202000D01*
X164055000Y-112202000D01*
X164346605Y-112143996D01*
X164580907Y-111987440D01*
X166005000Y-111987440D01*
X166240317Y-111943162D01*
X166456441Y-111804090D01*
X166601431Y-111591890D01*
X166652440Y-111340000D01*
X166652440Y-109640000D01*
X166608162Y-109404683D01*
X166469090Y-109188559D01*
X166256890Y-109043569D01*
X166005000Y-108992560D01*
X164005000Y-108992560D01*
X163769683Y-109036838D01*
X163553559Y-109175910D01*
X163408569Y-109388110D01*
X163357560Y-109640000D01*
X163357560Y-110678000D01*
X160718383Y-110678000D01*
X160709090Y-110663559D01*
X160496890Y-110518569D01*
X160382435Y-110495391D01*
X160604698Y-110403327D01*
X160783327Y-110224699D01*
X160880000Y-109991310D01*
X160880000Y-109825750D01*
X160721250Y-109667000D01*
X159592000Y-109667000D01*
X159592000Y-109687000D01*
X159338000Y-109687000D01*
X159338000Y-109667000D01*
X159318000Y-109667000D01*
X159318000Y-109413000D01*
X159338000Y-109413000D01*
X159338000Y-108738750D01*
X159592000Y-108738750D01*
X159592000Y-109413000D01*
X160721250Y-109413000D01*
X160880000Y-109254250D01*
X160880000Y-109088690D01*
X160783327Y-108855301D01*
X160604698Y-108676673D01*
X160371309Y-108580000D01*
X159750750Y-108580000D01*
X159592000Y-108738750D01*
X159338000Y-108738750D01*
X159179250Y-108580000D01*
X158558691Y-108580000D01*
X158325302Y-108676673D01*
X158146673Y-108855301D01*
X158115912Y-108929565D01*
X158009090Y-108763559D01*
X157796890Y-108618569D01*
X157545000Y-108567560D01*
X155985000Y-108567560D01*
X155749683Y-108611838D01*
X155533559Y-108750910D01*
X155388569Y-108963110D01*
X155337560Y-109215000D01*
X155337560Y-109728000D01*
X154940000Y-109728000D01*
X154648395Y-109786004D01*
X154549377Y-109852166D01*
X154401185Y-109951184D01*
X153766185Y-110586185D01*
X153601004Y-110833395D01*
X153543000Y-111125000D01*
X153110000Y-111125000D01*
X153110000Y-106425750D01*
X153455000Y-106425750D01*
X153455000Y-107266309D01*
X153551673Y-107499698D01*
X153730301Y-107678327D01*
X153963690Y-107775000D01*
X154654250Y-107775000D01*
X154813000Y-107616250D01*
X154813000Y-106267000D01*
X155067000Y-106267000D01*
X155067000Y-107616250D01*
X155225750Y-107775000D01*
X155916310Y-107775000D01*
X156149699Y-107678327D01*
X156328327Y-107499698D01*
X156425000Y-107266309D01*
X156425000Y-106425750D01*
X156266250Y-106267000D01*
X155067000Y-106267000D01*
X154813000Y-106267000D01*
X153613750Y-106267000D01*
X153455000Y-106425750D01*
X153110000Y-106425750D01*
X153110000Y-105013691D01*
X153455000Y-105013691D01*
X153455000Y-105854250D01*
X153613750Y-106013000D01*
X154813000Y-106013000D01*
X154813000Y-104663750D01*
X155067000Y-104663750D01*
X155067000Y-106013000D01*
X156266250Y-106013000D01*
X156425000Y-105854250D01*
X156425000Y-105013691D01*
X156328327Y-104780302D01*
X156158026Y-104610000D01*
X159547560Y-104610000D01*
X159547560Y-106210000D01*
X159591838Y-106445317D01*
X159730910Y-106661441D01*
X159943110Y-106806431D01*
X160195000Y-106857440D01*
X160433000Y-106857440D01*
X160433000Y-107220000D01*
X160491004Y-107511605D01*
X160653389Y-107754630D01*
X160656185Y-107758815D01*
X160947013Y-108049643D01*
X160946931Y-108143663D01*
X161095493Y-108503212D01*
X161370341Y-108778540D01*
X161729630Y-108927730D01*
X162118663Y-108928069D01*
X162478212Y-108779507D01*
X162753540Y-108504659D01*
X162902730Y-108145370D01*
X162903069Y-107756337D01*
X162754507Y-107396788D01*
X162479659Y-107121460D01*
X162120370Y-106972270D01*
X162024817Y-106972187D01*
X161957000Y-106904370D01*
X161957000Y-106857440D01*
X162195000Y-106857440D01*
X162430317Y-106813162D01*
X162646441Y-106674090D01*
X162791431Y-106461890D01*
X162842440Y-106210000D01*
X162842440Y-105695750D01*
X163560000Y-105695750D01*
X163560000Y-106336310D01*
X163656673Y-106569699D01*
X163835302Y-106748327D01*
X164068691Y-106845000D01*
X164909250Y-106845000D01*
X165068000Y-106686250D01*
X165068000Y-105537000D01*
X165322000Y-105537000D01*
X165322000Y-106686250D01*
X165480750Y-106845000D01*
X166321309Y-106845000D01*
X166554698Y-106748327D01*
X166733327Y-106569699D01*
X166830000Y-106336310D01*
X166830000Y-105695750D01*
X166671250Y-105537000D01*
X165322000Y-105537000D01*
X165068000Y-105537000D01*
X163718750Y-105537000D01*
X163560000Y-105695750D01*
X162842440Y-105695750D01*
X162842440Y-104610000D01*
X162818674Y-104483690D01*
X163560000Y-104483690D01*
X163560000Y-105124250D01*
X163718750Y-105283000D01*
X165068000Y-105283000D01*
X165068000Y-104133750D01*
X165322000Y-104133750D01*
X165322000Y-105283000D01*
X166671250Y-105283000D01*
X166830000Y-105124250D01*
X166830000Y-104483690D01*
X166733327Y-104250301D01*
X166554698Y-104071673D01*
X166321309Y-103975000D01*
X165480750Y-103975000D01*
X165322000Y-104133750D01*
X165068000Y-104133750D01*
X164909250Y-103975000D01*
X164068691Y-103975000D01*
X163835302Y-104071673D01*
X163656673Y-104250301D01*
X163560000Y-104483690D01*
X162818674Y-104483690D01*
X162798162Y-104374683D01*
X162659090Y-104158559D01*
X162446890Y-104013569D01*
X162195000Y-103962560D01*
X160195000Y-103962560D01*
X159959683Y-104006838D01*
X159743559Y-104145910D01*
X159598569Y-104358110D01*
X159547560Y-104610000D01*
X156158026Y-104610000D01*
X156149699Y-104601673D01*
X155916310Y-104505000D01*
X155225750Y-104505000D01*
X155067000Y-104663750D01*
X154813000Y-104663750D01*
X154654250Y-104505000D01*
X153963690Y-104505000D01*
X153730301Y-104601673D01*
X153551673Y-104780302D01*
X153455000Y-105013691D01*
X153110000Y-105013691D01*
X153110000Y-95087213D01*
X157314392Y-95087213D01*
X157383857Y-95329397D01*
X157907302Y-95516144D01*
X158462368Y-95488362D01*
X158846143Y-95329397D01*
X158915608Y-95087213D01*
X158115000Y-94286605D01*
X157314392Y-95087213D01*
X153110000Y-95087213D01*
X153110000Y-93899302D01*
X156705856Y-93899302D01*
X156733638Y-94454368D01*
X156892603Y-94838143D01*
X157134787Y-94907608D01*
X157935395Y-94107000D01*
X158294605Y-94107000D01*
X159095213Y-94907608D01*
X159337397Y-94838143D01*
X159524144Y-94314698D01*
X159496362Y-93759632D01*
X159337397Y-93375857D01*
X159095213Y-93306392D01*
X158294605Y-94107000D01*
X157935395Y-94107000D01*
X157134787Y-93306392D01*
X156892603Y-93375857D01*
X156705856Y-93899302D01*
X153110000Y-93899302D01*
X153110000Y-93126787D01*
X157314392Y-93126787D01*
X158115000Y-93927395D01*
X158915608Y-93126787D01*
X158846143Y-92884603D01*
X158322698Y-92697856D01*
X157767632Y-92725638D01*
X157383857Y-92884603D01*
X157314392Y-93126787D01*
X153110000Y-93126787D01*
X153110000Y-84530000D01*
X156487188Y-84530000D01*
X156423569Y-84623110D01*
X156423569Y-84623110D01*
G37*
X156423569Y-84623110D02*
X156372560Y-84875000D01*
X156372560Y-86575000D01*
X156416838Y-86810317D01*
X156555910Y-87026441D01*
X156768110Y-87171431D01*
X157020000Y-87222440D01*
X157258000Y-87222440D01*
X157258000Y-88924571D01*
X156931371Y-89250630D01*
X156718243Y-89763900D01*
X156717758Y-90319661D01*
X156929990Y-90833303D01*
X157322630Y-91226629D01*
X157835900Y-91439757D01*
X158391661Y-91440242D01*
X158905303Y-91228010D01*
X159298629Y-90835370D01*
X159511757Y-90322100D01*
X159512242Y-89766339D01*
X159300010Y-89252697D01*
X158907370Y-88859371D01*
X158782000Y-88807313D01*
X158782000Y-87222440D01*
X159020000Y-87222440D01*
X159255317Y-87178162D01*
X159471441Y-87039090D01*
X159616431Y-86826890D01*
X159667440Y-86575000D01*
X159667440Y-84875000D01*
X159623162Y-84639683D01*
X159552583Y-84530000D01*
X160487188Y-84530000D01*
X160423569Y-84623110D01*
X160372560Y-84875000D01*
X160372560Y-86575000D01*
X160416838Y-86810317D01*
X160555910Y-87026441D01*
X160768110Y-87171431D01*
X161020000Y-87222440D01*
X163020000Y-87222440D01*
X163255317Y-87178162D01*
X163471441Y-87039090D01*
X163616431Y-86826890D01*
X163667440Y-86575000D01*
X163667440Y-86487000D01*
X165082451Y-86487000D01*
X165086838Y-86510317D01*
X165225910Y-86726441D01*
X165413615Y-86854694D01*
X165365149Y-86887078D01*
X165108274Y-87271520D01*
X165018071Y-87725000D01*
X165108274Y-88178480D01*
X165365149Y-88562922D01*
X165607717Y-88725000D01*
X165365149Y-88887078D01*
X165314420Y-88963000D01*
X164910000Y-88963000D01*
X164618395Y-89021004D01*
X164519377Y-89087166D01*
X164371185Y-89186184D01*
X163291185Y-90266185D01*
X163126004Y-90513395D01*
X163068000Y-90805000D01*
X163068000Y-94299370D01*
X161609370Y-95758000D01*
X156210000Y-95758000D01*
X155918395Y-95816004D01*
X155671184Y-95981185D01*
X154401185Y-97251185D01*
X154236004Y-97498395D01*
X154178000Y-97790000D01*
X154178000Y-100492560D01*
X154090000Y-100492560D01*
X153854683Y-100536838D01*
X153638559Y-100675910D01*
X153493569Y-100888110D01*
X153442560Y-101140000D01*
X153442560Y-103140000D01*
X153486838Y-103375317D01*
X153625910Y-103591441D01*
X153838110Y-103736431D01*
X154090000Y-103787440D01*
X155790000Y-103787440D01*
X156025317Y-103743162D01*
X156241441Y-103604090D01*
X156386431Y-103391890D01*
X156437440Y-103140000D01*
X156437440Y-101140000D01*
X156393162Y-100904683D01*
X156308182Y-100772619D01*
X157149613Y-100772619D01*
X157489155Y-101594372D01*
X158117321Y-102223636D01*
X158938481Y-102564611D01*
X159827619Y-102565387D01*
X160649372Y-102225845D01*
X161278636Y-101597679D01*
X161619611Y-100776519D01*
X161620258Y-100034744D01*
X165096197Y-100034744D01*
X165096602Y-100061146D01*
X165312276Y-100473118D01*
X165669187Y-100771196D01*
X166113000Y-100910000D01*
X166813000Y-100910000D01*
X166813000Y-99852000D01*
X167067000Y-99852000D01*
X167067000Y-100910000D01*
X167767000Y-100910000D01*
X168210813Y-100771196D01*
X168567724Y-100473118D01*
X168783398Y-100061146D01*
X168783803Y-100034744D01*
X168658361Y-99852000D01*
X167067000Y-99852000D01*
X166813000Y-99852000D01*
X165221639Y-99852000D01*
X165096197Y-100034744D01*
X161620258Y-100034744D01*
X161620387Y-99887381D01*
X161280845Y-99065628D01*
X160652679Y-98436364D01*
X159831519Y-98095389D01*
X158942381Y-98094613D01*
X158120628Y-98434155D01*
X157491364Y-99062321D01*
X157150389Y-99883481D01*
X157149613Y-100772619D01*
X156308182Y-100772619D01*
X156254090Y-100688559D01*
X156041890Y-100543569D01*
X155790000Y-100492560D01*
X155702000Y-100492560D01*
X155702000Y-98105630D01*
X156525631Y-97282000D01*
X161925000Y-97282000D01*
X162216605Y-97223996D01*
X162463815Y-97058815D01*
X164368815Y-95153815D01*
X164452882Y-95028000D01*
X164533996Y-94906605D01*
X164592000Y-94615000D01*
X164592000Y-91120630D01*
X165225631Y-90487000D01*
X165314420Y-90487000D01*
X165365149Y-90562922D01*
X165607717Y-90725000D01*
X165365149Y-90887078D01*
X165108274Y-91271520D01*
X165018071Y-91725000D01*
X165108274Y-92178480D01*
X165365149Y-92562922D01*
X165607717Y-92725000D01*
X165365149Y-92887078D01*
X165108274Y-93271520D01*
X165018071Y-93725000D01*
X165108274Y-94178480D01*
X165365149Y-94562922D01*
X165607717Y-94725000D01*
X165365149Y-94887078D01*
X165108274Y-95271520D01*
X165018071Y-95725000D01*
X165108274Y-96178480D01*
X165365149Y-96562922D01*
X165607717Y-96725000D01*
X165365149Y-96887078D01*
X165108274Y-97271520D01*
X165018071Y-97725000D01*
X165108274Y-98178480D01*
X165365149Y-98562922D01*
X165611137Y-98727285D01*
X165312276Y-98976882D01*
X165096602Y-99388854D01*
X165096197Y-99415256D01*
X165221639Y-99598000D01*
X166813000Y-99598000D01*
X166813000Y-99578000D01*
X167067000Y-99578000D01*
X167067000Y-99598000D01*
X168658361Y-99598000D01*
X168783803Y-99415256D01*
X168783398Y-99388854D01*
X168567724Y-98976882D01*
X168268863Y-98727285D01*
X168514851Y-98562922D01*
X168771726Y-98178480D01*
X168861929Y-97725000D01*
X168771726Y-97271520D01*
X168514851Y-96887078D01*
X168272283Y-96725000D01*
X168514851Y-96562922D01*
X168771726Y-96178480D01*
X168861929Y-95725000D01*
X168771726Y-95271520D01*
X168514851Y-94887078D01*
X168272283Y-94725000D01*
X168514851Y-94562922D01*
X168771726Y-94178480D01*
X168861929Y-93725000D01*
X168771726Y-93271520D01*
X168514851Y-92887078D01*
X168272283Y-92725000D01*
X168514851Y-92562922D01*
X168771726Y-92178480D01*
X168861929Y-91725000D01*
X168771726Y-91271520D01*
X168514851Y-90887078D01*
X168272283Y-90725000D01*
X168514851Y-90562922D01*
X168771726Y-90178480D01*
X168861929Y-89725000D01*
X168771726Y-89271520D01*
X168514851Y-88887078D01*
X168272283Y-88725000D01*
X168514851Y-88562922D01*
X168771726Y-88178480D01*
X168861929Y-87725000D01*
X168771726Y-87271520D01*
X168514851Y-86887078D01*
X168464129Y-86853187D01*
X168641441Y-86739090D01*
X168786431Y-86526890D01*
X168794509Y-86487000D01*
X169229370Y-86487000D01*
X169418000Y-86675631D01*
X169418000Y-101919370D01*
X167736185Y-103601185D01*
X167571004Y-103848395D01*
X167513000Y-104140000D01*
X167513000Y-108585000D01*
X167571004Y-108876605D01*
X167669087Y-109023396D01*
X167705615Y-109078064D01*
X167553559Y-109175910D01*
X167408569Y-109388110D01*
X167357560Y-109640000D01*
X167357560Y-111340000D01*
X167401838Y-111575317D01*
X167540910Y-111791441D01*
X167753110Y-111936431D01*
X168005000Y-111987440D01*
X170005000Y-111987440D01*
X170240317Y-111943162D01*
X170456441Y-111804090D01*
X170601431Y-111591890D01*
X170652440Y-111340000D01*
X170652440Y-110140750D01*
X180515000Y-110140750D01*
X180515000Y-110781310D01*
X180611673Y-111014699D01*
X180790302Y-111193327D01*
X181023691Y-111290000D01*
X181864250Y-111290000D01*
X182023000Y-111131250D01*
X182023000Y-109982000D01*
X182277000Y-109982000D01*
X182277000Y-111131250D01*
X182435750Y-111290000D01*
X183276309Y-111290000D01*
X183509698Y-111193327D01*
X183688327Y-111014699D01*
X183785000Y-110781310D01*
X183785000Y-110140750D01*
X183626250Y-109982000D01*
X182277000Y-109982000D01*
X182023000Y-109982000D01*
X180673750Y-109982000D01*
X180515000Y-110140750D01*
X170652440Y-110140750D01*
X170652440Y-109640000D01*
X170608162Y-109404683D01*
X170469090Y-109188559D01*
X170256890Y-109043569D01*
X170005000Y-108992560D01*
X169688393Y-108992560D01*
X169645717Y-108928690D01*
X180515000Y-108928690D01*
X180515000Y-109569250D01*
X180673750Y-109728000D01*
X182023000Y-109728000D01*
X182023000Y-108578750D01*
X182277000Y-108578750D01*
X182277000Y-109728000D01*
X183626250Y-109728000D01*
X183785000Y-109569250D01*
X183785000Y-108928690D01*
X183688327Y-108695301D01*
X183509698Y-108516673D01*
X183276309Y-108420000D01*
X182435750Y-108420000D01*
X182277000Y-108578750D01*
X182023000Y-108578750D01*
X181864250Y-108420000D01*
X181023691Y-108420000D01*
X180790302Y-108516673D01*
X180611673Y-108695301D01*
X180515000Y-108928690D01*
X169645717Y-108928690D01*
X169543815Y-108776185D01*
X169037000Y-108269370D01*
X169037000Y-107508663D01*
X183171931Y-107508663D01*
X183320493Y-107868212D01*
X183595341Y-108143540D01*
X183954630Y-108292730D01*
X184050183Y-108292813D01*
X184556374Y-108799004D01*
X184553569Y-108803110D01*
X184502560Y-109055000D01*
X184502560Y-110655000D01*
X184546838Y-110890317D01*
X184685910Y-111106441D01*
X184898110Y-111251431D01*
X185150000Y-111302440D01*
X187150000Y-111302440D01*
X187385317Y-111258162D01*
X187601441Y-111119090D01*
X187746431Y-110906890D01*
X187797440Y-110655000D01*
X187797440Y-109055000D01*
X187753162Y-108819683D01*
X187614090Y-108603559D01*
X187401890Y-108458569D01*
X187150000Y-108407560D01*
X186320190Y-108407560D01*
X185127987Y-107215357D01*
X185128069Y-107121337D01*
X184979507Y-106761788D01*
X184704659Y-106486460D01*
X184345370Y-106337270D01*
X183956337Y-106336931D01*
X183596788Y-106485493D01*
X183321460Y-106760341D01*
X183172270Y-107119630D01*
X183171931Y-107508663D01*
X169037000Y-107508663D01*
X169037000Y-104455630D01*
X169066880Y-104425750D01*
X170355000Y-104425750D01*
X170355000Y-105066310D01*
X170451673Y-105299699D01*
X170630302Y-105478327D01*
X170863691Y-105575000D01*
X171704250Y-105575000D01*
X171863000Y-105416250D01*
X171863000Y-104267000D01*
X172117000Y-104267000D01*
X172117000Y-105416250D01*
X172275750Y-105575000D01*
X173116309Y-105575000D01*
X173349698Y-105478327D01*
X173528327Y-105299699D01*
X173625000Y-105066310D01*
X173625000Y-104425750D01*
X173466250Y-104267000D01*
X172117000Y-104267000D01*
X171863000Y-104267000D01*
X170513750Y-104267000D01*
X170355000Y-104425750D01*
X169066880Y-104425750D01*
X170408783Y-103083847D01*
X170355000Y-103213690D01*
X170355000Y-103854250D01*
X170513750Y-104013000D01*
X171863000Y-104013000D01*
X171863000Y-102863750D01*
X172117000Y-102863750D01*
X172117000Y-104013000D01*
X173466250Y-104013000D01*
X173625000Y-103854250D01*
X173625000Y-103340000D01*
X174342560Y-103340000D01*
X174342560Y-104940000D01*
X174386838Y-105175317D01*
X174525910Y-105391441D01*
X174738110Y-105536431D01*
X174990000Y-105587440D01*
X176990000Y-105587440D01*
X177225317Y-105543162D01*
X177441441Y-105404090D01*
X177586431Y-105191890D01*
X177637440Y-104940000D01*
X177637440Y-103340000D01*
X177593162Y-103104683D01*
X177454090Y-102888559D01*
X177338550Y-102809614D01*
X177358540Y-102789659D01*
X177507730Y-102430370D01*
X177508069Y-102041337D01*
X177359507Y-101681788D01*
X177084659Y-101406460D01*
X176725370Y-101257270D01*
X176336337Y-101256931D01*
X175976788Y-101405493D01*
X175701460Y-101680341D01*
X175552270Y-102039630D01*
X175552187Y-102135183D01*
X175451185Y-102236185D01*
X175286004Y-102483395D01*
X175244398Y-102692560D01*
X174990000Y-102692560D01*
X174754683Y-102736838D01*
X174538559Y-102875910D01*
X174393569Y-103088110D01*
X174342560Y-103340000D01*
X173625000Y-103340000D01*
X173625000Y-103213690D01*
X173528327Y-102980301D01*
X173349698Y-102801673D01*
X173116309Y-102705000D01*
X172275750Y-102705000D01*
X172117000Y-102863750D01*
X171863000Y-102863750D01*
X171704250Y-102705000D01*
X170863691Y-102705000D01*
X170726950Y-102761640D01*
X170782292Y-102678815D01*
X170883996Y-102526605D01*
X170942000Y-102235000D01*
X170942000Y-90363663D01*
X176186931Y-90363663D01*
X176335493Y-90723212D01*
X176610341Y-90998540D01*
X176969630Y-91147730D01*
X177358663Y-91148069D01*
X177718212Y-90999507D01*
X177993540Y-90724659D01*
X178092225Y-90487000D01*
X180714420Y-90487000D01*
X180765149Y-90562922D01*
X181007717Y-90725000D01*
X180765149Y-90887078D01*
X180714420Y-90963000D01*
X179420000Y-90963000D01*
X179128395Y-91021004D01*
X179029377Y-91087166D01*
X179014582Y-91097051D01*
X178876337Y-91096931D01*
X178516788Y-91245493D01*
X178241460Y-91520341D01*
X178092270Y-91879630D01*
X178091931Y-92268663D01*
X178240493Y-92628212D01*
X178515341Y-92903540D01*
X178874630Y-93052730D01*
X179263663Y-93053069D01*
X179623212Y-92904507D01*
X179898540Y-92629659D01*
X179957777Y-92487000D01*
X180714420Y-92487000D01*
X180765149Y-92562922D01*
X181007717Y-92725000D01*
X180765149Y-92887078D01*
X180508274Y-93271520D01*
X180418071Y-93725000D01*
X180508274Y-94178480D01*
X180765149Y-94562922D01*
X181007717Y-94725000D01*
X180765149Y-94887078D01*
X180714420Y-94963000D01*
X179865000Y-94963000D01*
X179573395Y-95021004D01*
X179476116Y-95086004D01*
X179326185Y-95186184D01*
X178531185Y-95981185D01*
X178366004Y-96228395D01*
X178308000Y-96520000D01*
X178308000Y-101600000D01*
X178366004Y-101891605D01*
X178466052Y-102041337D01*
X178531185Y-102138815D01*
X182341185Y-105948816D01*
X182437244Y-106013000D01*
X182588395Y-106113996D01*
X182880000Y-106172000D01*
X185582560Y-106172000D01*
X185582560Y-106260000D01*
X185626838Y-106495317D01*
X185765910Y-106711441D01*
X185978110Y-106856431D01*
X186230000Y-106907440D01*
X188230000Y-106907440D01*
X188465317Y-106863162D01*
X188681441Y-106724090D01*
X188826431Y-106511890D01*
X188877440Y-106260000D01*
X188877440Y-105695750D01*
X189595000Y-105695750D01*
X189595000Y-106386310D01*
X189691673Y-106619699D01*
X189870302Y-106798327D01*
X190103691Y-106895000D01*
X190944250Y-106895000D01*
X191103000Y-106736250D01*
X191103000Y-105537000D01*
X191357000Y-105537000D01*
X191357000Y-106736250D01*
X191515750Y-106895000D01*
X192356309Y-106895000D01*
X192589698Y-106798327D01*
X192768327Y-106619699D01*
X192865000Y-106386310D01*
X192865000Y-105695750D01*
X192706250Y-105537000D01*
X191357000Y-105537000D01*
X191103000Y-105537000D01*
X189753750Y-105537000D01*
X189595000Y-105695750D01*
X188877440Y-105695750D01*
X188877440Y-104560000D01*
X188853674Y-104433690D01*
X189595000Y-104433690D01*
X189595000Y-105124250D01*
X189753750Y-105283000D01*
X191103000Y-105283000D01*
X191103000Y-104083750D01*
X191357000Y-104083750D01*
X191357000Y-105283000D01*
X192706250Y-105283000D01*
X192865000Y-105124250D01*
X192865000Y-104433690D01*
X192768327Y-104200301D01*
X192589698Y-104021673D01*
X192356309Y-103925000D01*
X191515750Y-103925000D01*
X191357000Y-104083750D01*
X191103000Y-104083750D01*
X190944250Y-103925000D01*
X190103691Y-103925000D01*
X189870302Y-104021673D01*
X189691673Y-104200301D01*
X189595000Y-104433690D01*
X188853674Y-104433690D01*
X188833162Y-104324683D01*
X188694090Y-104108559D01*
X188481890Y-103963569D01*
X188230000Y-103912560D01*
X186230000Y-103912560D01*
X185994683Y-103956838D01*
X185778559Y-104095910D01*
X185633569Y-104308110D01*
X185582560Y-104560000D01*
X185582560Y-104648000D01*
X183195631Y-104648000D01*
X179832000Y-101284370D01*
X179832000Y-96835630D01*
X180180631Y-96487000D01*
X180714420Y-96487000D01*
X180765149Y-96562922D01*
X180957717Y-96691591D01*
X180665149Y-96887078D01*
X180408274Y-97271520D01*
X180318071Y-97725000D01*
X180408274Y-98178480D01*
X180665149Y-98562922D01*
X180957717Y-98758409D01*
X180765149Y-98887078D01*
X180508274Y-99271520D01*
X180418071Y-99725000D01*
X180508274Y-100178480D01*
X180765149Y-100562922D01*
X181149591Y-100819797D01*
X181603071Y-100910000D01*
X183076929Y-100910000D01*
X183530409Y-100819797D01*
X183601016Y-100772619D01*
X186994613Y-100772619D01*
X187334155Y-101594372D01*
X187962321Y-102223636D01*
X188783481Y-102564611D01*
X189672619Y-102565387D01*
X190494372Y-102225845D01*
X191123636Y-101597679D01*
X191464611Y-100776519D01*
X191465387Y-99887381D01*
X191125845Y-99065628D01*
X190497679Y-98436364D01*
X189676519Y-98095389D01*
X188787381Y-98094613D01*
X187965628Y-98434155D01*
X187336364Y-99062321D01*
X186995389Y-99883481D01*
X186994613Y-100772619D01*
X183601016Y-100772619D01*
X183914851Y-100562922D01*
X184171726Y-100178480D01*
X184261929Y-99725000D01*
X184171726Y-99271520D01*
X183914851Y-98887078D01*
X183622283Y-98691591D01*
X183814851Y-98562922D01*
X183865580Y-98487000D01*
X185355000Y-98487000D01*
X185646605Y-98428996D01*
X185893815Y-98263815D01*
X187410191Y-96747440D01*
X188865000Y-96747440D01*
X189100317Y-96703162D01*
X189316441Y-96564090D01*
X189461431Y-96351890D01*
X189512440Y-96100000D01*
X189512440Y-94400000D01*
X189468162Y-94164683D01*
X189329090Y-93948559D01*
X189116890Y-93803569D01*
X188865000Y-93752560D01*
X186865000Y-93752560D01*
X186629683Y-93796838D01*
X186413559Y-93935910D01*
X186268569Y-94148110D01*
X186217560Y-94400000D01*
X186217560Y-95784809D01*
X185039370Y-96963000D01*
X183865580Y-96963000D01*
X183814851Y-96887078D01*
X183622283Y-96758409D01*
X183914851Y-96562922D01*
X184171726Y-96178480D01*
X184261929Y-95725000D01*
X184171726Y-95271520D01*
X183914851Y-94887078D01*
X183672283Y-94725000D01*
X183914851Y-94562922D01*
X183965580Y-94487000D01*
X185040000Y-94487000D01*
X185331605Y-94428996D01*
X185578815Y-94263815D01*
X187210543Y-92632087D01*
X187280910Y-92741441D01*
X187493110Y-92886431D01*
X187745000Y-92937440D01*
X189445000Y-92937440D01*
X189680317Y-92893162D01*
X189896441Y-92754090D01*
X190041431Y-92541890D01*
X190055086Y-92474459D01*
X190084946Y-92519147D01*
X190373000Y-92711618D01*
X190373000Y-93995270D01*
X190268569Y-94148110D01*
X190217560Y-94400000D01*
X190217560Y-96100000D01*
X190261838Y-96335317D01*
X190400910Y-96551441D01*
X190613110Y-96696431D01*
X190865000Y-96747440D01*
X192865000Y-96747440D01*
X193100317Y-96703162D01*
X193316441Y-96564090D01*
X193461431Y-96351890D01*
X193512440Y-96100000D01*
X193512440Y-95220190D01*
X194409643Y-94322987D01*
X194503663Y-94323069D01*
X194863212Y-94174507D01*
X195138540Y-93899659D01*
X195287730Y-93540370D01*
X195288069Y-93151337D01*
X195139507Y-92791788D01*
X194864659Y-92516460D01*
X194505370Y-92367270D01*
X194116337Y-92366931D01*
X193756788Y-92515493D01*
X193481460Y-92790341D01*
X193332270Y-93149630D01*
X193332187Y-93245183D01*
X192824810Y-93752560D01*
X191897000Y-93752560D01*
X191897000Y-92711618D01*
X192185054Y-92519147D01*
X192506961Y-92037378D01*
X192620000Y-91469093D01*
X192620000Y-91410907D01*
X192506961Y-90842622D01*
X192185054Y-90360853D01*
X191703285Y-90038946D01*
X191135000Y-89925907D01*
X190566715Y-90038946D01*
X190084946Y-90360853D01*
X190057150Y-90402452D01*
X190048162Y-90354683D01*
X189909090Y-90138559D01*
X189696890Y-89993569D01*
X189445000Y-89942560D01*
X188627000Y-89942560D01*
X188627000Y-87857440D01*
X188865000Y-87857440D01*
X189100317Y-87813162D01*
X189316441Y-87674090D01*
X189461431Y-87461890D01*
X189512440Y-87210000D01*
X189512440Y-86645750D01*
X190230000Y-86645750D01*
X190230000Y-87336310D01*
X190326673Y-87569699D01*
X190505302Y-87748327D01*
X190738691Y-87845000D01*
X191579250Y-87845000D01*
X191738000Y-87686250D01*
X191738000Y-86487000D01*
X191992000Y-86487000D01*
X191992000Y-87686250D01*
X192150750Y-87845000D01*
X192991309Y-87845000D01*
X193224698Y-87748327D01*
X193403327Y-87569699D01*
X193500000Y-87336310D01*
X193500000Y-86645750D01*
X193341250Y-86487000D01*
X191992000Y-86487000D01*
X191738000Y-86487000D01*
X190388750Y-86487000D01*
X190230000Y-86645750D01*
X189512440Y-86645750D01*
X189512440Y-85510000D01*
X189488674Y-85383690D01*
X190230000Y-85383690D01*
X190230000Y-86074250D01*
X190388750Y-86233000D01*
X191738000Y-86233000D01*
X191738000Y-85033750D01*
X191992000Y-85033750D01*
X191992000Y-86233000D01*
X193341250Y-86233000D01*
X193500000Y-86074250D01*
X193500000Y-85383690D01*
X193403327Y-85150301D01*
X193224698Y-84971673D01*
X192991309Y-84875000D01*
X192150750Y-84875000D01*
X191992000Y-85033750D01*
X191738000Y-85033750D01*
X191579250Y-84875000D01*
X190738691Y-84875000D01*
X190505302Y-84971673D01*
X190326673Y-85150301D01*
X190230000Y-85383690D01*
X189488674Y-85383690D01*
X189468162Y-85274683D01*
X189329090Y-85058559D01*
X189116890Y-84913569D01*
X188865000Y-84862560D01*
X186865000Y-84862560D01*
X186629683Y-84906838D01*
X186413559Y-85045910D01*
X186278917Y-85242965D01*
X186249507Y-85171788D01*
X185974659Y-84896460D01*
X185615370Y-84747270D01*
X185226337Y-84746931D01*
X184866788Y-84895493D01*
X184799163Y-84963000D01*
X183965580Y-84963000D01*
X183914851Y-84887078D01*
X183530409Y-84630203D01*
X183076929Y-84540000D01*
X181603071Y-84540000D01*
X181149591Y-84630203D01*
X180765149Y-84887078D01*
X180508274Y-85271520D01*
X180418071Y-85725000D01*
X180508274Y-86178480D01*
X180765149Y-86562922D01*
X181007717Y-86725000D01*
X180765149Y-86887078D01*
X180714420Y-86963000D01*
X180420917Y-86963000D01*
X180259659Y-86801460D01*
X179900370Y-86652270D01*
X179511337Y-86651931D01*
X179151788Y-86800493D01*
X178876460Y-87075341D01*
X178727270Y-87434630D01*
X178726931Y-87823663D01*
X178875493Y-88183212D01*
X179150341Y-88458540D01*
X179509630Y-88607730D01*
X179898663Y-88608069D01*
X180191674Y-88487000D01*
X180714420Y-88487000D01*
X180765149Y-88562922D01*
X181007717Y-88725000D01*
X180765149Y-88887078D01*
X180714420Y-88963000D01*
X177610000Y-88963000D01*
X177318395Y-89021004D01*
X177071460Y-89186001D01*
X177071185Y-89186185D01*
X177065357Y-89192013D01*
X176971337Y-89191931D01*
X176611788Y-89340493D01*
X176336460Y-89615341D01*
X176187270Y-89974630D01*
X176186931Y-90363663D01*
X170942000Y-90363663D01*
X170942000Y-86360000D01*
X170883996Y-86068395D01*
X170783948Y-85918663D01*
X170718816Y-85821185D01*
X170083815Y-85186185D01*
X169836605Y-85021004D01*
X169545000Y-84963000D01*
X168797549Y-84963000D01*
X168793162Y-84939683D01*
X168654090Y-84723559D01*
X168441890Y-84578569D01*
X168202049Y-84530000D01*
X196140000Y-84530000D01*
X196140000Y-111571810D01*
X196134659Y-111566460D01*
X195775370Y-111417270D01*
X195386337Y-111416931D01*
X195108161Y-111531870D01*
X195189093Y-111125000D01*
X195076054Y-110556715D01*
X194754147Y-110074946D01*
X194272378Y-109753039D01*
X193704093Y-109640000D01*
X193645907Y-109640000D01*
X193077622Y-109753039D01*
X192595853Y-110074946D01*
X192403382Y-110363000D01*
X191756083Y-110363000D01*
X191689659Y-110296460D01*
X191330370Y-110147270D01*
X190941337Y-110146931D01*
X190581788Y-110295493D01*
X190306460Y-110570341D01*
X190157270Y-110929630D01*
X190156931Y-111318663D01*
X190305493Y-111678212D01*
X190580341Y-111953540D01*
X190939630Y-112102730D01*
X191328663Y-112103069D01*
X191688212Y-111954507D01*
X191755837Y-111887000D01*
X192403382Y-111887000D01*
X192595853Y-112175054D01*
X192925026Y-112395000D01*
X192595853Y-112614946D01*
X192273946Y-113096715D01*
X192160907Y-113665000D01*
X192273946Y-114233285D01*
X192595853Y-114715054D01*
X192925026Y-114935000D01*
X192595853Y-115154946D01*
X192403382Y-115443000D01*
X192113011Y-115443000D01*
X192113069Y-115376337D01*
X191964507Y-115016788D01*
X191689659Y-114741460D01*
X191330370Y-114592270D01*
X190941337Y-114591931D01*
X190581788Y-114740493D01*
X190306460Y-115015341D01*
X190157270Y-115374630D01*
X190156931Y-115763663D01*
X190226111Y-115931092D01*
X190060370Y-115862270D01*
X189671337Y-115861931D01*
X189311788Y-116010493D01*
X189036460Y-116285341D01*
X188887270Y-116644630D01*
X188887210Y-116713000D01*
X188832440Y-116713000D01*
X188832440Y-116200000D01*
X188788162Y-115964683D01*
X188649090Y-115748559D01*
X188436890Y-115603569D01*
X188185000Y-115552560D01*
X186625000Y-115552560D01*
X186389683Y-115596838D01*
X186173559Y-115735910D01*
X186121240Y-115812482D01*
X186078395Y-115821004D01*
X186020570Y-115859642D01*
X185949090Y-115748559D01*
X185736890Y-115603569D01*
X185485000Y-115552560D01*
X183925000Y-115552560D01*
X183689683Y-115596838D01*
X183473559Y-115735910D01*
X183328569Y-115948110D01*
X183277560Y-116200000D01*
X183277560Y-116850000D01*
X183321838Y-117085317D01*
X183460910Y-117301441D01*
X183673110Y-117446431D01*
X183810120Y-117474176D01*
X183689683Y-117496838D01*
X183473559Y-117635910D01*
X183455049Y-117663000D01*
X182875631Y-117663000D01*
X182243815Y-117031185D01*
X181996605Y-116866004D01*
X181705000Y-116808000D01*
X179932440Y-116808000D01*
X179932440Y-116570000D01*
X179888162Y-116334683D01*
X179749090Y-116118559D01*
X179536890Y-115973569D01*
X179285000Y-115922560D01*
X177585000Y-115922560D01*
X177349683Y-115966838D01*
X177133559Y-116105910D01*
X176988569Y-116318110D01*
X176937560Y-116570000D01*
X176937560Y-118570000D01*
X176981838Y-118805317D01*
X177120910Y-119021441D01*
X177333110Y-119166431D01*
X177585000Y-119217440D01*
X179285000Y-119217440D01*
X179520317Y-119173162D01*
X179736441Y-119034090D01*
X179881431Y-118821890D01*
X179932440Y-118570000D01*
X179932440Y-118332000D01*
X181389370Y-118332000D01*
X182021185Y-118963816D01*
X182268396Y-119128997D01*
X182560000Y-119187000D01*
X183451617Y-119187000D01*
X183460910Y-119201441D01*
X183536369Y-119253000D01*
X180340000Y-119253000D01*
X180048395Y-119311004D01*
X179919035Y-119397440D01*
X179801185Y-119476185D01*
X179071185Y-120206185D01*
X178906004Y-120453395D01*
X178902192Y-120472560D01*
X178610000Y-120472560D01*
X178374683Y-120516838D01*
X178158559Y-120655910D01*
X178013569Y-120868110D01*
X177962560Y-121120000D01*
X177962560Y-122720000D01*
X178006838Y-122955317D01*
X178145910Y-123171441D01*
X178358110Y-123316431D01*
X178610000Y-123367440D01*
X178848000Y-123367440D01*
X178848000Y-124282560D01*
X178610000Y-124282560D01*
X178374683Y-124326838D01*
X178158559Y-124465910D01*
X178013569Y-124678110D01*
X177962560Y-124930000D01*
X177962560Y-124968000D01*
X173346964Y-124968000D01*
X173135054Y-124650853D01*
X172653285Y-124328946D01*
X172085000Y-124215907D01*
X171516715Y-124328946D01*
X171034946Y-124650853D01*
X171007150Y-124692452D01*
X170998162Y-124644683D01*
X170859090Y-124428559D01*
X170646890Y-124283569D01*
X170395000Y-124232560D01*
X168695000Y-124232560D01*
X168459683Y-124276838D01*
X168243559Y-124415910D01*
X168098569Y-124628110D01*
X168047560Y-124880000D01*
X168047560Y-126580000D01*
X168091838Y-126815317D01*
X168230910Y-127031441D01*
X168443110Y-127176431D01*
X168695000Y-127227440D01*
X170395000Y-127227440D01*
X170630317Y-127183162D01*
X170846441Y-127044090D01*
X170991431Y-126831890D01*
X171005086Y-126764459D01*
X171034946Y-126809147D01*
X171516715Y-127131054D01*
X172085000Y-127244093D01*
X172653285Y-127131054D01*
X173135054Y-126809147D01*
X173346964Y-126492000D01*
X177962560Y-126492000D01*
X177962560Y-126530000D01*
X178006838Y-126765317D01*
X178145910Y-126981441D01*
X178358110Y-127126431D01*
X178610000Y-127177440D01*
X180610000Y-127177440D01*
X180845317Y-127133162D01*
X181061441Y-126994090D01*
X181206431Y-126781890D01*
X181257440Y-126530000D01*
X181257440Y-124930000D01*
X181962560Y-124930000D01*
X181962560Y-126530000D01*
X182006838Y-126765317D01*
X182145910Y-126981441D01*
X182358110Y-127126431D01*
X182610000Y-127177440D01*
X184610000Y-127177440D01*
X184845317Y-127133162D01*
X185061441Y-126994090D01*
X185206431Y-126781890D01*
X185257440Y-126530000D01*
X185257440Y-126313166D01*
X185323815Y-126268815D01*
X186154644Y-125437987D01*
X186248663Y-125438069D01*
X186608212Y-125289507D01*
X186883540Y-125014659D01*
X187032730Y-124655370D01*
X187033069Y-124266337D01*
X186884507Y-123906788D01*
X186609659Y-123631460D01*
X186250370Y-123482270D01*
X185861337Y-123481931D01*
X185501788Y-123630493D01*
X185226460Y-123905341D01*
X185077270Y-124264630D01*
X185077187Y-124360183D01*
X185005605Y-124431765D01*
X184861890Y-124333569D01*
X184610000Y-124282560D01*
X182610000Y-124282560D01*
X182374683Y-124326838D01*
X182158559Y-124465910D01*
X182013569Y-124678110D01*
X181962560Y-124930000D01*
X181257440Y-124930000D01*
X181213162Y-124694683D01*
X181074090Y-124478559D01*
X180861890Y-124333569D01*
X180610000Y-124282560D01*
X180372000Y-124282560D01*
X180372000Y-123367440D01*
X180610000Y-123367440D01*
X180845317Y-123323162D01*
X181061441Y-123184090D01*
X181206431Y-122971890D01*
X181257440Y-122720000D01*
X181257440Y-121120000D01*
X181213162Y-120884683D01*
X181143870Y-120777000D01*
X182075822Y-120777000D01*
X182013569Y-120868110D01*
X181962560Y-121120000D01*
X181962560Y-122720000D01*
X182006838Y-122955317D01*
X182145910Y-123171441D01*
X182358110Y-123316431D01*
X182610000Y-123367440D01*
X184610000Y-123367440D01*
X184845317Y-123323162D01*
X185061441Y-123184090D01*
X185206431Y-122971890D01*
X185257440Y-122720000D01*
X185257440Y-122503166D01*
X185323815Y-122458815D01*
X186154644Y-121627987D01*
X186248663Y-121628069D01*
X186608212Y-121479507D01*
X186883540Y-121204659D01*
X187032730Y-120845370D01*
X187033069Y-120456337D01*
X186884507Y-120096788D01*
X186609659Y-119821460D01*
X186250370Y-119672270D01*
X186205400Y-119672231D01*
X186504577Y-119373054D01*
X186625000Y-119397440D01*
X187356236Y-119397440D01*
X187433395Y-119448996D01*
X187725000Y-119507000D01*
X192403382Y-119507000D01*
X192595853Y-119795054D01*
X192925026Y-120015000D01*
X192595853Y-120234946D01*
X192403382Y-120523000D01*
X191756083Y-120523000D01*
X191689659Y-120456460D01*
X191330370Y-120307270D01*
X190941337Y-120306931D01*
X190581788Y-120455493D01*
X190306460Y-120730341D01*
X190157270Y-121089630D01*
X190156931Y-121478663D01*
X190305493Y-121838212D01*
X190580341Y-122113540D01*
X190939630Y-122262730D01*
X191328663Y-122263069D01*
X191688212Y-122114507D01*
X191755837Y-122047000D01*
X192403382Y-122047000D01*
X192595853Y-122335054D01*
X192637452Y-122362850D01*
X192589683Y-122371838D01*
X192373559Y-122510910D01*
X192228569Y-122723110D01*
X192177560Y-122975000D01*
X192177560Y-124675000D01*
X192221838Y-124910317D01*
X192360910Y-125126441D01*
X192573110Y-125271431D01*
X192825000Y-125322440D01*
X194525000Y-125322440D01*
X194760317Y-125278162D01*
X194976441Y-125139090D01*
X195121431Y-124926890D01*
X195172440Y-124675000D01*
X195172440Y-122975000D01*
X195128162Y-122739683D01*
X194989090Y-122523559D01*
X194776890Y-122378569D01*
X194709459Y-122364914D01*
X194754147Y-122335054D01*
X195076054Y-121853285D01*
X195189093Y-121285000D01*
X195076054Y-120716715D01*
X194754147Y-120234946D01*
X194424974Y-120015000D01*
X194754147Y-119795054D01*
X195076054Y-119313285D01*
X195189093Y-118745000D01*
X195076054Y-118176715D01*
X194754147Y-117694946D01*
X194424974Y-117475000D01*
X194754147Y-117255054D01*
X195076054Y-116773285D01*
X195189093Y-116205000D01*
X195076054Y-115636715D01*
X194754147Y-115154946D01*
X194424974Y-114935000D01*
X194754147Y-114715054D01*
X195076054Y-114233285D01*
X195139796Y-113912835D01*
X195679644Y-113372987D01*
X195773663Y-113373069D01*
X196133212Y-113224507D01*
X196140000Y-113217731D01*
X196140000Y-127560000D01*
X153110000Y-127560000D01*
X153110000Y-122840750D01*
X156230000Y-122840750D01*
X156230000Y-123931310D01*
X156326673Y-124164699D01*
X156505302Y-124343327D01*
X156738691Y-124440000D01*
X157829250Y-124440000D01*
X157988000Y-124281250D01*
X157988000Y-122682000D01*
X158242000Y-122682000D01*
X158242000Y-124281250D01*
X158400750Y-124440000D01*
X159491309Y-124440000D01*
X159724698Y-124343327D01*
X159903327Y-124164699D01*
X160000000Y-123931310D01*
X160000000Y-122840750D01*
X159841250Y-122682000D01*
X158242000Y-122682000D01*
X157988000Y-122682000D01*
X156388750Y-122682000D01*
X156230000Y-122840750D01*
X153110000Y-122840750D01*
X153110000Y-121178690D01*
X156230000Y-121178690D01*
X156230000Y-122269250D01*
X156388750Y-122428000D01*
X157988000Y-122428000D01*
X157988000Y-120828750D01*
X158242000Y-120828750D01*
X158242000Y-122428000D01*
X159841250Y-122428000D01*
X160000000Y-122269250D01*
X160000000Y-121178690D01*
X159903327Y-120945301D01*
X159724698Y-120766673D01*
X159491309Y-120670000D01*
X158400750Y-120670000D01*
X158242000Y-120828750D01*
X157988000Y-120828750D01*
X157829250Y-120670000D01*
X156738691Y-120670000D01*
X156505302Y-120766673D01*
X156326673Y-120945301D01*
X156230000Y-121178690D01*
X153110000Y-121178690D01*
X153110000Y-111125000D01*
X153543000Y-111125000D01*
X153543000Y-114300000D01*
X153601004Y-114591605D01*
X153745596Y-114808001D01*
X153766185Y-114838815D01*
X154401185Y-115473816D01*
X154549377Y-115572834D01*
X154648395Y-115638996D01*
X154940000Y-115697000D01*
X155737560Y-115697000D01*
X155737560Y-115785000D01*
X155781838Y-116020317D01*
X155920910Y-116236441D01*
X156133110Y-116381431D01*
X156385000Y-116432440D01*
X158385000Y-116432440D01*
X158620317Y-116388162D01*
X158836441Y-116249090D01*
X158981431Y-116036890D01*
X159032440Y-115785000D01*
X159032440Y-114085000D01*
X158991295Y-113866335D01*
X159065631Y-113792000D01*
X159816658Y-113792000D01*
X159788569Y-113833110D01*
X159737560Y-114085000D01*
X159737560Y-115785000D01*
X159781838Y-116020317D01*
X159920910Y-116236441D01*
X160133110Y-116381431D01*
X160385000Y-116432440D01*
X160623000Y-116432440D01*
X160623000Y-120825000D01*
X160681004Y-121116605D01*
X160846185Y-121363815D01*
X161356623Y-121874253D01*
X161230328Y-122178405D01*
X161229674Y-122928305D01*
X161516043Y-123621372D01*
X162045839Y-124152093D01*
X162738405Y-124439672D01*
X163488305Y-124440326D01*
X164181372Y-124153957D01*
X164712093Y-123624161D01*
X164839638Y-123317000D01*
X167005000Y-123317000D01*
X167296605Y-123258996D01*
X167543815Y-123093815D01*
X169988815Y-120648815D01*
X170153996Y-120401605D01*
X170172828Y-120306931D01*
X170185656Y-120242440D01*
X170450000Y-120242440D01*
X170685317Y-120198162D01*
X170901441Y-120059090D01*
X171046431Y-119846890D01*
X171097440Y-119595000D01*
X171097440Y-117895000D01*
X171802560Y-117895000D01*
X171802560Y-119595000D01*
X171846838Y-119830317D01*
X171985910Y-120046441D01*
X172198110Y-120191431D01*
X172450000Y-120242440D01*
X172688000Y-120242440D01*
X172688000Y-120569083D01*
X172526460Y-120730341D01*
X172377270Y-121089630D01*
X172376931Y-121478663D01*
X172525493Y-121838212D01*
X172800341Y-122113540D01*
X173159630Y-122262730D01*
X173548663Y-122263069D01*
X173908212Y-122114507D01*
X174183540Y-121839659D01*
X174332730Y-121480370D01*
X174333069Y-121091337D01*
X174212000Y-120798326D01*
X174212000Y-120242440D01*
X174450000Y-120242440D01*
X174685317Y-120198162D01*
X174901441Y-120059090D01*
X175046431Y-119846890D01*
X175097440Y-119595000D01*
X175097440Y-117895000D01*
X175053162Y-117659683D01*
X174914090Y-117443559D01*
X174701890Y-117298569D01*
X174450000Y-117247560D01*
X172450000Y-117247560D01*
X172214683Y-117291838D01*
X171998559Y-117430910D01*
X171853569Y-117643110D01*
X171802560Y-117895000D01*
X171097440Y-117895000D01*
X171053162Y-117659683D01*
X170914090Y-117443559D01*
X170701890Y-117298569D01*
X170450000Y-117247560D01*
X168450000Y-117247560D01*
X168214683Y-117291838D01*
X167998559Y-117430910D01*
X167853569Y-117643110D01*
X167802560Y-117895000D01*
X167802560Y-119595000D01*
X167846838Y-119830317D01*
X167985910Y-120046441D01*
X168198110Y-120191431D01*
X168275306Y-120207064D01*
X166689370Y-121793000D01*
X164839721Y-121793000D01*
X164713957Y-121488628D01*
X164184161Y-120957907D01*
X163491595Y-120670328D01*
X162741695Y-120669674D01*
X162434312Y-120796682D01*
X162147000Y-120509370D01*
X162147000Y-116432440D01*
X162385000Y-116432440D01*
X162620317Y-116388162D01*
X162836441Y-116249090D01*
X162981431Y-116036890D01*
X163032440Y-115785000D01*
X163032440Y-114085000D01*
X162988162Y-113849683D01*
X162951044Y-113792000D01*
X168437560Y-113792000D01*
X168437560Y-115100000D01*
X168481838Y-115335317D01*
X168620910Y-115551441D01*
X168833110Y-115696431D01*
X169085000Y-115747440D01*
X171085000Y-115747440D01*
X171320317Y-115703162D01*
X171536441Y-115564090D01*
X171681431Y-115351890D01*
X171732440Y-115100000D01*
X171732440Y-113500000D01*
X171688162Y-113264683D01*
X171549090Y-113048559D01*
X171336890Y-112903569D01*
X171085000Y-112852560D01*
X169715190Y-112852560D01*
X169451293Y-112588663D01*
X172376931Y-112588663D01*
X172525493Y-112948212D01*
X172625221Y-113048114D01*
X172488569Y-113248110D01*
X172437560Y-113500000D01*
X172437560Y-115100000D01*
X172481838Y-115335317D01*
X172620910Y-115551441D01*
X172833110Y-115696431D01*
X173085000Y-115747440D01*
X175085000Y-115747440D01*
X175320317Y-115703162D01*
X175536441Y-115564090D01*
X175681431Y-115351890D01*
X175732440Y-115100000D01*
X175732440Y-113855750D01*
X176950000Y-113855750D01*
X176950000Y-114696309D01*
X177046673Y-114929698D01*
X177225301Y-115108327D01*
X177458690Y-115205000D01*
X178149250Y-115205000D01*
X178308000Y-115046250D01*
X178308000Y-113697000D01*
X178562000Y-113697000D01*
X178562000Y-115046250D01*
X178720750Y-115205000D01*
X179411310Y-115205000D01*
X179644699Y-115108327D01*
X179823327Y-114929698D01*
X179920000Y-114696309D01*
X179920000Y-113950750D01*
X181785000Y-113950750D01*
X181785000Y-114591310D01*
X181881673Y-114824699D01*
X182060302Y-115003327D01*
X182293691Y-115100000D01*
X183134250Y-115100000D01*
X183293000Y-114941250D01*
X183293000Y-113792000D01*
X183547000Y-113792000D01*
X183547000Y-114941250D01*
X183705750Y-115100000D01*
X184546309Y-115100000D01*
X184779698Y-115003327D01*
X184958327Y-114824699D01*
X185055000Y-114591310D01*
X185055000Y-113950750D01*
X184896250Y-113792000D01*
X183547000Y-113792000D01*
X183293000Y-113792000D01*
X181943750Y-113792000D01*
X181785000Y-113950750D01*
X179920000Y-113950750D01*
X179920000Y-113855750D01*
X179761250Y-113697000D01*
X178562000Y-113697000D01*
X178308000Y-113697000D01*
X177108750Y-113697000D01*
X176950000Y-113855750D01*
X175732440Y-113855750D01*
X175732440Y-113500000D01*
X175688162Y-113264683D01*
X175549090Y-113048559D01*
X175336890Y-112903569D01*
X175085000Y-112852560D01*
X174792808Y-112852560D01*
X174788996Y-112833395D01*
X174623815Y-112586185D01*
X174481321Y-112443691D01*
X176950000Y-112443691D01*
X176950000Y-113284250D01*
X177108750Y-113443000D01*
X178308000Y-113443000D01*
X178308000Y-112093750D01*
X178562000Y-112093750D01*
X178562000Y-113443000D01*
X179761250Y-113443000D01*
X179920000Y-113284250D01*
X179920000Y-112738690D01*
X181785000Y-112738690D01*
X181785000Y-113379250D01*
X181943750Y-113538000D01*
X183293000Y-113538000D01*
X183293000Y-112388750D01*
X183547000Y-112388750D01*
X183547000Y-113538000D01*
X184896250Y-113538000D01*
X185055000Y-113379250D01*
X185055000Y-113223663D01*
X185711931Y-113223663D01*
X185772560Y-113370397D01*
X185772560Y-114465000D01*
X185816838Y-114700317D01*
X185955910Y-114916441D01*
X186168110Y-115061431D01*
X186420000Y-115112440D01*
X188420000Y-115112440D01*
X188655317Y-115068162D01*
X188871441Y-114929090D01*
X189016431Y-114716890D01*
X189067440Y-114465000D01*
X189067440Y-112865000D01*
X189023162Y-112629683D01*
X188884090Y-112413559D01*
X188671890Y-112268569D01*
X188420000Y-112217560D01*
X187260731Y-112217560D01*
X187244659Y-112201460D01*
X186885370Y-112052270D01*
X186496337Y-112051931D01*
X186136788Y-112200493D01*
X185861460Y-112475341D01*
X185712270Y-112834630D01*
X185711931Y-113223663D01*
X185055000Y-113223663D01*
X185055000Y-112738690D01*
X184958327Y-112505301D01*
X184779698Y-112326673D01*
X184546309Y-112230000D01*
X183705750Y-112230000D01*
X183547000Y-112388750D01*
X183293000Y-112388750D01*
X183134250Y-112230000D01*
X182293691Y-112230000D01*
X182060302Y-112326673D01*
X181881673Y-112505301D01*
X181785000Y-112738690D01*
X179920000Y-112738690D01*
X179920000Y-112443691D01*
X179823327Y-112210302D01*
X179644699Y-112031673D01*
X179411310Y-111935000D01*
X178720750Y-111935000D01*
X178562000Y-112093750D01*
X178308000Y-112093750D01*
X178149250Y-111935000D01*
X177458690Y-111935000D01*
X177225301Y-112031673D01*
X177046673Y-112210302D01*
X176950000Y-112443691D01*
X174481321Y-112443691D01*
X174332987Y-112295357D01*
X174333069Y-112201337D01*
X174184507Y-111841788D01*
X173909659Y-111566460D01*
X173550370Y-111417270D01*
X173161337Y-111416931D01*
X172801788Y-111565493D01*
X172526460Y-111840341D01*
X172377270Y-112199630D01*
X172376931Y-112588663D01*
X169451293Y-112588663D01*
X169353815Y-112491185D01*
X169248782Y-112421004D01*
X169106605Y-112326004D01*
X168815000Y-112268000D01*
X160635973Y-112268000D01*
X160696441Y-112229090D01*
X160714951Y-112202000D01*
X164055000Y-112202000D01*
X164346605Y-112143996D01*
X164580907Y-111987440D01*
X166005000Y-111987440D01*
X166240317Y-111943162D01*
X166456441Y-111804090D01*
X166601431Y-111591890D01*
X166652440Y-111340000D01*
X166652440Y-109640000D01*
X166608162Y-109404683D01*
X166469090Y-109188559D01*
X166256890Y-109043569D01*
X166005000Y-108992560D01*
X164005000Y-108992560D01*
X163769683Y-109036838D01*
X163553559Y-109175910D01*
X163408569Y-109388110D01*
X163357560Y-109640000D01*
X163357560Y-110678000D01*
X160718383Y-110678000D01*
X160709090Y-110663559D01*
X160496890Y-110518569D01*
X160382435Y-110495391D01*
X160604698Y-110403327D01*
X160783327Y-110224699D01*
X160880000Y-109991310D01*
X160880000Y-109825750D01*
X160721250Y-109667000D01*
X159592000Y-109667000D01*
X159592000Y-109687000D01*
X159338000Y-109687000D01*
X159338000Y-109667000D01*
X159318000Y-109667000D01*
X159318000Y-109413000D01*
X159338000Y-109413000D01*
X159338000Y-108738750D01*
X159592000Y-108738750D01*
X159592000Y-109413000D01*
X160721250Y-109413000D01*
X160880000Y-109254250D01*
X160880000Y-109088690D01*
X160783327Y-108855301D01*
X160604698Y-108676673D01*
X160371309Y-108580000D01*
X159750750Y-108580000D01*
X159592000Y-108738750D01*
X159338000Y-108738750D01*
X159179250Y-108580000D01*
X158558691Y-108580000D01*
X158325302Y-108676673D01*
X158146673Y-108855301D01*
X158115912Y-108929565D01*
X158009090Y-108763559D01*
X157796890Y-108618569D01*
X157545000Y-108567560D01*
X155985000Y-108567560D01*
X155749683Y-108611838D01*
X155533559Y-108750910D01*
X155388569Y-108963110D01*
X155337560Y-109215000D01*
X155337560Y-109728000D01*
X154940000Y-109728000D01*
X154648395Y-109786004D01*
X154549377Y-109852166D01*
X154401185Y-109951184D01*
X153766185Y-110586185D01*
X153601004Y-110833395D01*
X153543000Y-111125000D01*
X153110000Y-111125000D01*
X153110000Y-106425750D01*
X153455000Y-106425750D01*
X153455000Y-107266309D01*
X153551673Y-107499698D01*
X153730301Y-107678327D01*
X153963690Y-107775000D01*
X154654250Y-107775000D01*
X154813000Y-107616250D01*
X154813000Y-106267000D01*
X155067000Y-106267000D01*
X155067000Y-107616250D01*
X155225750Y-107775000D01*
X155916310Y-107775000D01*
X156149699Y-107678327D01*
X156328327Y-107499698D01*
X156425000Y-107266309D01*
X156425000Y-106425750D01*
X156266250Y-106267000D01*
X155067000Y-106267000D01*
X154813000Y-106267000D01*
X153613750Y-106267000D01*
X153455000Y-106425750D01*
X153110000Y-106425750D01*
X153110000Y-105013691D01*
X153455000Y-105013691D01*
X153455000Y-105854250D01*
X153613750Y-106013000D01*
X154813000Y-106013000D01*
X154813000Y-104663750D01*
X155067000Y-104663750D01*
X155067000Y-106013000D01*
X156266250Y-106013000D01*
X156425000Y-105854250D01*
X156425000Y-105013691D01*
X156328327Y-104780302D01*
X156158026Y-104610000D01*
X159547560Y-104610000D01*
X159547560Y-106210000D01*
X159591838Y-106445317D01*
X159730910Y-106661441D01*
X159943110Y-106806431D01*
X160195000Y-106857440D01*
X160433000Y-106857440D01*
X160433000Y-107220000D01*
X160491004Y-107511605D01*
X160653389Y-107754630D01*
X160656185Y-107758815D01*
X160947013Y-108049643D01*
X160946931Y-108143663D01*
X161095493Y-108503212D01*
X161370341Y-108778540D01*
X161729630Y-108927730D01*
X162118663Y-108928069D01*
X162478212Y-108779507D01*
X162753540Y-108504659D01*
X162902730Y-108145370D01*
X162903069Y-107756337D01*
X162754507Y-107396788D01*
X162479659Y-107121460D01*
X162120370Y-106972270D01*
X162024817Y-106972187D01*
X161957000Y-106904370D01*
X161957000Y-106857440D01*
X162195000Y-106857440D01*
X162430317Y-106813162D01*
X162646441Y-106674090D01*
X162791431Y-106461890D01*
X162842440Y-106210000D01*
X162842440Y-105695750D01*
X163560000Y-105695750D01*
X163560000Y-106336310D01*
X163656673Y-106569699D01*
X163835302Y-106748327D01*
X164068691Y-106845000D01*
X164909250Y-106845000D01*
X165068000Y-106686250D01*
X165068000Y-105537000D01*
X165322000Y-105537000D01*
X165322000Y-106686250D01*
X165480750Y-106845000D01*
X166321309Y-106845000D01*
X166554698Y-106748327D01*
X166733327Y-106569699D01*
X166830000Y-106336310D01*
X166830000Y-105695750D01*
X166671250Y-105537000D01*
X165322000Y-105537000D01*
X165068000Y-105537000D01*
X163718750Y-105537000D01*
X163560000Y-105695750D01*
X162842440Y-105695750D01*
X162842440Y-104610000D01*
X162818674Y-104483690D01*
X163560000Y-104483690D01*
X163560000Y-105124250D01*
X163718750Y-105283000D01*
X165068000Y-105283000D01*
X165068000Y-104133750D01*
X165322000Y-104133750D01*
X165322000Y-105283000D01*
X166671250Y-105283000D01*
X166830000Y-105124250D01*
X166830000Y-104483690D01*
X166733327Y-104250301D01*
X166554698Y-104071673D01*
X166321309Y-103975000D01*
X165480750Y-103975000D01*
X165322000Y-104133750D01*
X165068000Y-104133750D01*
X164909250Y-103975000D01*
X164068691Y-103975000D01*
X163835302Y-104071673D01*
X163656673Y-104250301D01*
X163560000Y-104483690D01*
X162818674Y-104483690D01*
X162798162Y-104374683D01*
X162659090Y-104158559D01*
X162446890Y-104013569D01*
X162195000Y-103962560D01*
X160195000Y-103962560D01*
X159959683Y-104006838D01*
X159743559Y-104145910D01*
X159598569Y-104358110D01*
X159547560Y-104610000D01*
X156158026Y-104610000D01*
X156149699Y-104601673D01*
X155916310Y-104505000D01*
X155225750Y-104505000D01*
X155067000Y-104663750D01*
X154813000Y-104663750D01*
X154654250Y-104505000D01*
X153963690Y-104505000D01*
X153730301Y-104601673D01*
X153551673Y-104780302D01*
X153455000Y-105013691D01*
X153110000Y-105013691D01*
X153110000Y-95087213D01*
X157314392Y-95087213D01*
X157383857Y-95329397D01*
X157907302Y-95516144D01*
X158462368Y-95488362D01*
X158846143Y-95329397D01*
X158915608Y-95087213D01*
X158115000Y-94286605D01*
X157314392Y-95087213D01*
X153110000Y-95087213D01*
X153110000Y-93899302D01*
X156705856Y-93899302D01*
X156733638Y-94454368D01*
X156892603Y-94838143D01*
X157134787Y-94907608D01*
X157935395Y-94107000D01*
X158294605Y-94107000D01*
X159095213Y-94907608D01*
X159337397Y-94838143D01*
X159524144Y-94314698D01*
X159496362Y-93759632D01*
X159337397Y-93375857D01*
X159095213Y-93306392D01*
X158294605Y-94107000D01*
X157935395Y-94107000D01*
X157134787Y-93306392D01*
X156892603Y-93375857D01*
X156705856Y-93899302D01*
X153110000Y-93899302D01*
X153110000Y-93126787D01*
X157314392Y-93126787D01*
X158115000Y-93927395D01*
X158915608Y-93126787D01*
X158846143Y-92884603D01*
X158322698Y-92697856D01*
X157767632Y-92725638D01*
X157383857Y-92884603D01*
X157314392Y-93126787D01*
X153110000Y-93126787D01*
X153110000Y-84530000D01*
X156487188Y-84530000D01*
X156423569Y-84623110D01*
M02*
