G04 #@! TF.FileFunction,Legend,Top*
%FSLAX46Y46*%
G04 Gerber Fmt 4.6, Leading zero omitted, Abs format (unit mm)*
G04 Created by KiCad (PCBNEW 4.0.5) date 2017 May 14, Sunday 15:17:58*
%MOMM*%
%LPD*%
G01*
G04 APERTURE LIST*
%ADD10C,0.100000*%
%ADD11C,0.300000*%
%ADD12C,0.250000*%
%ADD13C,0.152400*%
%ADD14C,0.150000*%
%ADD15C,0.120000*%
%ADD16R,2.900000X1.500000*%
%ADD17O,2.900000X1.500000*%
%ADD18C,1.924000*%
%ADD19R,2.400000X2.000000*%
%ADD20R,2.900000X2.900000*%
%ADD21C,2.900000*%
%ADD22R,2.100000X2.100000*%
%ADD23O,2.100000X2.100000*%
%ADD24R,2.400000X2.100000*%
%ADD25R,1.960000X1.050000*%
%ADD26R,2.100000X2.400000*%
%ADD27C,3.600000*%
G04 APERTURE END LIST*
D10*
D11*
X153732144Y-107993571D02*
X153732144Y-106493571D01*
X153732144Y-107065000D02*
X153875001Y-106993571D01*
X154160715Y-106993571D01*
X154303572Y-107065000D01*
X154375001Y-107136429D01*
X154446430Y-107279286D01*
X154446430Y-107707857D01*
X154375001Y-107850714D01*
X154303572Y-107922143D01*
X154160715Y-107993571D01*
X153875001Y-107993571D01*
X153732144Y-107922143D01*
X155660715Y-107922143D02*
X155517858Y-107993571D01*
X155232144Y-107993571D01*
X155089287Y-107922143D01*
X155017858Y-107779286D01*
X155017858Y-107207857D01*
X155089287Y-107065000D01*
X155232144Y-106993571D01*
X155517858Y-106993571D01*
X155660715Y-107065000D01*
X155732144Y-107207857D01*
X155732144Y-107350714D01*
X155017858Y-107493571D01*
X156589287Y-107993571D02*
X156446429Y-107922143D01*
X156375001Y-107779286D01*
X156375001Y-106493571D01*
X157375001Y-107993571D02*
X157232143Y-107922143D01*
X157160715Y-107779286D01*
X157160715Y-106493571D01*
X158517857Y-107922143D02*
X158375000Y-107993571D01*
X158089286Y-107993571D01*
X157946429Y-107922143D01*
X157875000Y-107779286D01*
X157875000Y-107207857D01*
X157946429Y-107065000D01*
X158089286Y-106993571D01*
X158375000Y-106993571D01*
X158517857Y-107065000D01*
X158589286Y-107207857D01*
X158589286Y-107350714D01*
X157875000Y-107493571D01*
X160232143Y-106993571D02*
X160589286Y-107993571D01*
X160946428Y-106993571D01*
X162303571Y-107993571D02*
X161446428Y-107993571D01*
X161875000Y-107993571D02*
X161875000Y-106493571D01*
X161732143Y-106707857D01*
X161589285Y-106850714D01*
X161446428Y-106922143D01*
X162946428Y-107850714D02*
X163017856Y-107922143D01*
X162946428Y-107993571D01*
X162874999Y-107922143D01*
X162946428Y-107850714D01*
X162946428Y-107993571D01*
X163946428Y-106493571D02*
X164089285Y-106493571D01*
X164232142Y-106565000D01*
X164303571Y-106636429D01*
X164375000Y-106779286D01*
X164446428Y-107065000D01*
X164446428Y-107422143D01*
X164375000Y-107707857D01*
X164303571Y-107850714D01*
X164232142Y-107922143D01*
X164089285Y-107993571D01*
X163946428Y-107993571D01*
X163803571Y-107922143D01*
X163732142Y-107850714D01*
X163660714Y-107707857D01*
X163589285Y-107422143D01*
X163589285Y-107065000D01*
X163660714Y-106779286D01*
X163732142Y-106636429D01*
X163803571Y-106565000D01*
X163946428Y-106493571D01*
X166874999Y-106993571D02*
X166874999Y-108207857D01*
X166803570Y-108350714D01*
X166732142Y-108422143D01*
X166589285Y-108493571D01*
X166374999Y-108493571D01*
X166232142Y-108422143D01*
X166874999Y-107922143D02*
X166732142Y-107993571D01*
X166446428Y-107993571D01*
X166303570Y-107922143D01*
X166232142Y-107850714D01*
X166160713Y-107707857D01*
X166160713Y-107279286D01*
X166232142Y-107136429D01*
X166303570Y-107065000D01*
X166446428Y-106993571D01*
X166732142Y-106993571D01*
X166874999Y-107065000D01*
X167589285Y-107993571D02*
X167589285Y-106993571D01*
X167589285Y-106493571D02*
X167517856Y-106565000D01*
X167589285Y-106636429D01*
X167660713Y-106565000D01*
X167589285Y-106493571D01*
X167589285Y-106636429D01*
X168089285Y-106993571D02*
X168660714Y-106993571D01*
X168303571Y-106493571D02*
X168303571Y-107779286D01*
X168374999Y-107922143D01*
X168517857Y-107993571D01*
X168660714Y-107993571D01*
X169160714Y-107993571D02*
X169160714Y-106493571D01*
X169803571Y-107993571D02*
X169803571Y-107207857D01*
X169732142Y-107065000D01*
X169589285Y-106993571D01*
X169375000Y-106993571D01*
X169232142Y-107065000D01*
X169160714Y-107136429D01*
X171160714Y-106993571D02*
X171160714Y-107993571D01*
X170517857Y-106993571D02*
X170517857Y-107779286D01*
X170589285Y-107922143D01*
X170732143Y-107993571D01*
X170946428Y-107993571D01*
X171089285Y-107922143D01*
X171160714Y-107850714D01*
X171875000Y-107993571D02*
X171875000Y-106493571D01*
X171875000Y-107065000D02*
X172017857Y-106993571D01*
X172303571Y-106993571D01*
X172446428Y-107065000D01*
X172517857Y-107136429D01*
X172589286Y-107279286D01*
X172589286Y-107707857D01*
X172517857Y-107850714D01*
X172446428Y-107922143D01*
X172303571Y-107993571D01*
X172017857Y-107993571D01*
X171875000Y-107922143D01*
X173232143Y-107850714D02*
X173303571Y-107922143D01*
X173232143Y-107993571D01*
X173160714Y-107922143D01*
X173232143Y-107850714D01*
X173232143Y-107993571D01*
X174589286Y-107922143D02*
X174446429Y-107993571D01*
X174160715Y-107993571D01*
X174017857Y-107922143D01*
X173946429Y-107850714D01*
X173875000Y-107707857D01*
X173875000Y-107279286D01*
X173946429Y-107136429D01*
X174017857Y-107065000D01*
X174160715Y-106993571D01*
X174446429Y-106993571D01*
X174589286Y-107065000D01*
X175446429Y-107993571D02*
X175303571Y-107922143D01*
X175232143Y-107850714D01*
X175160714Y-107707857D01*
X175160714Y-107279286D01*
X175232143Y-107136429D01*
X175303571Y-107065000D01*
X175446429Y-106993571D01*
X175660714Y-106993571D01*
X175803571Y-107065000D01*
X175875000Y-107136429D01*
X175946429Y-107279286D01*
X175946429Y-107707857D01*
X175875000Y-107850714D01*
X175803571Y-107922143D01*
X175660714Y-107993571D01*
X175446429Y-107993571D01*
X176589286Y-107993571D02*
X176589286Y-106993571D01*
X176589286Y-107136429D02*
X176660714Y-107065000D01*
X176803572Y-106993571D01*
X177017857Y-106993571D01*
X177160714Y-107065000D01*
X177232143Y-107207857D01*
X177232143Y-107993571D01*
X177232143Y-107207857D02*
X177303572Y-107065000D01*
X177446429Y-106993571D01*
X177660714Y-106993571D01*
X177803572Y-107065000D01*
X177875000Y-107207857D01*
X177875000Y-107993571D01*
X179660714Y-106422143D02*
X178375000Y-108350714D01*
X180089286Y-107922143D02*
X180232143Y-107993571D01*
X180517858Y-107993571D01*
X180660715Y-107922143D01*
X180732143Y-107779286D01*
X180732143Y-107707857D01*
X180660715Y-107565000D01*
X180517858Y-107493571D01*
X180303572Y-107493571D01*
X180160715Y-107422143D01*
X180089286Y-107279286D01*
X180089286Y-107207857D01*
X180160715Y-107065000D01*
X180303572Y-106993571D01*
X180517858Y-106993571D01*
X180660715Y-107065000D01*
X182017858Y-107993571D02*
X182017858Y-107207857D01*
X181946429Y-107065000D01*
X181803572Y-106993571D01*
X181517858Y-106993571D01*
X181375001Y-107065000D01*
X182017858Y-107922143D02*
X181875001Y-107993571D01*
X181517858Y-107993571D01*
X181375001Y-107922143D01*
X181303572Y-107779286D01*
X181303572Y-107636429D01*
X181375001Y-107493571D01*
X181517858Y-107422143D01*
X181875001Y-107422143D01*
X182017858Y-107350714D01*
X182589287Y-106993571D02*
X182946430Y-107993571D01*
X183303572Y-106993571D02*
X182946430Y-107993571D01*
X182803572Y-108350714D01*
X182732144Y-108422143D01*
X182589287Y-108493571D01*
X184517858Y-107993571D02*
X184517858Y-107207857D01*
X184446429Y-107065000D01*
X184303572Y-106993571D01*
X184017858Y-106993571D01*
X183875001Y-107065000D01*
X184517858Y-107922143D02*
X184375001Y-107993571D01*
X184017858Y-107993571D01*
X183875001Y-107922143D01*
X183803572Y-107779286D01*
X183803572Y-107636429D01*
X183875001Y-107493571D01*
X184017858Y-107422143D01*
X184375001Y-107422143D01*
X184517858Y-107350714D01*
X185232144Y-106993571D02*
X185232144Y-107993571D01*
X185232144Y-107136429D02*
X185303572Y-107065000D01*
X185446430Y-106993571D01*
X185660715Y-106993571D01*
X185803572Y-107065000D01*
X185875001Y-107207857D01*
X185875001Y-107993571D01*
X187160715Y-107922143D02*
X187017858Y-107993571D01*
X186732144Y-107993571D01*
X186589287Y-107922143D01*
X186517858Y-107779286D01*
X186517858Y-107207857D01*
X186589287Y-107065000D01*
X186732144Y-106993571D01*
X187017858Y-106993571D01*
X187160715Y-107065000D01*
X187232144Y-107207857D01*
X187232144Y-107350714D01*
X186517858Y-107493571D01*
X188446429Y-107922143D02*
X188303572Y-107993571D01*
X188017858Y-107993571D01*
X187875001Y-107922143D01*
X187803572Y-107779286D01*
X187803572Y-107207857D01*
X187875001Y-107065000D01*
X188017858Y-106993571D01*
X188303572Y-106993571D01*
X188446429Y-107065000D01*
X188517858Y-107207857D01*
X188517858Y-107350714D01*
X187803572Y-107493571D01*
X190232143Y-106422143D02*
X188946429Y-108350714D01*
X190732144Y-107993571D02*
X190732144Y-106493571D01*
X190732144Y-107065000D02*
X190875001Y-106993571D01*
X191160715Y-106993571D01*
X191303572Y-107065000D01*
X191375001Y-107136429D01*
X191446430Y-107279286D01*
X191446430Y-107707857D01*
X191375001Y-107850714D01*
X191303572Y-107922143D01*
X191160715Y-107993571D01*
X190875001Y-107993571D01*
X190732144Y-107922143D01*
X192660715Y-107922143D02*
X192517858Y-107993571D01*
X192232144Y-107993571D01*
X192089287Y-107922143D01*
X192017858Y-107779286D01*
X192017858Y-107207857D01*
X192089287Y-107065000D01*
X192232144Y-106993571D01*
X192517858Y-106993571D01*
X192660715Y-107065000D01*
X192732144Y-107207857D01*
X192732144Y-107350714D01*
X192017858Y-107493571D01*
X193589287Y-107993571D02*
X193446429Y-107922143D01*
X193375001Y-107779286D01*
X193375001Y-106493571D01*
X194375001Y-107993571D02*
X194232143Y-107922143D01*
X194160715Y-107779286D01*
X194160715Y-106493571D01*
X195517857Y-107922143D02*
X195375000Y-107993571D01*
X195089286Y-107993571D01*
X194946429Y-107922143D01*
X194875000Y-107779286D01*
X194875000Y-107207857D01*
X194946429Y-107065000D01*
X195089286Y-106993571D01*
X195375000Y-106993571D01*
X195517857Y-107065000D01*
X195589286Y-107207857D01*
X195589286Y-107350714D01*
X194875000Y-107493571D01*
X174053572Y-126472143D02*
X175196429Y-126472143D01*
X167576428Y-126472143D02*
X166433571Y-126472143D01*
X167005000Y-127043571D02*
X167005000Y-125900714D01*
D12*
X190627143Y-114117381D02*
X190293809Y-113641190D01*
X190055714Y-114117381D02*
X190055714Y-113117381D01*
X190436667Y-113117381D01*
X190531905Y-113165000D01*
X190579524Y-113212619D01*
X190627143Y-113307857D01*
X190627143Y-113450714D01*
X190579524Y-113545952D01*
X190531905Y-113593571D01*
X190436667Y-113641190D01*
X190055714Y-113641190D01*
X190960476Y-113117381D02*
X191627143Y-114117381D01*
X191627143Y-113117381D02*
X190960476Y-114117381D01*
X189357143Y-111577381D02*
X189357143Y-110577381D01*
X189595238Y-110577381D01*
X189738096Y-110625000D01*
X189833334Y-110720238D01*
X189880953Y-110815476D01*
X189928572Y-111005952D01*
X189928572Y-111148810D01*
X189880953Y-111339286D01*
X189833334Y-111434524D01*
X189738096Y-111529762D01*
X189595238Y-111577381D01*
X189357143Y-111577381D01*
X190214286Y-110577381D02*
X190785715Y-110577381D01*
X190500000Y-111577381D02*
X190500000Y-110577381D01*
X191690477Y-111577381D02*
X191357143Y-111101190D01*
X191119048Y-111577381D02*
X191119048Y-110577381D01*
X191500001Y-110577381D01*
X191595239Y-110625000D01*
X191642858Y-110672619D01*
X191690477Y-110767857D01*
X191690477Y-110910714D01*
X191642858Y-111005952D01*
X191595239Y-111053571D01*
X191500001Y-111101190D01*
X191119048Y-111101190D01*
X190150952Y-115657381D02*
X190722381Y-115657381D01*
X190436666Y-116657381D02*
X190436666Y-115657381D01*
X190960476Y-115657381D02*
X191627143Y-116657381D01*
X191627143Y-115657381D02*
X190960476Y-116657381D01*
X190674762Y-118197381D02*
X190198571Y-118197381D01*
X190150952Y-118673571D01*
X190198571Y-118625952D01*
X190293809Y-118578333D01*
X190531905Y-118578333D01*
X190627143Y-118625952D01*
X190674762Y-118673571D01*
X190722381Y-118768810D01*
X190722381Y-119006905D01*
X190674762Y-119102143D01*
X190627143Y-119149762D01*
X190531905Y-119197381D01*
X190293809Y-119197381D01*
X190198571Y-119149762D01*
X190150952Y-119102143D01*
X191008095Y-118197381D02*
X191341428Y-119197381D01*
X191674762Y-118197381D01*
X189952381Y-121642143D02*
X189904762Y-121689762D01*
X189761905Y-121737381D01*
X189666667Y-121737381D01*
X189523809Y-121689762D01*
X189428571Y-121594524D01*
X189380952Y-121499286D01*
X189333333Y-121308810D01*
X189333333Y-121165952D01*
X189380952Y-120975476D01*
X189428571Y-120880238D01*
X189523809Y-120785000D01*
X189666667Y-120737381D01*
X189761905Y-120737381D01*
X189904762Y-120785000D01*
X189952381Y-120832619D01*
X190238095Y-120737381D02*
X190809524Y-120737381D01*
X190523809Y-121737381D02*
X190523809Y-120737381D01*
X191095238Y-121689762D02*
X191238095Y-121737381D01*
X191476191Y-121737381D01*
X191571429Y-121689762D01*
X191619048Y-121642143D01*
X191666667Y-121546905D01*
X191666667Y-121451667D01*
X191619048Y-121356429D01*
X191571429Y-121308810D01*
X191476191Y-121261190D01*
X191285714Y-121213571D01*
X191190476Y-121165952D01*
X191142857Y-121118333D01*
X191095238Y-121023095D01*
X191095238Y-120927857D01*
X191142857Y-120832619D01*
X191190476Y-120785000D01*
X191285714Y-120737381D01*
X191523810Y-120737381D01*
X191666667Y-120785000D01*
X189738096Y-123325000D02*
X189642858Y-123277381D01*
X189500001Y-123277381D01*
X189357143Y-123325000D01*
X189261905Y-123420238D01*
X189214286Y-123515476D01*
X189166667Y-123705952D01*
X189166667Y-123848810D01*
X189214286Y-124039286D01*
X189261905Y-124134524D01*
X189357143Y-124229762D01*
X189500001Y-124277381D01*
X189595239Y-124277381D01*
X189738096Y-124229762D01*
X189785715Y-124182143D01*
X189785715Y-123848810D01*
X189595239Y-123848810D01*
X190214286Y-124277381D02*
X190214286Y-123277381D01*
X190785715Y-124277381D01*
X190785715Y-123277381D01*
X191261905Y-124277381D02*
X191261905Y-123277381D01*
X191500000Y-123277381D01*
X191642858Y-123325000D01*
X191738096Y-123420238D01*
X191785715Y-123515476D01*
X191833334Y-123705952D01*
X191833334Y-123848810D01*
X191785715Y-124039286D01*
X191738096Y-124134524D01*
X191642858Y-124229762D01*
X191500000Y-124277381D01*
X191261905Y-124277381D01*
D13*
X166624000Y-100584000D02*
X166624000Y-101346000D01*
X166624000Y-101346000D02*
X182626000Y-101346000D01*
X182626000Y-101346000D02*
X182626000Y-100584000D01*
D14*
X162052000Y-88900000D02*
G75*
G03X162052000Y-88900000I-4572000J0D01*
G01*
D15*
X173085000Y-113280000D02*
X171085000Y-113280000D01*
X171085000Y-115320000D02*
X173085000Y-115320000D01*
X160290000Y-106430000D02*
X162290000Y-106430000D01*
X162290000Y-104390000D02*
X160290000Y-104390000D01*
D14*
X160615000Y-126655000D02*
X160615000Y-127155000D01*
X165115000Y-122655000D02*
G75*
G03X165115000Y-122655000I-2000000J0D01*
G01*
X160115000Y-122655000D02*
G75*
G03X160115000Y-122655000I-2000000J0D01*
G01*
X155615000Y-125155000D02*
X165615000Y-125155000D01*
X155615000Y-120255000D02*
X165615000Y-120255000D01*
X155615000Y-126655000D02*
X165615000Y-126655000D01*
X155615000Y-127155000D02*
X165615000Y-127155000D01*
X165615000Y-127155000D02*
X165615000Y-117355000D01*
X165615000Y-117355000D02*
X155615000Y-117355000D01*
X155615000Y-117355000D02*
X155615000Y-127155000D01*
D15*
X170815000Y-127120000D02*
X173475000Y-127120000D01*
X173475000Y-127120000D02*
X173475000Y-124340000D01*
X173475000Y-124340000D02*
X170815000Y-124340000D01*
X170815000Y-124340000D02*
X170815000Y-127120000D01*
X169545000Y-127120000D02*
X168155000Y-127120000D01*
X168155000Y-127120000D02*
X168155000Y-125730000D01*
X195065000Y-122555000D02*
X195065000Y-109735000D01*
X195065000Y-109735000D02*
X192285000Y-109735000D01*
X192285000Y-109735000D02*
X192285000Y-122555000D01*
X192285000Y-122555000D02*
X195065000Y-122555000D01*
X195065000Y-123825000D02*
X195065000Y-125215000D01*
X195065000Y-125215000D02*
X193675000Y-125215000D01*
X170450000Y-117675000D02*
X172450000Y-117675000D01*
X172450000Y-119815000D02*
X170450000Y-119815000D01*
X160385000Y-116005000D02*
X158385000Y-116005000D01*
X158385000Y-113865000D02*
X160385000Y-113865000D01*
X157750000Y-94180000D02*
X159750000Y-94180000D01*
X159750000Y-96320000D02*
X157750000Y-96320000D01*
X166005000Y-109420000D02*
X168005000Y-109420000D01*
X168005000Y-111560000D02*
X166005000Y-111560000D01*
X190865000Y-96320000D02*
X188865000Y-96320000D01*
X188865000Y-94180000D02*
X190865000Y-94180000D01*
X188230000Y-104340000D02*
X190230000Y-104340000D01*
X190230000Y-106480000D02*
X188230000Y-106480000D01*
X188865000Y-85290000D02*
X190865000Y-85290000D01*
X190865000Y-87430000D02*
X188865000Y-87430000D01*
X157215000Y-112100000D02*
X159015000Y-112100000D01*
X159015000Y-108880000D02*
X156565000Y-108880000D01*
X186955000Y-115865000D02*
X185155000Y-115865000D01*
X185155000Y-119085000D02*
X187605000Y-119085000D01*
X186420000Y-112645000D02*
X184420000Y-112645000D01*
X184420000Y-114685000D02*
X186420000Y-114685000D01*
X180610000Y-126750000D02*
X182610000Y-126750000D01*
X182610000Y-124710000D02*
X180610000Y-124710000D01*
X172990000Y-105160000D02*
X174990000Y-105160000D01*
X174990000Y-103120000D02*
X172990000Y-103120000D01*
X185150000Y-108835000D02*
X183150000Y-108835000D01*
X183150000Y-110875000D02*
X185150000Y-110875000D01*
X180610000Y-122940000D02*
X182610000Y-122940000D01*
X182610000Y-120900000D02*
X180610000Y-120900000D01*
X189865000Y-92770000D02*
X192465000Y-92770000D01*
X192465000Y-92770000D02*
X192465000Y-90110000D01*
X192465000Y-90110000D02*
X189865000Y-90110000D01*
X189865000Y-90110000D02*
X189865000Y-92770000D01*
X188595000Y-92770000D02*
X187265000Y-92770000D01*
X187265000Y-92770000D02*
X187265000Y-91440000D01*
X179505000Y-114570000D02*
X179505000Y-116570000D01*
X177365000Y-116570000D02*
X177365000Y-114570000D01*
D14*
X181483095Y-102322381D02*
X181483095Y-103131905D01*
X181530714Y-103227143D01*
X181578333Y-103274762D01*
X181673571Y-103322381D01*
X181864048Y-103322381D01*
X181959286Y-103274762D01*
X182006905Y-103227143D01*
X182054524Y-103131905D01*
X182054524Y-102322381D01*
X182483095Y-102417619D02*
X182530714Y-102370000D01*
X182625952Y-102322381D01*
X182864048Y-102322381D01*
X182959286Y-102370000D01*
X183006905Y-102417619D01*
X183054524Y-102512857D01*
X183054524Y-102608095D01*
X183006905Y-102750952D01*
X182435476Y-103322381D01*
X183054524Y-103322381D01*
X161933095Y-86129762D02*
X162075952Y-86177381D01*
X162314048Y-86177381D01*
X162409286Y-86129762D01*
X162456905Y-86082143D01*
X162504524Y-85986905D01*
X162504524Y-85891667D01*
X162456905Y-85796429D01*
X162409286Y-85748810D01*
X162314048Y-85701190D01*
X162123571Y-85653571D01*
X162028333Y-85605952D01*
X161980714Y-85558333D01*
X161933095Y-85463095D01*
X161933095Y-85367857D01*
X161980714Y-85272619D01*
X162028333Y-85225000D01*
X162123571Y-85177381D01*
X162361667Y-85177381D01*
X162504524Y-85225000D01*
X162933095Y-86177381D02*
X162933095Y-85177381D01*
X163314048Y-85177381D01*
X163409286Y-85225000D01*
X163456905Y-85272619D01*
X163504524Y-85367857D01*
X163504524Y-85510714D01*
X163456905Y-85605952D01*
X163409286Y-85653571D01*
X163314048Y-85701190D01*
X162933095Y-85701190D01*
X164456905Y-86177381D02*
X163885476Y-86177381D01*
X164171190Y-86177381D02*
X164171190Y-85177381D01*
X164075952Y-85320238D01*
X163980714Y-85415476D01*
X163885476Y-85463095D01*
X167473334Y-114657143D02*
X167425715Y-114704762D01*
X167282858Y-114752381D01*
X167187620Y-114752381D01*
X167044762Y-114704762D01*
X166949524Y-114609524D01*
X166901905Y-114514286D01*
X166854286Y-114323810D01*
X166854286Y-114180952D01*
X166901905Y-113990476D01*
X166949524Y-113895238D01*
X167044762Y-113800000D01*
X167187620Y-113752381D01*
X167282858Y-113752381D01*
X167425715Y-113800000D01*
X167473334Y-113847619D01*
X168425715Y-114752381D02*
X167854286Y-114752381D01*
X168140000Y-114752381D02*
X168140000Y-113752381D01*
X168044762Y-113895238D01*
X167949524Y-113990476D01*
X167854286Y-114038095D01*
X156678334Y-105767143D02*
X156630715Y-105814762D01*
X156487858Y-105862381D01*
X156392620Y-105862381D01*
X156249762Y-105814762D01*
X156154524Y-105719524D01*
X156106905Y-105624286D01*
X156059286Y-105433810D01*
X156059286Y-105290952D01*
X156106905Y-105100476D01*
X156154524Y-105005238D01*
X156249762Y-104910000D01*
X156392620Y-104862381D01*
X156487858Y-104862381D01*
X156630715Y-104910000D01*
X156678334Y-104957619D01*
X157059286Y-104957619D02*
X157106905Y-104910000D01*
X157202143Y-104862381D01*
X157440239Y-104862381D01*
X157535477Y-104910000D01*
X157583096Y-104957619D01*
X157630715Y-105052857D01*
X157630715Y-105148095D01*
X157583096Y-105290952D01*
X157011667Y-105862381D01*
X157630715Y-105862381D01*
X154757381Y-127103095D02*
X153757381Y-127103095D01*
X153757381Y-126722142D01*
X153805000Y-126626904D01*
X153852619Y-126579285D01*
X153947857Y-126531666D01*
X154090714Y-126531666D01*
X154185952Y-126579285D01*
X154233571Y-126626904D01*
X154281190Y-126722142D01*
X154281190Y-127103095D01*
X154757381Y-125579285D02*
X154757381Y-126150714D01*
X154757381Y-125865000D02*
X153757381Y-125865000D01*
X153900238Y-125960238D01*
X153995476Y-126055476D01*
X154043095Y-126150714D01*
X166266905Y-125547381D02*
X166266905Y-124547381D01*
X166647858Y-124547381D01*
X166743096Y-124595000D01*
X166790715Y-124642619D01*
X166838334Y-124737857D01*
X166838334Y-124880714D01*
X166790715Y-124975952D01*
X166743096Y-125023571D01*
X166647858Y-125071190D01*
X166266905Y-125071190D01*
X167219286Y-124642619D02*
X167266905Y-124595000D01*
X167362143Y-124547381D01*
X167600239Y-124547381D01*
X167695477Y-124595000D01*
X167743096Y-124642619D01*
X167790715Y-124737857D01*
X167790715Y-124833095D01*
X167743096Y-124975952D01*
X167171667Y-125547381D01*
X167790715Y-125547381D01*
X192936905Y-126667381D02*
X192936905Y-125667381D01*
X193317858Y-125667381D01*
X193413096Y-125715000D01*
X193460715Y-125762619D01*
X193508334Y-125857857D01*
X193508334Y-126000714D01*
X193460715Y-126095952D01*
X193413096Y-126143571D01*
X193317858Y-126191190D01*
X192936905Y-126191190D01*
X193841667Y-125667381D02*
X194460715Y-125667381D01*
X194127381Y-126048333D01*
X194270239Y-126048333D01*
X194365477Y-126095952D01*
X194413096Y-126143571D01*
X194460715Y-126238810D01*
X194460715Y-126476905D01*
X194413096Y-126572143D01*
X194365477Y-126619762D01*
X194270239Y-126667381D01*
X193984524Y-126667381D01*
X193889286Y-126619762D01*
X193841667Y-126572143D01*
X166838334Y-119197381D02*
X166505000Y-118721190D01*
X166266905Y-119197381D02*
X166266905Y-118197381D01*
X166647858Y-118197381D01*
X166743096Y-118245000D01*
X166790715Y-118292619D01*
X166838334Y-118387857D01*
X166838334Y-118530714D01*
X166790715Y-118625952D01*
X166743096Y-118673571D01*
X166647858Y-118721190D01*
X166266905Y-118721190D01*
X167790715Y-119197381D02*
X167219286Y-119197381D01*
X167505000Y-119197381D02*
X167505000Y-118197381D01*
X167409762Y-118340238D01*
X167314524Y-118435476D01*
X167219286Y-118483095D01*
X154773334Y-115387381D02*
X154440000Y-114911190D01*
X154201905Y-115387381D02*
X154201905Y-114387381D01*
X154582858Y-114387381D01*
X154678096Y-114435000D01*
X154725715Y-114482619D01*
X154773334Y-114577857D01*
X154773334Y-114720714D01*
X154725715Y-114815952D01*
X154678096Y-114863571D01*
X154582858Y-114911190D01*
X154201905Y-114911190D01*
X155154286Y-114482619D02*
X155201905Y-114435000D01*
X155297143Y-114387381D01*
X155535239Y-114387381D01*
X155630477Y-114435000D01*
X155678096Y-114482619D01*
X155725715Y-114577857D01*
X155725715Y-114673095D01*
X155678096Y-114815952D01*
X155106667Y-115387381D01*
X155725715Y-115387381D01*
X154138334Y-95702381D02*
X153805000Y-95226190D01*
X153566905Y-95702381D02*
X153566905Y-94702381D01*
X153947858Y-94702381D01*
X154043096Y-94750000D01*
X154090715Y-94797619D01*
X154138334Y-94892857D01*
X154138334Y-95035714D01*
X154090715Y-95130952D01*
X154043096Y-95178571D01*
X153947858Y-95226190D01*
X153566905Y-95226190D01*
X154471667Y-94702381D02*
X155090715Y-94702381D01*
X154757381Y-95083333D01*
X154900239Y-95083333D01*
X154995477Y-95130952D01*
X155043096Y-95178571D01*
X155090715Y-95273810D01*
X155090715Y-95511905D01*
X155043096Y-95607143D01*
X154995477Y-95654762D01*
X154900239Y-95702381D01*
X154614524Y-95702381D01*
X154519286Y-95654762D01*
X154471667Y-95607143D01*
X162393334Y-110942381D02*
X162060000Y-110466190D01*
X161821905Y-110942381D02*
X161821905Y-109942381D01*
X162202858Y-109942381D01*
X162298096Y-109990000D01*
X162345715Y-110037619D01*
X162393334Y-110132857D01*
X162393334Y-110275714D01*
X162345715Y-110370952D01*
X162298096Y-110418571D01*
X162202858Y-110466190D01*
X161821905Y-110466190D01*
X163250477Y-110275714D02*
X163250477Y-110942381D01*
X163012381Y-109894762D02*
X162774286Y-110609048D01*
X163393334Y-110609048D01*
X185253334Y-95702381D02*
X184920000Y-95226190D01*
X184681905Y-95702381D02*
X184681905Y-94702381D01*
X185062858Y-94702381D01*
X185158096Y-94750000D01*
X185205715Y-94797619D01*
X185253334Y-94892857D01*
X185253334Y-95035714D01*
X185205715Y-95130952D01*
X185158096Y-95178571D01*
X185062858Y-95226190D01*
X184681905Y-95226190D01*
X186158096Y-94702381D02*
X185681905Y-94702381D01*
X185634286Y-95178571D01*
X185681905Y-95130952D01*
X185777143Y-95083333D01*
X186015239Y-95083333D01*
X186110477Y-95130952D01*
X186158096Y-95178571D01*
X186205715Y-95273810D01*
X186205715Y-95511905D01*
X186158096Y-95607143D01*
X186110477Y-95654762D01*
X186015239Y-95702381D01*
X185777143Y-95702381D01*
X185681905Y-95654762D01*
X185634286Y-95607143D01*
X184618334Y-105862381D02*
X184285000Y-105386190D01*
X184046905Y-105862381D02*
X184046905Y-104862381D01*
X184427858Y-104862381D01*
X184523096Y-104910000D01*
X184570715Y-104957619D01*
X184618334Y-105052857D01*
X184618334Y-105195714D01*
X184570715Y-105290952D01*
X184523096Y-105338571D01*
X184427858Y-105386190D01*
X184046905Y-105386190D01*
X185475477Y-104862381D02*
X185285000Y-104862381D01*
X185189762Y-104910000D01*
X185142143Y-104957619D01*
X185046905Y-105100476D01*
X184999286Y-105290952D01*
X184999286Y-105671905D01*
X185046905Y-105767143D01*
X185094524Y-105814762D01*
X185189762Y-105862381D01*
X185380239Y-105862381D01*
X185475477Y-105814762D01*
X185523096Y-105767143D01*
X185570715Y-105671905D01*
X185570715Y-105433810D01*
X185523096Y-105338571D01*
X185475477Y-105290952D01*
X185380239Y-105243333D01*
X185189762Y-105243333D01*
X185094524Y-105290952D01*
X185046905Y-105338571D01*
X184999286Y-105433810D01*
X185253334Y-86812381D02*
X184920000Y-86336190D01*
X184681905Y-86812381D02*
X184681905Y-85812381D01*
X185062858Y-85812381D01*
X185158096Y-85860000D01*
X185205715Y-85907619D01*
X185253334Y-86002857D01*
X185253334Y-86145714D01*
X185205715Y-86240952D01*
X185158096Y-86288571D01*
X185062858Y-86336190D01*
X184681905Y-86336190D01*
X185586667Y-85812381D02*
X186253334Y-85812381D01*
X185824762Y-86812381D01*
X153543095Y-109942381D02*
X153543095Y-110751905D01*
X153590714Y-110847143D01*
X153638333Y-110894762D01*
X153733571Y-110942381D01*
X153924048Y-110942381D01*
X154019286Y-110894762D01*
X154066905Y-110847143D01*
X154114524Y-110751905D01*
X154114524Y-109942381D01*
X155114524Y-110942381D02*
X154543095Y-110942381D01*
X154828809Y-110942381D02*
X154828809Y-109942381D01*
X154733571Y-110085238D01*
X154638333Y-110180476D01*
X154543095Y-110228095D01*
X181483095Y-116927381D02*
X181483095Y-117736905D01*
X181530714Y-117832143D01*
X181578333Y-117879762D01*
X181673571Y-117927381D01*
X181864048Y-117927381D01*
X181959286Y-117879762D01*
X182006905Y-117832143D01*
X182054524Y-117736905D01*
X182054524Y-116927381D01*
X182435476Y-116927381D02*
X183054524Y-116927381D01*
X182721190Y-117308333D01*
X182864048Y-117308333D01*
X182959286Y-117355952D01*
X183006905Y-117403571D01*
X183054524Y-117498810D01*
X183054524Y-117736905D01*
X183006905Y-117832143D01*
X182959286Y-117879762D01*
X182864048Y-117927381D01*
X182578333Y-117927381D01*
X182483095Y-117879762D01*
X182435476Y-117832143D01*
X180808334Y-114022143D02*
X180760715Y-114069762D01*
X180617858Y-114117381D01*
X180522620Y-114117381D01*
X180379762Y-114069762D01*
X180284524Y-113974524D01*
X180236905Y-113879286D01*
X180189286Y-113688810D01*
X180189286Y-113545952D01*
X180236905Y-113355476D01*
X180284524Y-113260238D01*
X180379762Y-113165000D01*
X180522620Y-113117381D01*
X180617858Y-113117381D01*
X180760715Y-113165000D01*
X180808334Y-113212619D01*
X181141667Y-113117381D02*
X181760715Y-113117381D01*
X181427381Y-113498333D01*
X181570239Y-113498333D01*
X181665477Y-113545952D01*
X181713096Y-113593571D01*
X181760715Y-113688810D01*
X181760715Y-113926905D01*
X181713096Y-114022143D01*
X181665477Y-114069762D01*
X181570239Y-114117381D01*
X181284524Y-114117381D01*
X181189286Y-114069762D01*
X181141667Y-114022143D01*
X176998334Y-126087143D02*
X176950715Y-126134762D01*
X176807858Y-126182381D01*
X176712620Y-126182381D01*
X176569762Y-126134762D01*
X176474524Y-126039524D01*
X176426905Y-125944286D01*
X176379286Y-125753810D01*
X176379286Y-125610952D01*
X176426905Y-125420476D01*
X176474524Y-125325238D01*
X176569762Y-125230000D01*
X176712620Y-125182381D01*
X176807858Y-125182381D01*
X176950715Y-125230000D01*
X176998334Y-125277619D01*
X177855477Y-125515714D02*
X177855477Y-126182381D01*
X177617381Y-125134762D02*
X177379286Y-125849048D01*
X177998334Y-125849048D01*
X169378334Y-104497143D02*
X169330715Y-104544762D01*
X169187858Y-104592381D01*
X169092620Y-104592381D01*
X168949762Y-104544762D01*
X168854524Y-104449524D01*
X168806905Y-104354286D01*
X168759286Y-104163810D01*
X168759286Y-104020952D01*
X168806905Y-103830476D01*
X168854524Y-103735238D01*
X168949762Y-103640000D01*
X169092620Y-103592381D01*
X169187858Y-103592381D01*
X169330715Y-103640000D01*
X169378334Y-103687619D01*
X170283096Y-103592381D02*
X169806905Y-103592381D01*
X169759286Y-104068571D01*
X169806905Y-104020952D01*
X169902143Y-103973333D01*
X170140239Y-103973333D01*
X170235477Y-104020952D01*
X170283096Y-104068571D01*
X170330715Y-104163810D01*
X170330715Y-104401905D01*
X170283096Y-104497143D01*
X170235477Y-104544762D01*
X170140239Y-104592381D01*
X169902143Y-104592381D01*
X169806905Y-104544762D01*
X169759286Y-104497143D01*
X179538334Y-110212143D02*
X179490715Y-110259762D01*
X179347858Y-110307381D01*
X179252620Y-110307381D01*
X179109762Y-110259762D01*
X179014524Y-110164524D01*
X178966905Y-110069286D01*
X178919286Y-109878810D01*
X178919286Y-109735952D01*
X178966905Y-109545476D01*
X179014524Y-109450238D01*
X179109762Y-109355000D01*
X179252620Y-109307381D01*
X179347858Y-109307381D01*
X179490715Y-109355000D01*
X179538334Y-109402619D01*
X180395477Y-109307381D02*
X180205000Y-109307381D01*
X180109762Y-109355000D01*
X180062143Y-109402619D01*
X179966905Y-109545476D01*
X179919286Y-109735952D01*
X179919286Y-110116905D01*
X179966905Y-110212143D01*
X180014524Y-110259762D01*
X180109762Y-110307381D01*
X180300239Y-110307381D01*
X180395477Y-110259762D01*
X180443096Y-110212143D01*
X180490715Y-110116905D01*
X180490715Y-109878810D01*
X180443096Y-109783571D01*
X180395477Y-109735952D01*
X180300239Y-109688333D01*
X180109762Y-109688333D01*
X180014524Y-109735952D01*
X179966905Y-109783571D01*
X179919286Y-109878810D01*
X176998334Y-122277143D02*
X176950715Y-122324762D01*
X176807858Y-122372381D01*
X176712620Y-122372381D01*
X176569762Y-122324762D01*
X176474524Y-122229524D01*
X176426905Y-122134286D01*
X176379286Y-121943810D01*
X176379286Y-121800952D01*
X176426905Y-121610476D01*
X176474524Y-121515238D01*
X176569762Y-121420000D01*
X176712620Y-121372381D01*
X176807858Y-121372381D01*
X176950715Y-121420000D01*
X176998334Y-121467619D01*
X177331667Y-121372381D02*
X177998334Y-121372381D01*
X177569762Y-122372381D01*
X184681905Y-91892381D02*
X184681905Y-90892381D01*
X185062858Y-90892381D01*
X185158096Y-90940000D01*
X185205715Y-90987619D01*
X185253334Y-91082857D01*
X185253334Y-91225714D01*
X185205715Y-91320952D01*
X185158096Y-91368571D01*
X185062858Y-91416190D01*
X184681905Y-91416190D01*
X186110477Y-91225714D02*
X186110477Y-91892381D01*
X185872381Y-90844762D02*
X185634286Y-91559048D01*
X186253334Y-91559048D01*
X177037381Y-115736666D02*
X176561190Y-116070000D01*
X177037381Y-116308095D02*
X176037381Y-116308095D01*
X176037381Y-115927142D01*
X176085000Y-115831904D01*
X176132619Y-115784285D01*
X176227857Y-115736666D01*
X176370714Y-115736666D01*
X176465952Y-115784285D01*
X176513571Y-115831904D01*
X176561190Y-115927142D01*
X176561190Y-116308095D01*
X176465952Y-115165238D02*
X176418333Y-115260476D01*
X176370714Y-115308095D01*
X176275476Y-115355714D01*
X176227857Y-115355714D01*
X176132619Y-115308095D01*
X176085000Y-115260476D01*
X176037381Y-115165238D01*
X176037381Y-114974761D01*
X176085000Y-114879523D01*
X176132619Y-114831904D01*
X176227857Y-114784285D01*
X176275476Y-114784285D01*
X176370714Y-114831904D01*
X176418333Y-114879523D01*
X176465952Y-114974761D01*
X176465952Y-115165238D01*
X176513571Y-115260476D01*
X176561190Y-115308095D01*
X176656429Y-115355714D01*
X176846905Y-115355714D01*
X176942143Y-115308095D01*
X176989762Y-115260476D01*
X177037381Y-115165238D01*
X177037381Y-114974761D01*
X176989762Y-114879523D01*
X176942143Y-114831904D01*
X176846905Y-114784285D01*
X176656429Y-114784285D01*
X176561190Y-114831904D01*
X176513571Y-114879523D01*
X176465952Y-114974761D01*
%LPC*%
D16*
X166940000Y-85725000D03*
D17*
X166940000Y-87725000D03*
X166940000Y-89725000D03*
X166940000Y-91725000D03*
X166940000Y-93725000D03*
X166940000Y-95725000D03*
X166940000Y-97725000D03*
X166940000Y-99725000D03*
X182340000Y-99725000D03*
X182240000Y-97725000D03*
X182340000Y-95725000D03*
X182340000Y-93725000D03*
X182340000Y-91725000D03*
X182340000Y-89725000D03*
X182340000Y-87725000D03*
X182340000Y-85725000D03*
D18*
X157480000Y-86868000D03*
X157480000Y-90932000D03*
D19*
X170085000Y-114300000D03*
X174085000Y-114300000D03*
X163290000Y-105410000D03*
X159290000Y-105410000D03*
D20*
X158115000Y-122555000D03*
D21*
X163115000Y-122555000D03*
D22*
X169545000Y-125730000D03*
D23*
X172085000Y-125730000D03*
D22*
X193675000Y-123825000D03*
D23*
X193675000Y-121285000D03*
X193675000Y-118745000D03*
X193675000Y-116205000D03*
X193675000Y-113665000D03*
X193675000Y-111125000D03*
D24*
X173450000Y-118745000D03*
X169450000Y-118745000D03*
X157385000Y-114935000D03*
X161385000Y-114935000D03*
X160750000Y-95250000D03*
X156750000Y-95250000D03*
X169005000Y-110490000D03*
X165005000Y-110490000D03*
X187865000Y-95250000D03*
X191865000Y-95250000D03*
X191230000Y-105410000D03*
X187230000Y-105410000D03*
X191865000Y-86360000D03*
X187865000Y-86360000D03*
D25*
X156765000Y-109540000D03*
X156765000Y-110490000D03*
X156765000Y-111440000D03*
X159465000Y-111440000D03*
X159465000Y-109540000D03*
X187405000Y-118425000D03*
X187405000Y-117475000D03*
X187405000Y-116525000D03*
X184705000Y-116525000D03*
X184705000Y-118425000D03*
D19*
X183420000Y-113665000D03*
X187420000Y-113665000D03*
X183610000Y-125730000D03*
X179610000Y-125730000D03*
X175990000Y-104140000D03*
X171990000Y-104140000D03*
X182150000Y-109855000D03*
X186150000Y-109855000D03*
X183610000Y-121920000D03*
X179610000Y-121920000D03*
D22*
X188595000Y-91440000D03*
D23*
X191135000Y-91440000D03*
D26*
X178435000Y-117570000D03*
X178435000Y-113570000D03*
D27*
X189865000Y-100330000D03*
X159385000Y-100330000D03*
M02*
