G04 #@! TF.FileFunction,Soldermask,Top*
%FSLAX46Y46*%
G04 Gerber Fmt 4.6, Leading zero omitted, Abs format (unit mm)*
G04 Created by KiCad (PCBNEW 4.0.5) date 2017 May 09, Tuesday 21:56:57*
%MOMM*%
%LPD*%
G01*
G04 APERTURE LIST*
%ADD10C,0.100000*%
%ADD11R,2.900000X1.500000*%
%ADD12O,2.900000X1.500000*%
%ADD13C,1.924000*%
%ADD14R,2.400000X2.000000*%
%ADD15R,2.900000X2.900000*%
%ADD16C,2.900000*%
%ADD17R,2.100000X2.100000*%
%ADD18O,2.100000X2.100000*%
%ADD19R,2.400000X2.100000*%
%ADD20R,2.100000X2.400000*%
%ADD21R,1.960000X1.050000*%
%ADD22C,3.600000*%
G04 APERTURE END LIST*
D10*
D11*
X166940000Y-85725000D03*
D12*
X166940000Y-87725000D03*
X166940000Y-89725000D03*
X166940000Y-91725000D03*
X166940000Y-93725000D03*
X166940000Y-95725000D03*
X166940000Y-97725000D03*
X166940000Y-99725000D03*
X182340000Y-99725000D03*
X182240000Y-97725000D03*
X182340000Y-95725000D03*
X182340000Y-93725000D03*
X182340000Y-91725000D03*
X182340000Y-89725000D03*
X182340000Y-87725000D03*
X182340000Y-85725000D03*
D13*
X157480000Y-86868000D03*
X157480000Y-90932000D03*
D14*
X170085000Y-114300000D03*
X174085000Y-114300000D03*
X163290000Y-105410000D03*
X159290000Y-105410000D03*
D15*
X158115000Y-122555000D03*
D16*
X163115000Y-122555000D03*
D17*
X169545000Y-125730000D03*
D18*
X172085000Y-125730000D03*
D17*
X193675000Y-123825000D03*
D18*
X193675000Y-121285000D03*
X193675000Y-118745000D03*
X193675000Y-116205000D03*
X193675000Y-113665000D03*
X193675000Y-111125000D03*
D19*
X173450000Y-118745000D03*
X169450000Y-118745000D03*
X157385000Y-114935000D03*
X161385000Y-114935000D03*
D20*
X163195000Y-92615000D03*
X163195000Y-96615000D03*
D19*
X169005000Y-108585000D03*
X165005000Y-108585000D03*
X187865000Y-95250000D03*
X191865000Y-95250000D03*
X191230000Y-105410000D03*
X187230000Y-105410000D03*
X191865000Y-86360000D03*
X187865000Y-86360000D03*
D21*
X156765000Y-108270000D03*
X156765000Y-109220000D03*
X156765000Y-110170000D03*
X159465000Y-110170000D03*
X159465000Y-108270000D03*
X183595000Y-118425000D03*
X183595000Y-117475000D03*
X183595000Y-116525000D03*
X180895000Y-116525000D03*
X180895000Y-118425000D03*
D14*
X180245000Y-113030000D03*
X184245000Y-113030000D03*
X183610000Y-125730000D03*
X179610000Y-125730000D03*
X175990000Y-104140000D03*
X171990000Y-104140000D03*
X180245000Y-109220000D03*
X184245000Y-109220000D03*
X183610000Y-121920000D03*
X179610000Y-121920000D03*
D17*
X188595000Y-91440000D03*
D18*
X191135000Y-91440000D03*
D22*
X159385000Y-100330000D03*
X189865000Y-100330000D03*
M02*
