M48
;DRILL file {KiCad 4.0.2-stable} date 2017 March 19, Sunday 16:01:41
;FORMAT={-:-/ absolute / inch / decimal}
FMAT,2
INCH,TZ
T1C0.016
T2C0.026
T3C0.030
T4C0.039
T5C0.051
%
G90
G05
M72
T1
X4.56Y-4.68
X4.68Y-5.04
X4.76Y-4.42
X5.Y-4.34
X5.06Y-4.11
X5.33Y-4.55
X5.48Y-4.76
T2
X4.3065Y-3.864
X4.3065Y-3.9427
X4.3065Y-4.0215
X4.3065Y-4.1002
X4.3065Y-4.179
X4.3065Y-4.2577
X4.3065Y-4.3364
X4.3065Y-4.4152
X4.8577Y-3.864
X4.8577Y-3.9427
X4.8577Y-4.0215
X4.8577Y-4.1002
X4.8577Y-4.179
X4.8577Y-4.2577
X4.8577Y-4.3364
X4.8577Y-4.4152
T3
X3.96Y-3.28
X4.12Y-3.28
T4
X5.33Y-4.43
X5.42Y-3.62
X5.42Y-3.72
X5.42Y-3.82
X5.42Y-3.92
X5.42Y-4.02
X5.42Y-4.12
X5.43Y-4.43
T5
X4.86Y-5.04
X5.0569Y-5.04
T0
M30
